<?xml version="1.0" encoding="UTF-8"?> <svg xmlns="http://www.w3.org/2000/svg" width="50" height="50" viewBox="0 0 50 50" fill="none"> <path fill-rule="evenodd" clip-rule="evenodd" d="M14.7727 33.9999C14.7727 32.7499 13.75 31.7272 12.5 31.7272C11.25 31.7272 10.2273 32.7499 10.2273 33.9999C10.2273 35.2499 11.25 36.2727 12.5 36.2727C13.75 36.2727 14.7727 35.2499 14.7727 33.9999ZM39.7727 33.9999C39.7727 32.7499 38.75 31.7272 37.5 31.7272C36.25 31.7272 35.2273 32.7499 35.2273 33.9999C35.2273 35.2499 36.25 36.2727 37.5 36.2727C38.75 36.2727 39.7727 35.2499 39.7727 33.9999ZM50 29.4545V33.9999C50 35.2499 49 36.2727 47.7273 36.2727H43.9318C43 38.9318 40.4773 40.8181 37.5 40.8181C34.5227 40.8181 32 38.9318 31.0682 36.2727H18.9318C18 38.9318 15.4773 40.8181 12.5 40.8181C9.52273 40.8181 7 38.9318 6.06818 36.2727H2.27273C1.02273 36.2727 0 35.2727 0 33.9999C0 33.9999 0 25.4999 0 24.909C0 14.7045 6.54545 8.99994 14.7727 8.99994C17.0909 8.99994 22.7727 8.99994 25 8.99994C29.4545 8.99994 31.6818 10.8408 34.4773 15.2045C34.5682 15.3408 34.6591 15.4772 34.75 15.6136C36.3864 18.159 37.2045 18.9772 38.5909 19.2499C45.9318 20.6363 50 23.7954 50 29.4545ZM30.9318 18.0681C30.8409 17.9318 30.75 17.7954 30.6591 17.659C28.6136 14.4772 27.4773 13.5454 25 13.5454C24 13.5454 22.25 13.5454 20.4545 13.5454V20.3636H32.5227C32.0227 19.7045 31.5 18.9545 30.9318 18.0681ZM4.54545 31.7272H6.06818C7 29.0681 9.52273 27.1818 12.5 27.1818C15.4773 27.1818 18 29.0681 18.9318 31.7272H31.0682C32 29.0681 34.5227 27.1818 37.5 27.1818C40.4773 27.1818 43 29.0681 43.9318 31.7272H45.4545V29.4545C45.4545 27.409 44.3864 25.9545 41.9318 24.909H4.54545C4.54545 25.5227 4.54545 29.2272 4.54545 31.7272ZM15.9091 20.3636V13.5454C15.4773 13.5454 15.0909 13.5454 14.7727 13.5454C10.25 13.5454 6.59091 15.8181 5.18182 20.3636H15.9091Z" fill="#F15833"></path> </svg> 