<?xml version="1.0" encoding="UTF-8"?> <svg xmlns="http://www.w3.org/2000/svg" width="50" height="50" viewBox="0 0 50 50" fill="none"> <path d="M23.367 31.2329L11.867 19.7329C10.97 18.8359 10.97 17.3869 11.867 16.4899C12.764 15.5929 14.213 15.5929 15.11 16.4899L25 26.3799L34.844 16.4899C35.741 15.5929 37.19 15.5929 38.087 16.4899C38.984 17.3869 38.984 18.8359 38.087 19.7329L26.587 31.2329C25.69 32.1299 24.241 32.1299 23.344 31.2329H23.367ZM8.9 6.59994C7.635 6.59994 6.6 7.63494 6.6 8.89994V24.9999C6.6 35.1659 14.834 43.3999 25 43.3999C35.166 43.3999 43.4 35.1659 43.4 24.9999V8.89994C43.4 7.63494 42.365 6.59994 41.1 6.59994H8.9ZM48 8.89994V24.9999C48 37.6959 37.696 47.9999 25 47.9999C12.304 47.9999 2 37.6959 2 24.9999V8.89994C2 5.08194 5.082 1.99994 8.9 1.99994H41.1C44.918 1.99994 48 5.08194 48 8.89994Z" fill="#F15833"></path> </svg> 