<?xml version="1.0" encoding="UTF-8"?> <svg xmlns="http://www.w3.org/2000/svg" width="50" height="50" viewBox="0 0 50 50" fill="none"> <path d="M35.4051 46.5497C38.1868 48.009 40.8774 46.0709 40.3529 42.97L38.3465 31.3187L46.7828 23.156C49.0401 20.9671 48.014 17.7978 44.8903 17.3418L33.1934 15.6545L28.0632 5.12049C26.6724 2.29317 23.3435 2.29317 21.9526 5.12049L16.7312 15.7229L5.12552 17.3646C2.00179 17.7978 0.952952 20.9671 3.21024 23.156L11.6694 31.4099L9.6401 42.97C9.11568 46.0709 11.7834 48.0318 14.5879 46.5497L25.0535 41.0547L35.4051 46.5497ZM22.933 37.019L14.5423 41.4195L16.1384 32.0712C16.3664 30.7031 15.8419 29.0842 14.8615 28.1266L8.06684 21.5143L17.438 20.1463C18.8061 19.9411 20.1741 18.9606 20.7897 17.7066L24.9851 9.22465L29.1805 17.7066C29.7961 18.9378 31.1642 19.9411 32.5322 20.1463L41.9034 21.5143L35.1315 28.1266C34.1511 29.0842 33.6039 30.7031 33.8547 32.0712L35.4735 41.4195L27.06 36.9962C25.8288 36.3577 24.1415 36.3577 22.9102 36.9962L22.933 37.019Z" fill="#F15833"></path> </svg> 