<?xml version="1.0" encoding="UTF-8" standalone="no"?>
<svg
   width="240"
   height="400"
   viewBox="0 0 240 400"
   fill="none"
   version="1.1"
   id="svg175"
   sodipodi:docname="Listings Category Page_ Right Side (240х400) ru.svg"
   inkscape:version="1.4 (86a8ad7, 2024-10-11)"
   xmlns:inkscape="http://www.inkscape.org/namespaces/inkscape"
   xmlns:sodipodi="http://sodipodi.sourceforge.net/DTD/sodipodi-0.dtd"
   xmlns="http://www.w3.org/2000/svg"
   xmlns:svg="http://www.w3.org/2000/svg">
  <defs
     id="defs175" />
  <sodipodi:namedview
     id="namedview175"
     pagecolor="#ffffff"
     bordercolor="#000000"
     borderopacity="0.25"
     inkscape:showpageshadow="2"
     inkscape:pageopacity="0.0"
     inkscape:pagecheckerboard="0"
     inkscape:deskcolor="#d1d1d1"
     inkscape:zoom="2.2675"
     inkscape:cx="119.9559"
     inkscape:cy="200"
     inkscape:window-width="1920"
     inkscape:window-height="1129"
     inkscape:window-x="1912"
     inkscape:window-y="-8"
     inkscape:window-maximized="1"
     inkscape:current-layer="g175" />
  <mask
     id="mask0_1_129201"
     style="mask-type:alpha"
     maskUnits="userSpaceOnUse"
     x="0"
     y="0"
     width="240"
     height="400">
    <rect
       x="0.5"
       y="0.5"
       width="239"
       height="399"
       rx="3.5"
       fill="white"
       stroke="#E5E5E5"
       id="rect1" />
  </mask>
  <g
     mask="url(#mask0_1_129201)"
     id="g175">
    <rect
       x="0.5"
       y="0.5"
       width="239"
       height="399"
       rx="3.5"
       fill="white"
       stroke="#E5E5E5"
       id="rect2" />
    <path
       d="M59.0887 305.231H54.6981V310.72H59.0887V305.231Z"
       stroke="#E5E5E5"
       stroke-width="1.59158"
       stroke-miterlimit="10"
       stroke-linecap="round"
       stroke-linejoin="round"
       id="path2" />
    <path
       d="M52.5029 305.231H41.5264V308.524H52.5029V305.231Z"
       stroke="#E5E5E5"
       stroke-width="1.59158"
       stroke-miterlimit="10"
       stroke-linecap="round"
       stroke-linejoin="round"
       id="path3" />
    <path
       d="M47.0146 299.743H41.5264V303.036H47.0146V299.743Z"
       stroke="#E5E5E5"
       stroke-width="1.59158"
       stroke-miterlimit="10"
       stroke-linecap="round"
       stroke-linejoin="round"
       id="path4" />
    <path
       d="M44.2706 299.743V303.036"
       stroke="#E5E5E5"
       stroke-width="1.59158"
       stroke-miterlimit="10"
       stroke-linecap="round"
       stroke-linejoin="round"
       id="path5" />
    <path
       d="M47.0146 294.255H41.5264V297.548H47.0146V294.255Z"
       stroke="#E5E5E5"
       stroke-width="1.59158"
       stroke-miterlimit="10"
       stroke-linecap="round"
       stroke-linejoin="round"
       id="path6" />
    <path
       d="M44.2705 294.255V297.548"
       stroke="#E5E5E5"
       stroke-width="1.59158"
       stroke-miterlimit="10"
       stroke-linecap="round"
       stroke-linejoin="round"
       id="path7" />
    <path
       d="M47.0146 288.767H41.5264V292.06H47.0146V288.767Z"
       stroke="#E5E5E5"
       stroke-width="1.59158"
       stroke-miterlimit="10"
       stroke-linecap="round"
       stroke-linejoin="round"
       id="path8" />
    <path
       d="M39.3312 290.962H37.1359V293.157H39.3312V290.962Z"
       stroke="#E5E5E5"
       stroke-width="1.59158"
       stroke-miterlimit="10"
       stroke-linecap="round"
       stroke-linejoin="round"
       id="path9" />
    <path
       d="M39.3312 285.474H37.1359V287.669H39.3312V285.474Z"
       stroke="#E5E5E5"
       stroke-width="1.59158"
       stroke-miterlimit="10"
       stroke-linecap="round"
       stroke-linejoin="round"
       id="path10" />
    <path
       d="M39.3312 301.938H37.1359V304.134H39.3312V301.938Z"
       stroke="#E5E5E5"
       stroke-width="1.59158"
       stroke-miterlimit="10"
       stroke-linecap="round"
       stroke-linejoin="round"
       id="path11" />
    <path
       d="M39.3312 296.45H37.1359V298.645H39.3312V296.45Z"
       stroke="#E5E5E5"
       stroke-width="1.59158"
       stroke-miterlimit="10"
       stroke-linecap="round"
       stroke-linejoin="round"
       id="path12" />
    <path
       d="M44.2705 288.767V292.06"
       stroke="#E5E5E5"
       stroke-width="1.59158"
       stroke-miterlimit="10"
       stroke-linecap="round"
       stroke-linejoin="round"
       id="path13" />
    <path
       d="M47.0146 283.279H41.5264V286.571H47.0146V283.279Z"
       stroke="#E5E5E5"
       stroke-width="1.59158"
       stroke-miterlimit="10"
       stroke-linecap="round"
       stroke-linejoin="round"
       id="path14" />
    <path
       d="M44.2706 283.279V286.571"
       stroke="#E5E5E5"
       stroke-width="1.59158"
       stroke-miterlimit="10"
       stroke-linecap="round"
       stroke-linejoin="round"
       id="path15" />
    <path
       d="M59.0887 299.743H53.6005V303.036H59.0887V299.743Z"
       stroke="#E5E5E5"
       stroke-width="1.59158"
       stroke-miterlimit="10"
       stroke-linecap="round"
       stroke-linejoin="round"
       id="path16" />
    <path
       d="M64.577 286.023V306.878"
       stroke="#E5E5E5"
       stroke-width="1.59158"
       stroke-miterlimit="10"
       stroke-linecap="round"
       stroke-linejoin="round"
       id="path17" />
    <path
       d="M61.284 288.767H64.5769"
       stroke="#E5E5E5"
       stroke-width="1.59158"
       stroke-miterlimit="10"
       stroke-linecap="round"
       stroke-linejoin="round"
       id="path18" />
    <path
       d="M61.284 286.572H64.5769"
       stroke="#E5E5E5"
       stroke-width="1.59158"
       stroke-miterlimit="10"
       stroke-linecap="round"
       stroke-linejoin="round"
       id="path19" />
    <path
       d="M61.284 290.962H64.5769"
       stroke="#E5E5E5"
       stroke-width="1.59158"
       stroke-miterlimit="10"
       stroke-linecap="round"
       stroke-linejoin="round"
       id="path20" />
    <path
       d="M61.284 293.157H64.5769"
       stroke="#E5E5E5"
       stroke-width="1.59158"
       stroke-miterlimit="10"
       stroke-linecap="round"
       stroke-linejoin="round"
       id="path21" />
    <path
       d="M61.2841 295.353H64.577"
       stroke="#E5E5E5"
       stroke-width="1.59158"
       stroke-miterlimit="10"
       stroke-linecap="round"
       stroke-linejoin="round"
       id="path22" />
    <path
       d="M61.284 297.548H64.5769"
       stroke="#E5E5E5"
       stroke-width="1.59158"
       stroke-miterlimit="10"
       stroke-linecap="round"
       stroke-linejoin="round"
       id="path23" />
    <path
       d="M61.2841 299.743H64.577"
       stroke="#E5E5E5"
       stroke-width="1.59158"
       stroke-miterlimit="10"
       stroke-linecap="round"
       stroke-linejoin="round"
       id="path24" />
    <path
       d="M61.284 301.938H64.5769"
       stroke="#E5E5E5"
       stroke-width="1.59158"
       stroke-miterlimit="10"
       stroke-linecap="round"
       stroke-linejoin="round"
       id="path25" />
    <path
       d="M61.2841 304.134H64.577"
       stroke="#E5E5E5"
       stroke-width="1.59158"
       stroke-miterlimit="10"
       stroke-linecap="round"
       stroke-linejoin="round"
       id="path26" />
    <path
       d="M61.284 306.329H64.5769"
       stroke="#E5E5E5"
       stroke-width="1.59158"
       stroke-miterlimit="10"
       stroke-linecap="round"
       stroke-linejoin="round"
       id="path27" />
    <path
       d="M56.3446 299.743V303.036"
       stroke="#E5E5E5"
       stroke-width="1.59158"
       stroke-miterlimit="10"
       stroke-linecap="round"
       stroke-linejoin="round"
       id="path28" />
    <path
       d="M59.0887 294.255H53.6005V297.548H59.0887V294.255Z"
       stroke="#E5E5E5"
       stroke-width="1.59158"
       stroke-miterlimit="10"
       stroke-linecap="round"
       stroke-linejoin="round"
       id="path29" />
    <path
       d="M56.3446 294.255V297.548"
       stroke="#E5E5E5"
       stroke-width="1.59158"
       stroke-miterlimit="10"
       stroke-linecap="round"
       stroke-linejoin="round"
       id="path30" />
    <path
       d="M59.0887 288.767H53.6005V292.06H59.0887V288.767Z"
       stroke="#E5E5E5"
       stroke-width="1.59158"
       stroke-miterlimit="10"
       stroke-linecap="round"
       stroke-linejoin="round"
       id="path31" />
    <path
       d="M56.3446 288.767V292.06"
       stroke="#E5E5E5"
       stroke-width="1.59158"
       stroke-miterlimit="10"
       stroke-linecap="round"
       stroke-linejoin="round"
       id="path32" />
    <path
       d="M59.0887 283.279H53.6005V286.571H59.0887V283.279Z"
       stroke="#E5E5E5"
       stroke-width="1.59158"
       stroke-miterlimit="10"
       stroke-linecap="round"
       stroke-linejoin="round"
       id="path33" />
    <path
       d="M56.3447 283.279V286.571"
       stroke="#E5E5E5"
       stroke-width="1.59158"
       stroke-miterlimit="10"
       stroke-linecap="round"
       stroke-linejoin="round"
       id="path34" />
    <path
       d="M51.4052 283.279H49.21V303.036H51.4052V283.279Z"
       stroke="#E5E5E5"
       stroke-width="1.59158"
       stroke-miterlimit="10"
       stroke-linecap="round"
       stroke-linejoin="round"
       id="path35" />
    <path
       d="M51.4052 298.646H49.2099"
       stroke="#E5E5E5"
       stroke-width="1.59158"
       stroke-miterlimit="10"
       stroke-linecap="round"
       stroke-linejoin="round"
       id="path36" />
    <path
       d="M51.4052 293.157H49.21"
       stroke="#E5E5E5"
       stroke-width="1.59158"
       stroke-miterlimit="10"
       stroke-linecap="round"
       stroke-linejoin="round"
       id="path37" />
    <path
       d="M51.4052 287.669H49.21"
       stroke="#E5E5E5"
       stroke-width="1.59158"
       stroke-miterlimit="10"
       stroke-linecap="round"
       stroke-linejoin="round"
       id="path38" />
    <path
       d="M61.284 281.083H39.3311"
       stroke="#E5E5E5"
       stroke-width="1.59158"
       stroke-miterlimit="10"
       stroke-linecap="round"
       stroke-linejoin="round"
       id="path39" />
    <path
       d="M62.3817 278.888H38.2335"
       stroke="#E5E5E5"
       stroke-width="1.59158"
       stroke-miterlimit="10"
       stroke-linecap="round"
       stroke-linejoin="round"
       id="path40" />
    <path
       d="M61.284 278.888H39.3311V310.72H61.284V278.888Z"
       stroke="#E5E5E5"
       stroke-width="1.59158"
       stroke-miterlimit="10"
       stroke-linecap="round"
       stroke-linejoin="round"
       id="path41" />
    <path
       d="M123.364 305.056L117.569 305.103L117.706 299.918L123.501 299.871"
       stroke="#E5E5E5"
       stroke-width="1.59158"
       stroke-miterlimit="10"
       stroke-linecap="round"
       stroke-linejoin="round"
       id="path42" />
    <path
       d="M123.279 305.231L114.498 305.231"
       stroke="#E5E5E5"
       stroke-width="1.59158"
       stroke-miterlimit="10"
       stroke-linecap="round"
       stroke-linejoin="round"
       id="path43" />
    <path
       d="M132.33 299.001L135.769 298.978C136.4 298.974 136.927 298.508 136.941 297.942L137.378 280.466C137.392 279.901 136.888 279.442 136.257 279.446L105.3 279.653C104.67 279.657 104.142 280.123 104.128 280.689L103.692 298.165C103.677 298.73 104.182 299.189 104.812 299.185L123.157 299.062"
       stroke="#E5E5E5"
       stroke-width="1.59158"
       stroke-miterlimit="10"
       stroke-linecap="round"
       stroke-linejoin="round"
       id="path44" />
    <path
       d="M132.358 296.94L134.646 296.926L135.024 281.527L106.423 281.705L106.046 297.104L123.206 296.997"
       stroke="#E5E5E5"
       stroke-width="1.59158"
       stroke-miterlimit="10"
       stroke-linecap="round"
       stroke-linejoin="round"
       id="path45" />
    <path
       d="M130.984 310.351L123.922 310.403C123.275 310.408 122.757 309.937 122.772 309.357L123.151 294.589C123.166 294.009 123.707 293.531 124.355 293.526L131.417 293.474C132.064 293.469 132.582 293.94 132.567 294.52L132.188 309.287C132.173 309.867 131.632 310.346 130.984 310.351Z"
       stroke="#E5E5E5"
       stroke-width="1.59158"
       stroke-miterlimit="10"
       stroke-linecap="round"
       stroke-linejoin="round"
       id="path46" />
    <path
       d="M125.474 306.329L126.022 306.329"
       stroke="#E5E5E5"
       stroke-width="1.59158"
       stroke-miterlimit="10"
       stroke-linecap="round"
       stroke-linejoin="round"
       id="path47" />
    <path
       d="M129.316 306.329L129.864 306.329"
       stroke="#E5E5E5"
       stroke-width="1.59158"
       stroke-miterlimit="10"
       stroke-linecap="round"
       stroke-linejoin="round"
       id="path48" />
    <path
       d="M127.67 308.524L127.67 307.975"
       stroke="#E5E5E5"
       stroke-width="1.59158"
       stroke-miterlimit="10"
       stroke-linecap="round"
       stroke-linejoin="round"
       id="path49" />
    <path
       d="M127.669 304.682L127.669 304.134"
       stroke="#E5E5E5"
       stroke-width="1.59158"
       stroke-miterlimit="10"
       stroke-linecap="round"
       stroke-linejoin="round"
       id="path50" />
    <ellipse
       cx="0.600242"
       cy="0.534868"
       rx="0.600242"
       ry="0.534868"
       transform="matrix(0.965515 -0.00784536 -0.0256401 0.969327 124.908 294.839)"
       fill="#E5E5E5"
       id="ellipse50" />
    <ellipse
       cx="0.600228"
       cy="0.534863"
       rx="0.600228"
       ry="0.534863"
       transform="matrix(0.965518 -0.00785651 -0.0256509 0.96933 124.908 297.034)"
       fill="#E5E5E5"
       id="ellipse51" />
    <ellipse
       cx="0.600242"
       cy="0.534868"
       rx="0.600242"
       ry="0.534868"
       transform="matrix(0.965515 -0.00784536 -0.0256401 0.969327 124.908 299.229)"
       fill="#E5E5E5"
       id="ellipse52" />
    <ellipse
       cx="0.600242"
       cy="0.534868"
       rx="0.600242"
       ry="0.534868"
       transform="matrix(0.965515 -0.00784536 -0.0256401 0.969327 124.908 301.425)"
       fill="#E5E5E5"
       id="ellipse53" />
    <ellipse
       cx="0.600228"
       cy="0.534863"
       rx="0.600228"
       ry="0.534863"
       transform="matrix(0.965518 -0.00785651 -0.0256509 0.96933 127.104 297.034)"
       fill="#E5E5E5"
       id="ellipse54" />
    <ellipse
       cx="0.600242"
       cy="0.534868"
       rx="0.600242"
       ry="0.534868"
       transform="matrix(0.965515 -0.00784536 -0.0256401 0.969327 127.104 299.229)"
       fill="#E5E5E5"
       id="ellipse55" />
    <ellipse
       cx="0.600242"
       cy="0.534868"
       rx="0.600242"
       ry="0.534868"
       transform="matrix(0.965515 -0.00784536 -0.0256401 0.969327 127.104 301.425)"
       fill="#E5E5E5"
       id="ellipse56" />
    <ellipse
       cx="0.600228"
       cy="0.534863"
       rx="0.600228"
       ry="0.534863"
       transform="matrix(0.965518 -0.00785651 -0.0256509 0.96933 129.299 297.034)"
       fill="#E5E5E5"
       id="ellipse57" />
    <ellipse
       cx="0.600242"
       cy="0.534868"
       rx="0.600242"
       ry="0.534868"
       transform="matrix(0.965515 -0.00784536 -0.0256401 0.969327 129.299 299.229)"
       fill="#E5E5E5"
       id="ellipse58" />
    <ellipse
       cx="0.600242"
       cy="0.534868"
       rx="0.600242"
       ry="0.534868"
       transform="matrix(0.965515 -0.00784536 -0.0256401 0.969327 129.299 301.425)"
       fill="#E5E5E5"
       id="ellipse59" />
    <path
       d="M205.655 297.881C204.712 299.649 203.356 301.182 201.706 302.361"
       stroke="#E5E5E5"
       stroke-width="1.59158"
       stroke-miterlimit="10"
       stroke-linecap="round"
       stroke-linejoin="round"
       id="path59" />
    <path
       d="M207.188 293.283C207.129 293.872 207.011 294.462 206.834 295.051"
       stroke="#E5E5E5"
       stroke-width="1.59158"
       stroke-miterlimit="10"
       stroke-linecap="round"
       stroke-linejoin="round"
       id="path60" />
    <path
       d="M186.084 308.55L201.411 308.55"
       stroke="#E5E5E5"
       stroke-width="1.59158"
       stroke-miterlimit="10"
       stroke-linecap="round"
       stroke-linejoin="round"
       id="path61" />
    <path
       d="M209.663 291.455C209.663 288.685 208.956 286.091 207.718 283.792L179.777 283.792C178.539 286.032 177.832 288.685 177.832 291.455C177.832 298.116 181.958 303.834 187.794 306.192L187.263 306.192L187.263 308.55L200.232 308.55L200.232 306.192L199.701 306.192C205.537 303.834 209.663 298.116 209.663 291.455Z"
       stroke="#E5E5E5"
       stroke-width="1.59158"
       stroke-miterlimit="10"
       stroke-linecap="round"
       stroke-linejoin="round"
       id="path62" />
    <path
       d="M208.484 281.434L179.011 281.434L179.011 283.792L208.484 283.792L208.484 281.434Z"
       stroke="#E5E5E5"
       stroke-width="1.59158"
       stroke-miterlimit="10"
       stroke-linecap="round"
       stroke-linejoin="round"
       id="path63" />
    <path
       fill-rule="evenodd"
       clip-rule="evenodd"
       d="M193.663 294.41C196.306 294.801 198.208 296.856 198.189 297.356C198.171 297.856 196.054 299.91 193.443 300.297C192.869 300.796 191.793 301.462 190.474 302.016L190.551 299.962C189.147 299.461 188.068 298.572 187.596 297.961C187.021 298.46 185.946 299.126 184.565 299.68C184.594 298.903 184.998 298.015 185.392 297.404C185.048 296.682 184.71 295.793 184.737 295.071C186.076 295.627 187.102 296.294 187.64 296.794C188.157 296.184 189.303 295.296 190.743 294.797L190.82 292.742C192.099 293.243 193.125 293.91 193.663 294.41Z"
       stroke="#E5E5E5"
       stroke-width="1.59158"
       stroke-miterlimit="10"
       stroke-linecap="round"
       stroke-linejoin="round"
       id="path64" />
    <path
       d="M178.068 288.626L178.127 288.626L178.068 288.626Z"
       stroke="#E5E5E5"
       stroke-width="1.59158"
       stroke-miterlimit="10"
       stroke-linecap="round"
       stroke-linejoin="round"
       id="path65" />
    <path
       d="M181.054 288.641C182.239 289.165 184.086 289.176 185.285 288.665"
       stroke="#E5E5E5"
       stroke-width="1.59158"
       stroke-miterlimit="10"
       stroke-linecap="round"
       stroke-linejoin="round"
       id="path66" />
    <path
       d="M195.201 288.641C196.386 289.165 198.233 289.176 199.432 288.665"
       stroke="#E5E5E5"
       stroke-width="1.59158"
       stroke-miterlimit="10"
       stroke-linecap="round"
       stroke-linejoin="round"
       id="path67" />
    <path
       d="M188.127 288.641C189.312 289.165 191.16 289.176 192.358 288.665"
       stroke="#E5E5E5"
       stroke-width="1.59158"
       stroke-miterlimit="10"
       stroke-linecap="round"
       stroke-linejoin="round"
       id="path68" />
    <path
       d="M181.102 288.601L179.607 287.884L178.086 288.602"
       stroke="#E5E5E5"
       stroke-width="1.59158"
       stroke-miterlimit="10"
       stroke-linecap="round"
       stroke-linejoin="round"
       id="path69" />
    <path
       d="M202.275 288.641C203.46 289.165 205.307 289.176 206.506 288.665"
       stroke="#E5E5E5"
       stroke-width="1.59158"
       stroke-miterlimit="10"
       stroke-linecap="round"
       stroke-linejoin="round"
       id="path70" />
    <path
       d="M188.176 288.601L186.681 287.884L185.159 288.602"
       stroke="#E5E5E5"
       stroke-width="1.59158"
       stroke-miterlimit="10"
       stroke-linecap="round"
       stroke-linejoin="round"
       id="path71" />
    <path
       d="M209.397 288.601L207.902 287.884L206.38 288.602"
       stroke="#E5E5E5"
       stroke-width="1.59158"
       stroke-miterlimit="10"
       stroke-linecap="round"
       stroke-linejoin="round"
       id="path72" />
    <path
       d="M209.429 288.626L209.369 288.626C209.369 288.626 209.369 288.626 209.429 288.626Z"
       stroke="#E5E5E5"
       stroke-width="1.59158"
       stroke-miterlimit="10"
       stroke-linecap="round"
       stroke-linejoin="round"
       id="path73" />
    <path
       d="M202.323 288.601L200.828 287.884L199.307 288.602"
       stroke="#E5E5E5"
       stroke-width="1.59158"
       stroke-miterlimit="10"
       stroke-linecap="round"
       stroke-linejoin="round"
       id="path74" />
    <path
       d="M195.249 288.601L193.754 287.884L192.233 288.602"
       stroke="#E5E5E5"
       stroke-width="1.59158"
       stroke-miterlimit="10"
       stroke-linecap="round"
       stroke-linejoin="round"
       id="path75" />
    <path
       d="M201.695 181.724H197.304V187.213H201.695V181.724Z"
       stroke="#E5E5E5"
       stroke-width="1.59158"
       stroke-miterlimit="10"
       stroke-linecap="round"
       stroke-linejoin="round"
       id="path76" />
    <path
       d="M195.109 181.724H184.132V185.017H195.109V181.724Z"
       stroke="#E5E5E5"
       stroke-width="1.59158"
       stroke-miterlimit="10"
       stroke-linecap="round"
       stroke-linejoin="round"
       id="path77" />
    <path
       d="M189.621 176.236H184.132V179.529H189.621V176.236Z"
       stroke="#E5E5E5"
       stroke-width="1.59158"
       stroke-miterlimit="10"
       stroke-linecap="round"
       stroke-linejoin="round"
       id="path78" />
    <path
       d="M186.876 176.236V179.529"
       stroke="#E5E5E5"
       stroke-width="1.59158"
       stroke-miterlimit="10"
       stroke-linecap="round"
       stroke-linejoin="round"
       id="path79" />
    <path
       d="M189.621 170.748H184.132V174.041H189.621V170.748Z"
       stroke="#E5E5E5"
       stroke-width="1.59158"
       stroke-miterlimit="10"
       stroke-linecap="round"
       stroke-linejoin="round"
       id="path80" />
    <path
       d="M186.876 170.748V174.041"
       stroke="#E5E5E5"
       stroke-width="1.59158"
       stroke-miterlimit="10"
       stroke-linecap="round"
       stroke-linejoin="round"
       id="path81" />
    <path
       d="M189.621 165.26H184.132V168.552H189.621V165.26Z"
       stroke="#E5E5E5"
       stroke-width="1.59158"
       stroke-miterlimit="10"
       stroke-linecap="round"
       stroke-linejoin="round"
       id="path82" />
    <path
       d="M181.937 167.455H179.742V169.65H181.937V167.455Z"
       stroke="#E5E5E5"
       stroke-width="1.59158"
       stroke-miterlimit="10"
       stroke-linecap="round"
       stroke-linejoin="round"
       id="path83" />
    <path
       d="M181.937 161.967H179.742V164.162H181.937V161.967Z"
       stroke="#E5E5E5"
       stroke-width="1.59158"
       stroke-miterlimit="10"
       stroke-linecap="round"
       stroke-linejoin="round"
       id="path84" />
    <path
       d="M181.937 178.431H179.742V180.627H181.937V178.431Z"
       stroke="#E5E5E5"
       stroke-width="1.59158"
       stroke-miterlimit="10"
       stroke-linecap="round"
       stroke-linejoin="round"
       id="path85" />
    <path
       d="M181.937 172.943H179.742V175.138H181.937V172.943Z"
       stroke="#E5E5E5"
       stroke-width="1.59158"
       stroke-miterlimit="10"
       stroke-linecap="round"
       stroke-linejoin="round"
       id="path86" />
    <path
       d="M186.876 165.26V168.552"
       stroke="#E5E5E5"
       stroke-width="1.59158"
       stroke-miterlimit="10"
       stroke-linecap="round"
       stroke-linejoin="round"
       id="path87" />
    <path
       d="M189.621 159.771H184.132V163.064H189.621V159.771Z"
       stroke="#E5E5E5"
       stroke-width="1.59158"
       stroke-miterlimit="10"
       stroke-linecap="round"
       stroke-linejoin="round"
       id="path88" />
    <path
       d="M186.876 159.771V163.064"
       stroke="#E5E5E5"
       stroke-width="1.59158"
       stroke-miterlimit="10"
       stroke-linecap="round"
       stroke-linejoin="round"
       id="path89" />
    <path
       d="M201.695 176.236H196.206V179.529H201.695V176.236Z"
       stroke="#E5E5E5"
       stroke-width="1.59158"
       stroke-miterlimit="10"
       stroke-linecap="round"
       stroke-linejoin="round"
       id="path90" />
    <path
       d="M207.183 162.515V183.371"
       stroke="#E5E5E5"
       stroke-width="1.59158"
       stroke-miterlimit="10"
       stroke-linecap="round"
       stroke-linejoin="round"
       id="path91" />
    <path
       d="M203.89 165.26H207.183"
       stroke="#E5E5E5"
       stroke-width="1.59158"
       stroke-miterlimit="10"
       stroke-linecap="round"
       stroke-linejoin="round"
       id="path92" />
    <path
       d="M203.89 163.064H207.183"
       stroke="#E5E5E5"
       stroke-width="1.59158"
       stroke-miterlimit="10"
       stroke-linecap="round"
       stroke-linejoin="round"
       id="path93" />
    <path
       d="M203.89 167.455H207.183"
       stroke="#E5E5E5"
       stroke-width="1.59158"
       stroke-miterlimit="10"
       stroke-linecap="round"
       stroke-linejoin="round"
       id="path94" />
    <path
       d="M203.89 169.65H207.183"
       stroke="#E5E5E5"
       stroke-width="1.59158"
       stroke-miterlimit="10"
       stroke-linecap="round"
       stroke-linejoin="round"
       id="path95" />
    <path
       d="M203.89 171.845H207.183"
       stroke="#E5E5E5"
       stroke-width="1.59158"
       stroke-miterlimit="10"
       stroke-linecap="round"
       stroke-linejoin="round"
       id="path96" />
    <path
       d="M203.89 174.041H207.183"
       stroke="#E5E5E5"
       stroke-width="1.59158"
       stroke-miterlimit="10"
       stroke-linecap="round"
       stroke-linejoin="round"
       id="path97" />
    <path
       d="M203.89 176.236H207.183"
       stroke="#E5E5E5"
       stroke-width="1.59158"
       stroke-miterlimit="10"
       stroke-linecap="round"
       stroke-linejoin="round"
       id="path98" />
    <path
       d="M203.89 178.431H207.183"
       stroke="#E5E5E5"
       stroke-width="1.59158"
       stroke-miterlimit="10"
       stroke-linecap="round"
       stroke-linejoin="round"
       id="path99" />
    <path
       d="M203.89 180.627H207.183"
       stroke="#E5E5E5"
       stroke-width="1.59158"
       stroke-miterlimit="10"
       stroke-linecap="round"
       stroke-linejoin="round"
       id="path100" />
    <path
       d="M203.89 182.822H207.183"
       stroke="#E5E5E5"
       stroke-width="1.59158"
       stroke-miterlimit="10"
       stroke-linecap="round"
       stroke-linejoin="round"
       id="path101" />
    <path
       d="M198.951 176.236V179.529"
       stroke="#E5E5E5"
       stroke-width="1.59158"
       stroke-miterlimit="10"
       stroke-linecap="round"
       stroke-linejoin="round"
       id="path102" />
    <path
       d="M201.695 170.748H196.206V174.041H201.695V170.748Z"
       stroke="#E5E5E5"
       stroke-width="1.59158"
       stroke-miterlimit="10"
       stroke-linecap="round"
       stroke-linejoin="round"
       id="path103" />
    <path
       d="M198.95 170.748V174.041"
       stroke="#E5E5E5"
       stroke-width="1.59158"
       stroke-miterlimit="10"
       stroke-linecap="round"
       stroke-linejoin="round"
       id="path104" />
    <path
       d="M201.695 165.26H196.206V168.552H201.695V165.26Z"
       stroke="#E5E5E5"
       stroke-width="1.59158"
       stroke-miterlimit="10"
       stroke-linecap="round"
       stroke-linejoin="round"
       id="path105" />
    <path
       d="M198.95 165.26V168.553"
       stroke="#E5E5E5"
       stroke-width="1.59158"
       stroke-miterlimit="10"
       stroke-linecap="round"
       stroke-linejoin="round"
       id="path106" />
    <path
       d="M201.695 159.771H196.206V163.064H201.695V159.771Z"
       stroke="#E5E5E5"
       stroke-width="1.59158"
       stroke-miterlimit="10"
       stroke-linecap="round"
       stroke-linejoin="round"
       id="path107" />
    <path
       d="M198.951 159.771V163.064"
       stroke="#E5E5E5"
       stroke-width="1.59158"
       stroke-miterlimit="10"
       stroke-linecap="round"
       stroke-linejoin="round"
       id="path108" />
    <path
       d="M194.011 159.771H191.816V179.529H194.011V159.771Z"
       stroke="#E5E5E5"
       stroke-width="1.59158"
       stroke-miterlimit="10"
       stroke-linecap="round"
       stroke-linejoin="round"
       id="path109" />
    <path
       d="M194.011 175.138H191.816"
       stroke="#E5E5E5"
       stroke-width="1.59158"
       stroke-miterlimit="10"
       stroke-linecap="round"
       stroke-linejoin="round"
       id="path110" />
    <path
       d="M194.011 169.65H191.816"
       stroke="#E5E5E5"
       stroke-width="1.59158"
       stroke-miterlimit="10"
       stroke-linecap="round"
       stroke-linejoin="round"
       id="path111" />
    <path
       d="M194.011 164.162H191.816"
       stroke="#E5E5E5"
       stroke-width="1.59158"
       stroke-miterlimit="10"
       stroke-linecap="round"
       stroke-linejoin="round"
       id="path112" />
    <path
       d="M203.89 157.576H181.937"
       stroke="#E5E5E5"
       stroke-width="1.59158"
       stroke-miterlimit="10"
       stroke-linecap="round"
       stroke-linejoin="round"
       id="path113" />
    <path
       d="M204.988 155.381H180.839"
       stroke="#E5E5E5"
       stroke-width="1.59158"
       stroke-miterlimit="10"
       stroke-linecap="round"
       stroke-linejoin="round"
       id="path114" />
    <path
       d="M203.89 155.381H181.937V187.213H203.89V155.381Z"
       stroke="#E5E5E5"
       stroke-width="1.59158"
       stroke-miterlimit="10"
       stroke-linecap="round"
       stroke-linejoin="round"
       id="path115" />
    <path
       d="M123.364 181.549L117.568 181.596L117.706 176.411L123.501 176.364"
       stroke="#E5E5E5"
       stroke-width="1.59158"
       stroke-miterlimit="10"
       stroke-linecap="round"
       stroke-linejoin="round"
       id="path116" />
    <path
       d="M123.279 181.724L114.498 181.724"
       stroke="#E5E5E5"
       stroke-width="1.59158"
       stroke-miterlimit="10"
       stroke-linecap="round"
       stroke-linejoin="round"
       id="path117" />
    <path
       d="M132.33 175.494L135.769 175.471C136.4 175.467 136.927 175.001 136.941 174.435L137.378 156.959C137.392 156.394 136.888 155.935 136.257 155.939L105.3 156.146C104.67 156.15 104.142 156.616 104.128 157.182L103.692 174.658C103.677 175.223 104.182 175.682 104.812 175.678L123.157 175.555"
       stroke="#E5E5E5"
       stroke-width="1.59158"
       stroke-miterlimit="10"
       stroke-linecap="round"
       stroke-linejoin="round"
       id="path118" />
    <path
       d="M132.358 173.433L134.646 173.419L135.024 158.02L106.423 158.198L106.046 173.597L123.206 173.49"
       stroke="#E5E5E5"
       stroke-width="1.59158"
       stroke-miterlimit="10"
       stroke-linecap="round"
       stroke-linejoin="round"
       id="path119" />
    <path
       d="M130.984 186.844L123.922 186.896C123.275 186.9 122.757 186.43 122.772 185.85L123.151 171.082C123.166 170.502 123.707 170.024 124.355 170.019L131.417 169.967C132.064 169.962 132.581 170.433 132.567 171.013L132.188 185.78C132.173 186.36 131.632 186.839 130.984 186.844Z"
       stroke="#E5E5E5"
       stroke-width="1.59158"
       stroke-miterlimit="10"
       stroke-linecap="round"
       stroke-linejoin="round"
       id="path120" />
    <path
       d="M125.474 182.822L126.022 182.822"
       stroke="#E5E5E5"
       stroke-width="1.59158"
       stroke-miterlimit="10"
       stroke-linecap="round"
       stroke-linejoin="round"
       id="path121" />
    <path
       d="M129.316 182.822L129.864 182.822"
       stroke="#E5E5E5"
       stroke-width="1.59158"
       stroke-miterlimit="10"
       stroke-linecap="round"
       stroke-linejoin="round"
       id="path122" />
    <path
       d="M127.669 185.017L127.669 184.468"
       stroke="#E5E5E5"
       stroke-width="1.59158"
       stroke-miterlimit="10"
       stroke-linecap="round"
       stroke-linejoin="round"
       id="path123" />
    <path
       d="M127.669 181.176L127.669 180.627"
       stroke="#E5E5E5"
       stroke-width="1.59158"
       stroke-miterlimit="10"
       stroke-linecap="round"
       stroke-linejoin="round"
       id="path124" />
    <ellipse
       cx="0.600241"
       cy="0.534868"
       rx="0.600241"
       ry="0.534868"
       transform="matrix(0.965516 -0.00784521 -0.0256401 0.969328 124.908 171.332)"
       fill="#E5E5E5"
       id="ellipse124" />
    <ellipse
       cx="0.600228"
       cy="0.534863"
       rx="0.600228"
       ry="0.534863"
       transform="matrix(0.965519 -0.00785635 -0.0256508 0.96933 124.908 173.527)"
       fill="#E5E5E5"
       id="ellipse125" />
    <ellipse
       cx="0.600241"
       cy="0.534868"
       rx="0.600241"
       ry="0.534868"
       transform="matrix(0.965516 -0.00784521 -0.0256401 0.969328 124.908 175.722)"
       fill="#E5E5E5"
       id="ellipse126" />
    <ellipse
       cx="0.600241"
       cy="0.534868"
       rx="0.600241"
       ry="0.534868"
       transform="matrix(0.965516 -0.00784521 -0.0256401 0.969328 124.908 177.917)"
       fill="#E5E5E5"
       id="ellipse127" />
    <ellipse
       cx="0.600228"
       cy="0.534863"
       rx="0.600228"
       ry="0.534863"
       transform="matrix(0.965519 -0.00785635 -0.0256508 0.96933 127.104 173.527)"
       fill="#E5E5E5"
       id="ellipse128" />
    <ellipse
       cx="0.600241"
       cy="0.534868"
       rx="0.600241"
       ry="0.534868"
       transform="matrix(0.965516 -0.00784521 -0.0256401 0.969328 127.104 175.722)"
       fill="#E5E5E5"
       id="ellipse129" />
    <ellipse
       cx="0.600241"
       cy="0.534868"
       rx="0.600241"
       ry="0.534868"
       transform="matrix(0.965516 -0.00784521 -0.0256401 0.969328 127.104 177.917)"
       fill="#E5E5E5"
       id="ellipse130" />
    <ellipse
       cx="0.600228"
       cy="0.534863"
       rx="0.600228"
       ry="0.534863"
       transform="matrix(0.965519 -0.00785635 -0.0256508 0.96933 129.299 173.527)"
       fill="#E5E5E5"
       id="ellipse131" />
    <ellipse
       cx="0.600241"
       cy="0.534868"
       rx="0.600241"
       ry="0.534868"
       transform="matrix(0.965516 -0.00784521 -0.0256401 0.969328 129.299 175.722)"
       fill="#E5E5E5"
       id="ellipse132" />
    <ellipse
       cx="0.600241"
       cy="0.534868"
       rx="0.600241"
       ry="0.534868"
       transform="matrix(0.965516 -0.00784521 -0.0256401 0.969328 129.299 177.917)"
       fill="#E5E5E5"
       id="ellipse133" />
    <path
       d="M62.4126 174.374C61.4694 176.142 60.1136 177.675 58.4631 178.854"
       stroke="#E5E5E5"
       stroke-width="1.59158"
       stroke-miterlimit="10"
       stroke-linecap="round"
       stroke-linejoin="round"
       id="path133" />
    <path
       d="M63.9451 169.776C63.8862 170.365 63.7683 170.955 63.5914 171.544"
       stroke="#E5E5E5"
       stroke-width="1.59158"
       stroke-miterlimit="10"
       stroke-linecap="round"
       stroke-linejoin="round"
       id="path134" />
    <path
       d="M42.8419 185.043H58.1683"
       stroke="#E5E5E5"
       stroke-width="1.59158"
       stroke-miterlimit="10"
       stroke-linecap="round"
       stroke-linejoin="round"
       id="path135" />
    <path
       d="M66.421 167.948C66.421 165.178 65.7136 162.584 64.4757 160.285H36.5346C35.2967 162.525 34.5893 165.178 34.5893 167.948C34.5893 174.609 38.7156 180.327 44.5514 182.685H44.0209V185.043H56.9894V182.685H56.4588C62.2946 180.327 66.421 174.609 66.421 167.948Z"
       stroke="#E5E5E5"
       stroke-width="1.59158"
       stroke-miterlimit="10"
       stroke-linecap="round"
       stroke-linejoin="round"
       id="path136" />
    <path
       d="M65.242 157.927H35.7682V160.285H65.242V157.927Z"
       stroke="#E5E5E5"
       stroke-width="1.59158"
       stroke-miterlimit="10"
       stroke-linecap="round"
       stroke-linejoin="round"
       id="path137" />
    <path
       fill-rule="evenodd"
       clip-rule="evenodd"
       d="M50.4203 170.903C53.0638 171.294 54.9654 173.35 54.9467 173.849C54.9281 174.349 52.8117 176.403 50.201 176.79C49.626 177.289 48.5503 177.955 47.2315 178.51L47.3081 176.455C45.905 175.954 44.8254 175.065 44.3536 174.454C43.7787 174.953 42.703 175.619 41.3224 176.174C41.3514 175.396 41.7553 174.508 42.149 173.897C41.805 173.175 41.4672 172.286 41.4941 171.564C42.8333 172.12 43.8594 172.788 44.3971 173.288C44.9144 172.677 46.0601 171.789 47.5005 171.29L47.577 169.236C48.8565 169.736 49.8826 170.403 50.4203 170.903Z"
       stroke="#E5E5E5"
       stroke-width="1.59158"
       stroke-miterlimit="10"
       stroke-linecap="round"
       stroke-linejoin="round"
       id="path138" />
    <path
       d="M34.8251 165.119L34.885 165.119L34.8251 165.119Z"
       stroke="#E5E5E5"
       stroke-width="1.59158"
       stroke-miterlimit="10"
       stroke-linecap="round"
       stroke-linejoin="round"
       id="path139" />
    <path
       d="M37.8112 165.134C38.9962 165.658 40.8435 165.669 42.0421 165.158"
       stroke="#E5E5E5"
       stroke-width="1.59158"
       stroke-miterlimit="10"
       stroke-linecap="round"
       stroke-linejoin="round"
       id="path140" />
    <path
       d="M51.9587 165.134C53.1437 165.658 54.991 165.669 56.1896 165.158"
       stroke="#E5E5E5"
       stroke-width="1.59158"
       stroke-miterlimit="10"
       stroke-linecap="round"
       stroke-linejoin="round"
       id="path141" />
    <path
       d="M44.8849 165.134C46.0699 165.658 47.9172 165.669 49.1158 165.158"
       stroke="#E5E5E5"
       stroke-width="1.59158"
       stroke-miterlimit="10"
       stroke-linecap="round"
       stroke-linejoin="round"
       id="path142" />
    <path
       d="M37.8594 165.094L36.3644 164.377L34.843 165.095"
       stroke="#E5E5E5"
       stroke-width="1.59158"
       stroke-miterlimit="10"
       stroke-linecap="round"
       stroke-linejoin="round"
       id="path143" />
    <path
       d="M59.0324 165.134C60.2174 165.658 62.0647 165.669 63.2633 165.158"
       stroke="#E5E5E5"
       stroke-width="1.59158"
       stroke-miterlimit="10"
       stroke-linecap="round"
       stroke-linejoin="round"
       id="path144" />
    <path
       d="M44.9331 165.094L43.4381 164.377L41.9168 165.095"
       stroke="#E5E5E5"
       stroke-width="1.59158"
       stroke-miterlimit="10"
       stroke-linecap="round"
       stroke-linejoin="round"
       id="path145" />
    <path
       d="M66.1541 165.094L64.6591 164.377L63.1378 165.095"
       stroke="#E5E5E5"
       stroke-width="1.59158"
       stroke-miterlimit="10"
       stroke-linecap="round"
       stroke-linejoin="round"
       id="path146" />
    <path
       d="M66.1861 165.119L66.1263 165.119C66.1263 165.119 66.1263 165.119 66.1861 165.119Z"
       stroke="#E5E5E5"
       stroke-width="1.59158"
       stroke-miterlimit="10"
       stroke-linecap="round"
       stroke-linejoin="round"
       id="path147" />
    <path
       d="M59.0805 165.094L57.5855 164.377L56.0642 165.095"
       stroke="#E5E5E5"
       stroke-width="1.59158"
       stroke-miterlimit="10"
       stroke-linecap="round"
       stroke-linejoin="round"
       id="path148" />
    <path
       d="M52.0069 165.094L50.5119 164.377L48.9906 165.095"
       stroke="#E5E5E5"
       stroke-width="1.59158"
       stroke-miterlimit="10"
       stroke-linecap="round"
       stroke-linejoin="round"
       id="path149" />
    <path
       d="M50.9019 358.723L64.2997 368.221C65.0803 368.737 65.9372 369.059 66.9453 369.055L68.0254 369.05C68.7454 369.048 69.0507 368.267 68.4833 367.879L50.9752 355.409L32.9133 367.954C32.3286 368.346 32.5994 369.125 33.3194 369.122L34.3995 369.118C35.3356 369.114 36.2775 368.851 37.0825 368.263L50.9019 358.723Z"
       stroke="#E5E5E5"
       stroke-width="1.59158"
       stroke-miterlimit="10"
       stroke-linecap="round"
       stroke-linejoin="round"
       id="path150" />
    <path
       d="M50.8235 354.913L50.8235 351.429"
       stroke="#E5E5E5"
       stroke-width="1.59158"
       stroke-miterlimit="10"
       stroke-linecap="round"
       stroke-linejoin="round"
       id="path151" />
    <path
       d="M63.2961 368.152L38.3508 368.152"
       stroke="#E5E5E5"
       stroke-width="1.59158"
       stroke-miterlimit="10"
       stroke-linecap="round"
       stroke-linejoin="round"
       id="path152" />
    <path
       d="M50.7363 351.236C48.6761 351.253 47.0956 349.818 47.1444 347.975C47.1931 346.132 48.8502 344.67 50.9104 344.654C52.9707 344.637 54.5511 346.072 54.5024 347.915"
       stroke="#E5E5E5"
       stroke-width="1.59158"
       stroke-miterlimit="10"
       stroke-linecap="round"
       stroke-linejoin="round"
       id="path153" />
    <path
       d="M207.843 370.248L179.071 370.459C177.805 370.469 176.793 369.549 176.822 368.415L177.298 349.862C177.327 348.728 178.387 347.792 179.653 347.783L208.424 347.572C209.69 347.563 210.702 348.483 210.673 349.616L210.197 368.17C210.168 369.303 209.109 370.239 207.843 370.248Z"
       stroke="#E5E5E5"
       stroke-width="1.59158"
       stroke-miterlimit="10"
       stroke-linecap="round"
       stroke-linejoin="round"
       id="path154" />
    <path
       d="M191.166 358.804C191.166 358.804 177.557 358.857 177.67 353.739"
       stroke="#E5E5E5"
       stroke-width="1.59158"
       stroke-miterlimit="10"
       stroke-linecap="round"
       stroke-linejoin="round"
       id="path155" />
    <path
       d="M209.939 353.686C209.826 358.804 196.217 358.857 196.217 358.857"
       stroke="#E5E5E5"
       stroke-width="1.59158"
       stroke-miterlimit="10"
       stroke-linecap="round"
       stroke-linejoin="round"
       id="path156" />
    <path
       d="M196.603 357.982L190.937 358.002L190.893 360.049L196.558 360.029L196.603 357.982Z"
       stroke="#E5E5E5"
       stroke-width="1.59158"
       stroke-miterlimit="10"
       stroke-linecap="round"
       stroke-linejoin="round"
       id="path157" />
    <path
       d="M189.144 346.819L189.216 343.745C189.229 343.182 189.753 342.718 190.379 342.715L197.212 342.68C197.839 342.677 198.341 343.135 198.327 343.698L198.256 346.772"
       stroke="#E5E5E5"
       stroke-width="1.59158"
       stroke-miterlimit="10"
       stroke-linecap="round"
       stroke-linejoin="round"
       id="path158" />
    <path
       fill-rule="evenodd"
       clip-rule="evenodd"
       d="M129.118 351.618H109.361C108.153 351.618 107.166 350.63 107.166 349.422V342.836C107.166 341.629 108.153 340.641 109.361 340.641H129.118C130.326 340.641 131.314 341.629 131.314 342.836V349.422C131.314 350.63 130.326 351.618 129.118 351.618Z"
       stroke="#E5E5E5"
       stroke-width="1.59158"
       stroke-miterlimit="10"
       stroke-linecap="round"
       stroke-linejoin="round"
       id="path159" />
    <path
       fill-rule="evenodd"
       clip-rule="evenodd"
       d="M122.533 360.399H121.435H115.947H114.849V362.594H115.947V371.375C115.947 371.979 116.441 372.473 117.044 372.473H120.337C120.941 372.473 121.435 371.979 121.435 371.375V362.594H122.533V360.399Z"
       stroke="#E5E5E5"
       stroke-width="1.59158"
       stroke-miterlimit="10"
       stroke-linecap="round"
       stroke-linejoin="round"
       id="path160" />
    <path
       d="M121.435 370.278H115.947"
       stroke="#E5E5E5"
       stroke-width="1.59158"
       stroke-miterlimit="10"
       stroke-linecap="round"
       stroke-linejoin="round"
       id="path161" />
    <path
       d="M121.435 362.594H115.947"
       stroke="#E5E5E5"
       stroke-width="1.59158"
       stroke-miterlimit="10"
       stroke-linecap="round"
       stroke-linejoin="round"
       id="path162" />
    <path
       d="M131.314 346.129H132.411C133.015 346.129 133.509 346.623 133.509 347.227V353.813C133.509 354.417 133.015 354.911 132.411 354.911H119.788C119.185 354.911 118.691 355.404 118.691 356.008V360.399"
       stroke="#E5E5E5"
       stroke-width="1.59158"
       stroke-miterlimit="10"
       stroke-linecap="round"
       stroke-linejoin="round"
       id="path163" />
    <path
       d="M103.629 240.529C107.4 244.117 113.632 246.24 120.209 246.189C126.785 246.138 133.13 243.919 137.089 240.272M113.799 228.72L107.195 243.137M133.153 243.041L126.951 228.671C126.679 228.053 127.045 227.275 127.744 227.011C128.502 226.695 129.36 226.999 129.631 227.668L130.449 229.471L130.429 230.246C130.415 230.763 130.866 231.173 131.443 231.168C131.962 231.164 132.374 230.851 132.501 230.385L133.312 225.831C133.383 225.314 133.283 224.746 132.947 224.336C132.947 224.336 132.727 223.924 132.616 223.77L134.269 222.31L133.542 221.437C132.753 220.72 131.131 220.991 130.304 221.721C130.019 221.619 129.731 221.57 129.443 221.572L128.289 221.581C123.847 221.615 119.858 224.178 118.318 227.962L118.011 228.688L112.588 228.73C110.626 228.745 108.811 229.792 108.019 231.4L106.68 234.098M109.132 244.052L112.712 239.477C112.889 239.321 113.122 239.216 113.3 239.059L115.107 238.322C115.342 238.165 115.519 238.009 115.753 237.852L116.644 236.863C119.69 237.305 122.747 237.281 125.648 236.639L130.935 244.039"
       stroke="#E5E5E5"
       stroke-width="1.59158"
       stroke-miterlimit="10"
       stroke-linecap="round"
       stroke-linejoin="round"
       id="path164" />
    <path
       d="M193.508 235.216L206.906 244.714C207.686 245.23 208.543 245.552 209.551 245.548L210.631 245.544C211.351 245.541 211.657 244.76 211.089 244.372L193.581 231.902L175.519 244.447C174.934 244.84 175.205 245.618 175.925 245.615L177.005 245.611C177.942 245.607 178.883 245.344 179.688 244.756L193.508 235.216Z"
       stroke="#E5E5E5"
       stroke-width="1.59158"
       stroke-miterlimit="10"
       stroke-linecap="round"
       stroke-linejoin="round"
       id="path165" />
    <path
       d="M193.429 231.406L193.429 227.922"
       stroke="#E5E5E5"
       stroke-width="1.59158"
       stroke-miterlimit="10"
       stroke-linecap="round"
       stroke-linejoin="round"
       id="path166" />
    <path
       d="M205.902 244.645L180.957 244.645"
       stroke="#E5E5E5"
       stroke-width="1.59158"
       stroke-miterlimit="10"
       stroke-linecap="round"
       stroke-linejoin="round"
       id="path167" />
    <path
       d="M193.342 227.729C191.282 227.746 189.702 226.311 189.75 224.468C189.799 222.625 191.456 221.164 193.516 221.147C195.577 221.13 197.157 222.565 197.108 224.408"
       stroke="#E5E5E5"
       stroke-width="1.59158"
       stroke-miterlimit="10"
       stroke-linecap="round"
       stroke-linejoin="round"
       id="path168" />
    <path
       d="M64.6 246.741L35.8285 246.953C34.5626 246.962 33.5506 246.042 33.5797 244.908L34.0556 226.355C34.0847 225.221 35.1443 224.286 36.4102 224.276L65.1818 224.065C66.4477 224.056 67.4597 224.976 67.4306 226.11L66.9546 244.663C66.9256 245.797 65.866 246.732 64.6 246.741Z"
       stroke="#E5E5E5"
       stroke-width="1.59158"
       stroke-miterlimit="10"
       stroke-linecap="round"
       stroke-linejoin="round"
       id="path169" />
    <path
       d="M47.9233 235.297C47.9233 235.297 34.314 235.35 34.427 230.232"
       stroke="#E5E5E5"
       stroke-width="1.59158"
       stroke-miterlimit="10"
       stroke-linecap="round"
       stroke-linejoin="round"
       id="path170" />
    <path
       d="M66.6962 230.18C66.5832 235.297 52.9739 235.35 52.9739 235.35"
       stroke="#E5E5E5"
       stroke-width="1.59158"
       stroke-miterlimit="10"
       stroke-linecap="round"
       stroke-linejoin="round"
       id="path171" />
    <path
       d="M53.3602 234.475L47.6948 234.495L47.6502 236.542L53.3156 236.522L53.3602 234.475Z"
       stroke="#E5E5E5"
       stroke-width="1.59158"
       stroke-miterlimit="10"
       stroke-linecap="round"
       stroke-linejoin="round"
       id="path172" />
    <path
       d="M45.9016 223.312L45.9735 220.238C45.9867 219.675 46.5099 219.211 47.1364 219.208L53.9698 219.173C54.5962 219.17 55.098 219.628 55.0848 220.192L55.013 223.265"
       stroke="#E5E5E5"
       stroke-width="1.59158"
       stroke-miterlimit="10"
       stroke-linecap="round"
       stroke-linejoin="round"
       id="path173" />
    <path
       d="m 45.4941,69.1562 c 0,0.8262 -0.2929,1.5088 -0.8789,2.0479 -0.5859,0.5391 -1.3798,0.8818 -2.3818,1.0283 v 0.0528 c 1.1777,0.1171 2.0801,0.4423 2.707,0.9755 0.6328,0.5332 0.9492,1.2276 0.9492,2.0831 0,1.1835 -0.4804,2.1181 -1.4414,2.8037 -0.955,0.6855 -2.2793,1.0283 -3.9726,1.0283 -1.8867,0 -3.4014,-0.2315 -4.544,-0.6944 v -2.2851 c 0.5508,0.2637 1.1954,0.4717 1.9336,0.624 0.7442,0.1465 1.4385,0.2197 2.083,0.2197 2.1622,0 3.2432,-0.6298 3.2432,-1.8896 0,-0.5684 -0.3486,-1.0049 -1.0459,-1.3096 -0.6914,-0.3047 -1.7168,-0.457 -3.0762,-0.457 h -1.2041 v -2.127 h 1.0811 c 1.3594,0 2.3496,-0.1289 2.9707,-0.3867 0.6211,-0.2578 0.9316,-0.6855 0.9316,-1.2832 0,-0.4394 -0.1963,-0.7881 -0.5888,-1.0459 -0.3868,-0.2637 -0.9698,-0.3955 -1.7491,-0.3955 -1.207,0 -2.373,0.3486 -3.498,1.0459 l -1.1865,-1.8193 c 0.7324,-0.4864 1.5088,-0.8409 2.3291,-1.0635 0.8203,-0.2285 1.7314,-0.3428 2.7334,-0.3428 1.4004,0 2.5166,0.293 3.3486,0.8789 0.8379,0.586 1.2568,1.3565 1.2568,2.3115 z m 8.7364,7.8838 v -5.8535 h -2.0127 c -0.1465,1.0899 -0.3487,2.124 -0.6065,3.1026 -0.2519,0.9785 -0.6035,1.8955 -1.0547,2.7509 z m 4.122,5.4844 H 55.9443 V 79 H 49.335 v 3.5244 H 46.9268 V 77.04 h 0.8261 c 0.5625,-0.873 1.0342,-1.9746 1.4151,-3.3046 0.3808,-1.3301 0.6474,-2.8506 0.7998,-4.5616 h 6.9433 V 77.04 h 1.4414 z m 5.7481,-11.6279 c -0.5684,0 -1.0137,0.1816 -1.336,0.5449 -0.3222,0.3574 -0.5068,0.8672 -0.5537,1.5293 h 3.7618 c -0.0118,-0.6621 -0.1846,-1.1719 -0.5186,-1.5293 -0.334,-0.3633 -0.7852,-0.5449 -1.3535,-0.5449 z m 0.3779,8.2793 c -1.582,0 -2.8183,-0.4365 -3.709,-1.3096 -0.8906,-0.873 -1.3359,-2.1094 -1.3359,-3.709 0,-1.6465 0.4102,-2.9179 1.2305,-3.8144 0.8261,-0.9024 1.9658,-1.3535 3.4189,-1.3535 1.3887,0 2.4697,0.3955 3.2432,1.1865 0.7734,0.791 1.1601,1.8838 1.1601,3.2783 v 1.3008 h -6.3369 c 0.0293,0.7617 0.2549,1.3564 0.6768,1.7842 0.4218,0.4277 1.0136,0.6416 1.7754,0.6416 0.5918,0 1.1513,-0.0616 1.6787,-0.1846 0.5273,-0.1231 1.0781,-0.3193 1.6523,-0.5889 v 2.0742 c -0.4687,0.2344 -0.9697,0.4073 -1.5029,0.5186 -0.5332,0.1172 -1.1836,0.1758 -1.9512,0.1758 z m 10.1777,0 c -3.0585,0 -4.5878,-1.6787 -4.5878,-5.0362 0,-1.6699 0.416,-2.9443 1.248,-3.8232 0.832,-0.8848 2.0244,-1.3271 3.5772,-1.3271 1.1367,0 2.1562,0.2226 3.0585,0.6679 l -0.791,2.0742 c -0.4218,-0.1699 -0.8144,-0.3076 -1.1777,-0.413 -0.3633,-0.1114 -0.7266,-0.167 -1.0898,-0.167 -1.3946,0 -2.0918,0.9902 -2.0918,2.9707 0,1.9218 0.6972,2.8828 2.0918,2.8828 0.5156,0 0.9931,-0.0674 1.4326,-0.2022 0.4394,-0.1406 0.8789,-0.3574 1.3183,-0.6504 v 2.294 c -0.4336,0.2754 -0.873,0.4658 -1.3183,0.5713 -0.4395,0.1054 -0.9961,0.1582 -1.67,0.1582 z m 7.9542,-6.2051 H 84.5 c 1.5117,0 2.6309,0.2402 3.3574,0.7207 0.7266,0.4805 1.0899,1.207 1.0899,2.1797 C 88.9473,77.957 87.5,79 84.6055,79 h -4.6758 v -9.8262 h 2.6807 z m 3.6562,2.9355 c 0,-0.3808 -0.1523,-0.6562 -0.457,-0.8261 -0.3047,-0.1699 -0.7588,-0.2549 -1.3623,-0.2549 h -1.8369 v 2.3203 h 1.872 c 1.1895,0 1.7842,-0.4131 1.7842,-1.2393 z M 108.046,79 h -2.505 v -7.7432 l -0.141,0.545 c -0.316,1.2363 -0.6,2.1709 -0.852,2.8037 L 102.808,79 H 100.9 l -1.7662,-4.4297 c -0.252,-0.6445 -0.5215,-1.5498 -0.8086,-2.7158 l -0.167,-0.5977 V 79 h -2.4961 v -9.8262 h 3.6914 l 1.6875,4.1924 c 0.176,0.4512 0.337,0.9697 0.483,1.5557 0.153,0.5859 0.255,1.0869 0.308,1.5029 0.193,-0.8789 0.343,-1.5088 0.448,-1.8896 0.112,-0.3868 0.232,-0.7413 0.361,-1.0635 0.129,-0.3223 0.712,-1.7549 1.749,-4.2979 h 3.656 z m 4.957,-4.9307 c 0,0.9727 0.158,1.708 0.475,2.2061 0.322,0.498 0.843,0.7471 1.564,0.7471 0.715,0 1.228,-0.2461 1.538,-0.7383 0.316,-0.4981 0.475,-1.2363 0.475,-2.2149 0,-0.9726 -0.159,-1.7021 -0.475,-2.1884 -0.316,-0.4864 -0.835,-0.7295 -1.556,-0.7295 -0.714,0 -1.23,0.2431 -1.546,0.7295 -0.317,0.4804 -0.475,1.2099 -0.475,2.1884 z m 6.794,0 c 0,1.5996 -0.422,2.8506 -1.266,3.753 -0.843,0.9023 -2.018,1.3535 -3.524,1.3535 -0.944,0 -1.776,-0.2051 -2.496,-0.6153 -0.721,-0.416 -1.275,-1.0107 -1.661,-1.7841 -0.387,-0.7735 -0.58,-1.6758 -0.58,-2.7071 0,-1.6054 0.418,-2.8535 1.256,-3.7441 0.838,-0.8906 2.016,-1.3359 3.534,-1.3359 0.943,0 1.775,0.205 2.496,0.6152 0.72,0.4101 1.274,0.999 1.661,1.7666 0.387,0.7676 0.58,1.667 0.58,2.6982 z m 7.418,-0.123 v -4.7725 h 2.496 v 4.7725 l 3.498,-4.7725 h 2.769 l -3.622,4.711 L 136.32,79 h -2.865 l -3.744,-4.9834 V 79 h -2.496 V 74.0166 L 123.471,79 h -2.866 l 3.964,-5.1152 -3.621,-4.711 h 2.769 z m 14.581,-3.0498 c -0.568,0 -1.014,0.1816 -1.336,0.5449 -0.322,0.3574 -0.507,0.8672 -0.554,1.5293 h 3.762 c -0.012,-0.6621 -0.185,-1.1719 -0.519,-1.5293 -0.334,-0.3633 -0.785,-0.5449 -1.353,-0.5449 z m 0.378,8.2793 c -1.582,0 -2.819,-0.4365 -3.709,-1.3096 -0.891,-0.873 -1.336,-2.1094 -1.336,-3.709 0,-1.6465 0.41,-2.9179 1.23,-3.8144 0.827,-0.9024 1.966,-1.3535 3.419,-1.3535 1.389,0 2.47,0.3955 3.243,1.1865 0.774,0.791 1.161,1.8838 1.161,3.2783 v 1.3008 h -6.337 c 0.029,0.7617 0.255,1.3564 0.676,1.7842 0.422,0.4277 1.014,0.6416 1.776,0.6416 0.592,0 1.151,-0.0616 1.679,-0.1846 0.527,-0.1231 1.078,-0.3193 1.652,-0.5889 v 2.0742 c -0.469,0.2344 -0.97,0.4073 -1.503,0.5186 -0.533,0.1172 -1.184,0.1758 -1.951,0.1758 z m 14.317,-10.002 v 2.0127 h -3.217 V 79 h -2.68 v -7.8135 h -3.226 v -2.0127 z m 5.915,3.9375 c 0,-2.2558 0.428,-3.9668 1.283,-5.1328 0.862,-1.1719 2.204,-1.9131 4.026,-2.2236 0.885,-0.1524 2.206,-0.3457 3.964,-0.5801 l 0.307,2.3379 c -0.761,0.0879 -2.112,0.2754 -4.051,0.5625 -0.739,0.1172 -1.289,0.293 -1.653,0.5273 -0.363,0.2344 -0.636,0.5684 -0.817,1.002 -0.176,0.4336 -0.284,1.0107 -0.325,1.7314 h 0.131 c 0.311,-0.4804 0.721,-0.8496 1.231,-1.1074 0.51,-0.2578 1.058,-0.3867 1.644,-0.3867 1.212,0 2.156,0.3721 2.83,1.1162 0.673,0.7383 1.01,1.7988 1.01,3.1816 0,1.5938 -0.427,2.8331 -1.283,3.7178 -0.849,0.8789 -2.024,1.3184 -3.524,1.3184 -1.5,0 -2.672,-0.5362 -3.516,-1.6084 -0.838,-1.0781 -1.257,-2.5635 -1.257,-4.4561 z m 4.931,3.8936 c 1.271,0 1.907,-0.876 1.907,-2.6279 0,-1.7051 -0.574,-2.5577 -1.723,-2.5577 -0.316,0 -0.632,0.0733 -0.949,0.2198 -0.31,0.1464 -0.597,0.3398 -0.861,0.58 -0.258,0.2344 -0.448,0.4717 -0.571,0.712 0,1.1894 0.19,2.1005 0.571,2.7334 0.381,0.6269 0.923,0.9404 1.626,0.9404 z m 9.545,-4.0342 h 1.292 c 1.5,0 2.61,0.2402 3.331,0.7207 0.721,0.4805 1.081,1.207 1.081,2.1797 0,1.0371 -0.36,1.8193 -1.081,2.3467 C 180.784,78.7393 179.706,79 178.271,79 h -4.07 v -9.8262 h 2.681 z m 3.023,2.9355 c 0,-0.3808 -0.152,-0.6562 -0.457,-0.8261 -0.304,-0.1699 -0.759,-0.2549 -1.362,-0.2549 h -1.204 v 2.3203 h 1.239 c 1.19,0 1.784,-0.4131 1.784,-1.2393 z M 186.69,79 h -2.68 v -9.8262 h 2.68 z m 10.952,-9.8262 v 2.0127 h -3.217 V 79 h -2.681 v -7.8135 h -3.225 v -2.0127 z m 4.517,3.7969 h 1.89 c 1.512,0 2.631,0.2402 3.357,0.7207 0.727,0.4805 1.09,1.207 1.09,2.1797 0,2.0859 -1.447,3.1289 -4.342,3.1289 h -4.675 v -9.8262 h 2.68 z m 3.656,2.9355 c 0,-0.3808 -0.152,-0.6562 -0.457,-0.8261 -0.304,-0.1699 -0.758,-0.2549 -1.362,-0.2549 h -1.837 v 2.3203 h 1.872 c 1.19,0 1.784,-0.4131 1.784,-1.2393 z M 45.4766,96.749 c 0,0.5274 -0.167,0.9785 -0.501,1.3535 -0.3281,0.3692 -0.8145,0.6065 -1.459,0.712 v 0.0703 c 0.6973,0.082 1.248,0.3222 1.6523,0.7207 0.4102,0.3925 0.6153,0.8789 0.6153,1.459 0,0.955 -0.375,1.6845 -1.125,2.1884 C 43.9092,103.751 42.8369,104 41.4424,104 h -5.0362 v -9.8262 h 5.0362 c 1.3476,0 2.3555,0.2198 3.0234,0.6592 0.6738,0.4336 1.0108,1.0723 1.0108,1.916 z m -2.4698,4.1748 c 0,-0.3867 -0.1494,-0.665 -0.4482,-0.8349 -0.2988,-0.1758 -0.7471,-0.2637 -1.3447,-0.2637 h -2.127 v 2.3203 h 2.1797 c 0.5684,0 0.999,-0.1055 1.292,-0.3164 0.2988,-0.2168 0.4482,-0.5186 0.4482,-0.9053 z M 42.7607,96.96 c 0,-0.5977 -0.4746,-0.8965 -1.4238,-0.8965 h -2.25 v 1.9424 h 1.9424 c 0.5684,0 0.999,-0.0821 1.292,-0.2461 0.293,-0.1641 0.4394,-0.4307 0.4394,-0.7998 z m 11.3995,7.04 -0.5186,-1.3359 h -0.0703 c -0.4512,0.5683 -0.917,0.9638 -1.3975,1.1865 -0.4746,0.2168 -1.0957,0.3252 -1.8633,0.3252 -0.9433,0 -1.6875,-0.2696 -2.2324,-0.8086 -0.539,-0.5391 -0.8086,-1.3067 -0.8086,-2.3027 0,-1.043 0.3633,-1.8106 1.0899,-2.3028 0.7324,-0.498 1.834,-0.7734 3.3047,-0.8262 l 1.705,-0.0527 v -0.4307 c 0,-0.996 -0.5097,-1.4941 -1.5293,-1.4941 -0.7851,0 -1.708,0.2373 -2.7685,0.7119 l -0.8877,-1.8105 c 1.1309,-0.5918 2.3848,-0.8877 3.7617,-0.8877 1.3184,0 2.3291,0.2871 3.0322,0.8613 0.7032,0.5742 1.0547,1.4473 1.0547,2.6191 V 104 Z m -0.7911,-4.5527 -1.0371,0.0351 c -0.7793,0.0235 -1.3593,0.1641 -1.7402,0.4219 -0.3809,0.2578 -0.5713,0.6504 -0.5713,1.1777 0,0.7559 0.4336,1.1338 1.3008,1.1338 0.6211,0 1.1162,-0.1787 1.4853,-0.5361 0.375,-0.3574 0.5625,-0.832 0.5625,-1.4238 z M 73.4346,104 H 58.8008 v -9.8262 h 2.6806 v 7.8135 h 3.2959 v -7.8135 h 2.6807 v 7.8135 h 3.2959 v -7.8135 h 2.6807 z m 9.0615,0 -0.5186,-1.3359 h -0.0703 c -0.4511,0.5683 -0.917,0.9638 -1.3974,1.1865 -0.4746,0.2168 -1.0957,0.3252 -1.8633,0.3252 -0.9434,0 -1.6875,-0.2696 -2.2324,-0.8086 -0.5391,-0.5391 -0.8086,-1.3067 -0.8086,-2.3027 0,-1.043 0.3633,-1.8106 1.0898,-2.3028 0.7324,-0.498 1.834,-0.7734 3.3047,-0.8262 l 1.7051,-0.0527 v -0.4307 c 0,-0.996 -0.5098,-1.4941 -1.5293,-1.4941 -0.7852,0 -1.708,0.2373 -2.7686,0.7119 l -0.8877,-1.8105 c 1.1309,-0.5918 2.3848,-0.8877 3.7617,-0.8877 1.3184,0 2.3292,0.2871 3.0323,0.8613 0.7031,0.5742 1.0547,1.4473 1.0547,2.6191 V 104 Z m -0.791,-4.5527 -1.0371,0.0351 c -0.7793,0.0235 -1.3594,0.1641 -1.7403,0.4219 -0.3808,0.2578 -0.5713,0.6504 -0.5713,1.1777 0,0.7559 0.4336,1.1338 1.3008,1.1338 0.6211,0 1.1162,-0.1787 1.4854,-0.5361 0.375,-0.3574 0.5625,-0.832 0.5625,-1.4238 z m 15.5039,4.7285 c -1.1543,0 -2.0596,-0.419 -2.7158,-1.2569 h -0.1407 c 0.0938,0.8204 0.1407,1.295 0.1407,1.4239 v 3.9814 H 91.8125 V 94.1738 h 2.1797 l 0.3779,1.2744 h 0.1231 c 0.6269,-0.9726 1.5556,-1.4589 2.7861,-1.4589 1.1602,0 2.0684,0.4482 2.7247,1.3447 0.656,0.8965 0.984,2.1416 0.984,3.7353 0,1.0489 -0.155,1.96 -0.466,2.7334 -0.304,0.7735 -0.7408,1.3623 -1.3091,1.7666 -0.5684,0.4043 -1.2363,0.6065 -2.0039,0.6065 z m -0.791,-8.042 c -0.6621,0 -1.1455,0.2051 -1.4502,0.6152 -0.3047,0.4043 -0.4629,1.0752 -0.4746,2.0127 v 0.2901 c 0,1.0546 0.1552,1.8105 0.4658,2.2675 0.3164,0.4571 0.8144,0.6856 1.4941,0.6856 1.2012,0 1.8018,-0.9903 1.8018,-2.9707 0,-0.9668 -0.1494,-1.6904 -0.4483,-2.1709 -0.2929,-0.4863 -0.7558,-0.7295 -1.3886,-0.7295 z m 10.854,-0.2373 c -0.568,0 -1.013,0.1816 -1.335,0.5449 -0.323,0.3574 -0.507,0.8672 -0.554,1.5293 h 3.762 c -0.012,-0.6621 -0.185,-1.1719 -0.519,-1.5293 -0.334,-0.3633 -0.785,-0.5449 -1.354,-0.5449 z m 0.378,8.2793 c -1.582,0 -2.818,-0.4365 -3.709,-1.3096 -0.89,-0.873 -1.336,-2.1094 -1.336,-3.709 0,-1.6465 0.411,-2.9179 1.231,-3.8144 0.826,-0.9024 1.966,-1.3535 3.419,-1.3535 1.389,0 2.47,0.3955 3.243,1.1865 0.773,0.791 1.16,1.8838 1.16,3.2783 v 1.3008 h -6.337 c 0.03,0.7617 0.255,1.3564 0.677,1.7842 0.422,0.4277 1.014,0.6416 1.775,0.6416 0.592,0 1.152,-0.0616 1.679,-0.1846 0.527,-0.1231 1.078,-0.3193 1.652,-0.5889 v 2.0742 c -0.468,0.2344 -0.969,0.4073 -1.502,0.5186 -0.534,0.1172 -1.184,0.1758 -1.952,0.1758 z m 12.63,-10.002 h 2.953 l -3.893,4.711 4.236,5.1152 h -3.041 l -4.016,-4.9834 V 104 h -2.681 v -9.8262 h 2.681 v 4.7725 z M 133.78,104 h -2.68 v -7.8135 h -2.47 c -0.188,2.1973 -0.416,3.8379 -0.686,4.9219 -0.269,1.0781 -0.63,1.8604 -1.081,2.3467 -0.445,0.4804 -1.031,0.7207 -1.758,0.7207 -0.621,0 -1.13,-0.0938 -1.529,-0.2813 V 101.75 c 0.287,0.1172 0.574,0.1758 0.862,0.1758 0.333,0 0.612,-0.2403 0.834,-0.7207 0.229,-0.4805 0.431,-1.2803 0.607,-2.3994 0.182,-1.125 0.337,-2.669 0.466,-4.6319 h 7.435 z m 9.062,0 -0.519,-1.3359 h -0.07 c -0.451,0.5683 -0.917,0.9638 -1.398,1.1865 -0.474,0.2168 -1.095,0.3252 -1.863,0.3252 -0.943,0 -1.687,-0.2696 -2.232,-0.8086 -0.539,-0.5391 -0.809,-1.3067 -0.809,-2.3027 0,-1.043 0.363,-1.8106 1.09,-2.3028 0.732,-0.498 1.834,-0.7734 3.305,-0.8262 l 1.705,-0.0527 v -0.4307 c 0,-0.996 -0.51,-1.4941 -1.53,-1.4941 -0.785,0 -1.708,0.2373 -2.768,0.7119 l -0.888,-1.8105 c 1.131,-0.5918 2.385,-0.8877 3.762,-0.8877 1.318,0 2.329,0.2871 3.032,0.8613 0.703,0.5742 1.055,1.4473 1.055,2.6191 V 104 Z m -0.791,-4.5527 -1.037,0.0351 c -0.78,0.0235 -1.36,0.1641 -1.741,0.4219 -0.38,0.2578 -0.571,0.6504 -0.571,1.1777 0,0.7559 0.434,1.1338 1.301,1.1338 0.621,0 1.116,-0.1787 1.485,-0.5361 0.375,-0.3574 0.563,-0.832 0.563,-1.4238 z M 159.866,104 h -2.505 v -7.7432 l -0.14,0.545 c -0.317,1.2363 -0.601,2.1709 -0.853,2.8037 L 154.628,104 h -1.907 l -1.767,-4.4297 c -0.252,-0.6445 -0.521,-1.5498 -0.808,-2.7158 l -0.167,-0.5977 V 104 h -2.497 v -9.8262 h 3.692 l 1.687,4.1924 c 0.176,0.4512 0.337,0.9697 0.484,1.5557 0.152,0.5859 0.255,1.0869 0.307,1.5029 0.194,-0.8789 0.343,-1.5088 0.449,-1.8896 0.111,-0.3868 0.231,-0.7413 0.36,-1.0635 0.129,-0.3223 0.712,-1.7549 1.749,-4.2979 h 3.656 z m 9.062,0 -0.519,-1.3359 h -0.07 c -0.451,0.5683 -0.917,0.9638 -1.398,1.1865 -0.474,0.2168 -1.095,0.3252 -1.863,0.3252 -0.943,0 -1.687,-0.2696 -2.232,-0.8086 -0.539,-0.5391 -0.809,-1.3067 -0.809,-2.3027 0,-1.043 0.363,-1.8106 1.09,-2.3028 0.732,-0.498 1.834,-0.7734 3.305,-0.8262 l 1.705,-0.0527 v -0.4307 c 0,-0.996 -0.51,-1.4941 -1.53,-1.4941 -0.785,0 -1.708,0.2373 -2.768,0.7119 l -0.888,-1.8105 c 1.131,-0.5918 2.385,-0.8877 3.762,-0.8877 1.318,0 2.329,0.2871 3.032,0.8613 0.703,0.5742 1.055,1.4473 1.055,2.6191 V 104 Z m -0.791,-4.5527 -1.037,0.0351 c -0.78,0.0235 -1.36,0.1641 -1.741,0.4219 -0.38,0.2578 -0.571,0.6504 -0.571,1.1777 0,0.7559 0.434,1.1338 1.301,1.1338 0.621,0 1.116,-0.1787 1.485,-0.5361 0.375,-0.3574 0.563,-0.832 0.563,-1.4238 z m 7.681,0.29 h -2.144 l -0.448,-8.5869 h 3.041 z m -2.628,3.0059 c 0,-0.4922 0.132,-0.8643 0.396,-1.1162 0.264,-0.252 0.647,-0.378 1.151,-0.378 0.487,0 0.862,0.1289 1.125,0.3867 0.27,0.2579 0.405,0.627 0.405,1.1075 0,0.4629 -0.135,0.8291 -0.405,1.0986 -0.269,0.2637 -0.644,0.3955 -1.125,0.3955 -0.492,0 -0.873,-0.1289 -1.142,-0.3867 -0.27,-0.2637 -0.405,-0.6328 -0.405,-1.1074 z"
       fill="#333333"
       id="path175" />
  </g>
</svg>
