<?xml version="1.0" encoding="UTF-8" standalone="no"?>
<svg
   width="240"
   height="400"
   viewBox="0 0 240 400"
   fill="none"
   version="1.1"
   id="svg139"
   sodipodi:docname="Listings Category Page_ Right Side (240х400) en.svg"
   inkscape:version="1.4 (86a8ad7, 2024-10-11)"
   xmlns:inkscape="http://www.inkscape.org/namespaces/inkscape"
   xmlns:sodipodi="http://sodipodi.sourceforge.net/DTD/sodipodi-0.dtd"
   xmlns="http://www.w3.org/2000/svg"
   xmlns:svg="http://www.w3.org/2000/svg">
  <defs
     id="defs139" />
  <sodipodi:namedview
     id="namedview139"
     pagecolor="#ffffff"
     bordercolor="#000000"
     borderopacity="0.25"
     inkscape:showpageshadow="2"
     inkscape:pageopacity="0.0"
     inkscape:pagecheckerboard="0"
     inkscape:deskcolor="#d1d1d1"
     inkscape:zoom="1.6033646"
     inkscape:cx="134.71671"
     inkscape:cy="231.07657"
     inkscape:window-width="1920"
     inkscape:window-height="1129"
     inkscape:window-x="1912"
     inkscape:window-y="-8"
     inkscape:window-maximized="1"
     inkscape:current-layer="g139" />
  <mask
     id="mask0_1_131017"
     style="mask-type:alpha"
     maskUnits="userSpaceOnUse"
     x="0"
     y="0"
     width="240"
     height="400">
    <rect
       x="0.5"
       y="0.5"
       width="239"
       height="399"
       rx="3.5"
       fill="white"
       stroke="#E5E5E5"
       id="rect1" />
  </mask>
  <g
     mask="url(#mask0_1_131017)"
     id="g139">
    <rect
       x="0.5"
       y="0.5"
       width="239"
       height="399"
       rx="3.5"
       fill="white"
       stroke="#E5E5E5"
       id="rect2" />
    <path
       d="M60.4612 246.231H56.1315V251.719H60.4612V246.231Z"
       stroke="#E5E5E5"
       stroke-width="1.59158"
       stroke-miterlimit="10"
       stroke-linecap="round"
       stroke-linejoin="round"
       id="path2" />
    <path
       d="M53.9666 246.231H43.1424V249.524H53.9666V246.231Z"
       stroke="#E5E5E5"
       stroke-width="1.59158"
       stroke-miterlimit="10"
       stroke-linecap="round"
       stroke-linejoin="round"
       id="path3" />
    <path
       d="M48.5545 240.743H43.1424V244.036H48.5545V240.743Z"
       stroke="#E5E5E5"
       stroke-width="1.59158"
       stroke-miterlimit="10"
       stroke-linecap="round"
       stroke-linejoin="round"
       id="path4" />
    <path
       d="M45.8484 240.743V244.036"
       stroke="#E5E5E5"
       stroke-width="1.59158"
       stroke-miterlimit="10"
       stroke-linecap="round"
       stroke-linejoin="round"
       id="path5" />
    <path
       d="M48.5545 235.255H43.1424V238.548H48.5545V235.255Z"
       stroke="#E5E5E5"
       stroke-width="1.59158"
       stroke-miterlimit="10"
       stroke-linecap="round"
       stroke-linejoin="round"
       id="path6" />
    <path
       d="M45.8484 235.255V238.548"
       stroke="#E5E5E5"
       stroke-width="1.59158"
       stroke-miterlimit="10"
       stroke-linecap="round"
       stroke-linejoin="round"
       id="path7" />
    <path
       d="M48.5545 229.767H43.1424V233.06H48.5545V229.767Z"
       stroke="#E5E5E5"
       stroke-width="1.59158"
       stroke-miterlimit="10"
       stroke-linecap="round"
       stroke-linejoin="round"
       id="path8" />
    <path
       d="M40.9776 231.962H38.8127V234.157H40.9776V231.962Z"
       stroke="#E5E5E5"
       stroke-width="1.59158"
       stroke-miterlimit="10"
       stroke-linecap="round"
       stroke-linejoin="round"
       id="path9" />
    <path
       d="M40.9775 226.474H38.8127V228.669H40.9775V226.474Z"
       stroke="#E5E5E5"
       stroke-width="1.59158"
       stroke-miterlimit="10"
       stroke-linecap="round"
       stroke-linejoin="round"
       id="path10" />
    <path
       d="M40.9775 242.938H38.8127V245.134H40.9775V242.938Z"
       stroke="#E5E5E5"
       stroke-width="1.59158"
       stroke-miterlimit="10"
       stroke-linecap="round"
       stroke-linejoin="round"
       id="path11" />
    <path
       d="M40.9775 237.45H38.8127V239.645H40.9775V237.45Z"
       stroke="#E5E5E5"
       stroke-width="1.59158"
       stroke-miterlimit="10"
       stroke-linecap="round"
       stroke-linejoin="round"
       id="path12" />
    <path
       d="M45.8484 229.767V233.06"
       stroke="#E5E5E5"
       stroke-width="1.59158"
       stroke-miterlimit="10"
       stroke-linecap="round"
       stroke-linejoin="round"
       id="path13" />
    <path
       d="M48.5545 224.278H43.1424V227.571H48.5545V224.278Z"
       stroke="#E5E5E5"
       stroke-width="1.59158"
       stroke-miterlimit="10"
       stroke-linecap="round"
       stroke-linejoin="round"
       id="path14" />
    <path
       d="M45.8484 224.278V227.571"
       stroke="#E5E5E5"
       stroke-width="1.59158"
       stroke-miterlimit="10"
       stroke-linecap="round"
       stroke-linejoin="round"
       id="path15" />
    <path
       d="M60.4612 240.743H55.0491V244.036H60.4612V240.743Z"
       stroke="#E5E5E5"
       stroke-width="1.59158"
       stroke-miterlimit="10"
       stroke-linecap="round"
       stroke-linejoin="round"
       id="path16" />
    <path
       d="M65.8734 227.022V247.878"
       stroke="#E5E5E5"
       stroke-width="1.59158"
       stroke-miterlimit="10"
       stroke-linecap="round"
       stroke-linejoin="round"
       id="path17" />
    <path
       d="M62.626 229.767H65.8733"
       stroke="#E5E5E5"
       stroke-width="1.59158"
       stroke-miterlimit="10"
       stroke-linecap="round"
       stroke-linejoin="round"
       id="path18" />
    <path
       d="M62.626 227.571H65.8733"
       stroke="#E5E5E5"
       stroke-width="1.59158"
       stroke-miterlimit="10"
       stroke-linecap="round"
       stroke-linejoin="round"
       id="path19" />
    <path
       d="M62.626 231.962H65.8733"
       stroke="#E5E5E5"
       stroke-width="1.59158"
       stroke-miterlimit="10"
       stroke-linecap="round"
       stroke-linejoin="round"
       id="path20" />
    <path
       d="M62.626 234.157H65.8733"
       stroke="#E5E5E5"
       stroke-width="1.59158"
       stroke-miterlimit="10"
       stroke-linecap="round"
       stroke-linejoin="round"
       id="path21" />
    <path
       d="M62.6261 236.352H65.8734"
       stroke="#E5E5E5"
       stroke-width="1.59158"
       stroke-miterlimit="10"
       stroke-linecap="round"
       stroke-linejoin="round"
       id="path22" />
    <path
       d="M62.626 238.548H65.8733"
       stroke="#E5E5E5"
       stroke-width="1.59158"
       stroke-miterlimit="10"
       stroke-linecap="round"
       stroke-linejoin="round"
       id="path23" />
    <path
       d="M62.6261 240.743H65.8734"
       stroke="#E5E5E5"
       stroke-width="1.59158"
       stroke-miterlimit="10"
       stroke-linecap="round"
       stroke-linejoin="round"
       id="path24" />
    <path
       d="M62.626 242.938H65.8733"
       stroke="#E5E5E5"
       stroke-width="1.59158"
       stroke-miterlimit="10"
       stroke-linecap="round"
       stroke-linejoin="round"
       id="path25" />
    <path
       d="M62.6261 245.134H65.8734"
       stroke="#E5E5E5"
       stroke-width="1.59158"
       stroke-miterlimit="10"
       stroke-linecap="round"
       stroke-linejoin="round"
       id="path26" />
    <path
       d="M62.626 247.329H65.8733"
       stroke="#E5E5E5"
       stroke-width="1.59158"
       stroke-miterlimit="10"
       stroke-linecap="round"
       stroke-linejoin="round"
       id="path27" />
    <path
       d="M57.7551 240.743V244.036"
       stroke="#E5E5E5"
       stroke-width="1.59158"
       stroke-miterlimit="10"
       stroke-linecap="round"
       stroke-linejoin="round"
       id="path28" />
    <path
       d="M60.4612 235.255H55.0491V238.548H60.4612V235.255Z"
       stroke="#E5E5E5"
       stroke-width="1.59158"
       stroke-miterlimit="10"
       stroke-linecap="round"
       stroke-linejoin="round"
       id="path29" />
    <path
       d="M57.7551 235.255V238.548"
       stroke="#E5E5E5"
       stroke-width="1.59158"
       stroke-miterlimit="10"
       stroke-linecap="round"
       stroke-linejoin="round"
       id="path30" />
    <path
       d="M60.4612 229.767H55.0491V233.06H60.4612V229.767Z"
       stroke="#E5E5E5"
       stroke-width="1.59158"
       stroke-miterlimit="10"
       stroke-linecap="round"
       stroke-linejoin="round"
       id="path31" />
    <path
       d="M57.7551 229.767V233.06"
       stroke="#E5E5E5"
       stroke-width="1.59158"
       stroke-miterlimit="10"
       stroke-linecap="round"
       stroke-linejoin="round"
       id="path32" />
    <path
       d="M60.4612 224.278H55.0491V227.571H60.4612V224.278Z"
       stroke="#E5E5E5"
       stroke-width="1.59158"
       stroke-miterlimit="10"
       stroke-linecap="round"
       stroke-linejoin="round"
       id="path33" />
    <path
       d="M57.7552 224.278V227.571"
       stroke="#E5E5E5"
       stroke-width="1.59158"
       stroke-miterlimit="10"
       stroke-linecap="round"
       stroke-linejoin="round"
       id="path34" />
    <path
       d="M52.8842 224.278H50.7194V244.036H52.8842V224.278Z"
       stroke="#E5E5E5"
       stroke-width="1.59158"
       stroke-miterlimit="10"
       stroke-linecap="round"
       stroke-linejoin="round"
       id="path35" />
    <path
       d="M52.8842 239.645H50.7193"
       stroke="#E5E5E5"
       stroke-width="1.59158"
       stroke-miterlimit="10"
       stroke-linecap="round"
       stroke-linejoin="round"
       id="path36" />
    <path
       d="M52.8842 234.157H50.7194"
       stroke="#E5E5E5"
       stroke-width="1.59158"
       stroke-miterlimit="10"
       stroke-linecap="round"
       stroke-linejoin="round"
       id="path37" />
    <path
       d="M52.8842 228.669H50.7194"
       stroke="#E5E5E5"
       stroke-width="1.59158"
       stroke-miterlimit="10"
       stroke-linecap="round"
       stroke-linejoin="round"
       id="path38" />
    <path
       d="M62.626 222.083H40.9775"
       stroke="#E5E5E5"
       stroke-width="1.59158"
       stroke-miterlimit="10"
       stroke-linecap="round"
       stroke-linejoin="round"
       id="path39" />
    <path
       d="M63.7085 219.888H39.8951"
       stroke="#E5E5E5"
       stroke-width="1.59158"
       stroke-miterlimit="10"
       stroke-linecap="round"
       stroke-linejoin="round"
       id="path40" />
    <path
       d="M62.626 219.888H40.9775V251.719H62.626V219.888Z"
       stroke="#E5E5E5"
       stroke-width="1.59158"
       stroke-miterlimit="10"
       stroke-linecap="round"
       stroke-linejoin="round"
       id="path41" />
    <path
       d="M123.845 246.056L118.13 246.103L118.266 240.918L123.981 240.871"
       stroke="#E5E5E5"
       stroke-width="1.59158"
       stroke-miterlimit="10"
       stroke-linecap="round"
       stroke-linejoin="round"
       id="path42" />
    <path
       d="M123.762 246.231L115.102 246.231"
       stroke="#E5E5E5"
       stroke-width="1.59158"
       stroke-miterlimit="10"
       stroke-linecap="round"
       stroke-linejoin="round"
       id="path43" />
    <path
       d="M132.665 240.032L136.056 240.012C136.678 240.009 137.198 239.543 137.213 238.977L137.657 221.497C137.671 220.932 137.174 220.472 136.552 220.476L106.032 220.653C105.41 220.657 104.89 221.123 104.875 221.688L104.431 239.168C104.417 239.734 104.914 240.194 105.536 240.19L123.622 240.085"
       stroke="#E5E5E5"
       stroke-width="1.59158"
       stroke-miterlimit="10"
       stroke-linecap="round"
       stroke-linejoin="round"
       id="path44" />
    <path
       d="M132.715 237.94L134.971 237.926L135.343 222.527L107.14 222.705L106.767 238.104L123.69 237.997"
       stroke="#E5E5E5"
       stroke-width="1.59158"
       stroke-miterlimit="10"
       stroke-linecap="round"
       stroke-linejoin="round"
       id="path45" />
    <path
       d="M131.345 251.362L124.383 251.407C123.744 251.411 123.235 250.94 123.25 250.36L123.634 235.59C123.649 235.009 124.184 234.531 124.822 234.527L131.785 234.482C132.423 234.478 132.933 234.949 132.918 235.529L132.533 250.299C132.518 250.88 131.983 251.358 131.345 251.362Z"
       stroke="#E5E5E5"
       stroke-width="1.59158"
       stroke-miterlimit="10"
       stroke-linecap="round"
       stroke-linejoin="round"
       id="path46" />
    <path
       d="M125.927 247.329L126.468 247.329"
       stroke="#E5E5E5"
       stroke-width="1.59158"
       stroke-miterlimit="10"
       stroke-linecap="round"
       stroke-linejoin="round"
       id="path47" />
    <path
       d="M129.715 247.329L130.256 247.329"
       stroke="#E5E5E5"
       stroke-width="1.59158"
       stroke-miterlimit="10"
       stroke-linecap="round"
       stroke-linejoin="round"
       id="path48" />
    <path
       d="M128.091 249.524L128.091 248.975"
       stroke="#E5E5E5"
       stroke-width="1.59158"
       stroke-miterlimit="10"
       stroke-linecap="round"
       stroke-linejoin="round"
       id="path49" />
    <path
       d="M128.091 245.683L128.091 245.134"
       stroke="#E5E5E5"
       stroke-width="1.59158"
       stroke-miterlimit="10"
       stroke-linecap="round"
       stroke-linejoin="round"
       id="path50" />
    <ellipse
       cx="0.592203"
       cy="0.53464"
       rx="0.592203"
       ry="0.53464"
       transform="matrix(0.965057 -0.00795285 -0.0252945 0.969739 125.368 235.839)"
       fill="#E5E5E5"
       id="ellipse50" />
    <ellipse
       cx="0.59219"
       cy="0.534635"
       rx="0.59219"
       ry="0.534635"
       transform="matrix(0.96506 -0.00796416 -0.0253052 0.969741 125.369 238.034)"
       fill="#E5E5E5"
       id="ellipse51" />
    <ellipse
       cx="0.592203"
       cy="0.53464"
       rx="0.592203"
       ry="0.53464"
       transform="matrix(0.965057 -0.00795285 -0.0252945 0.969739 125.369 240.229)"
       fill="#E5E5E5"
       id="ellipse52" />
    <ellipse
       cx="0.592203"
       cy="0.53464"
       rx="0.592203"
       ry="0.53464"
       transform="matrix(0.965057 -0.00795285 -0.0252945 0.969739 125.369 242.425)"
       fill="#E5E5E5"
       id="ellipse53" />
    <ellipse
       cx="0.59219"
       cy="0.534635"
       rx="0.59219"
       ry="0.534635"
       transform="matrix(0.96506 -0.00796416 -0.0253052 0.969741 127.533 238.034)"
       fill="#E5E5E5"
       id="ellipse54" />
    <ellipse
       cx="0.592203"
       cy="0.53464"
       rx="0.592203"
       ry="0.53464"
       transform="matrix(0.965057 -0.00795285 -0.0252945 0.969739 127.533 240.229)"
       fill="#E5E5E5"
       id="ellipse55" />
    <ellipse
       cx="0.592203"
       cy="0.53464"
       rx="0.592203"
       ry="0.53464"
       transform="matrix(0.965057 -0.00795285 -0.0252945 0.969739 127.533 242.425)"
       fill="#E5E5E5"
       id="ellipse56" />
    <ellipse
       cx="0.59219"
       cy="0.534635"
       rx="0.59219"
       ry="0.534635"
       transform="matrix(0.96506 -0.00796416 -0.0253052 0.969741 129.698 238.034)"
       fill="#E5E5E5"
       id="ellipse57" />
    <ellipse
       cx="0.592203"
       cy="0.53464"
       rx="0.592203"
       ry="0.53464"
       transform="matrix(0.965057 -0.00795285 -0.0252945 0.969739 129.698 240.229)"
       fill="#E5E5E5"
       id="ellipse58" />
    <ellipse
       cx="0.592203"
       cy="0.53464"
       rx="0.592203"
       ry="0.53464"
       transform="matrix(0.965057 -0.00795285 -0.0252945 0.969739 129.698 242.425)"
       fill="#E5E5E5"
       id="ellipse59" />
    <path
       d="M204.996 238.88C204.066 240.649 202.729 242.181 201.101 243.36"
       stroke="#E5E5E5"
       stroke-width="1.59158"
       stroke-miterlimit="10"
       stroke-linecap="round"
       stroke-linejoin="round"
       id="path59" />
    <path
       d="M206.506 234.282C206.448 234.872 206.332 235.461 206.159 236.051"
       stroke="#E5E5E5"
       stroke-width="1.59158"
       stroke-miterlimit="10"
       stroke-linecap="round"
       stroke-linejoin="round"
       id="path60" />
    <path
       d="M185.697 249.55L200.81 249.55"
       stroke="#E5E5E5"
       stroke-width="1.59158"
       stroke-miterlimit="10"
       stroke-linecap="round"
       stroke-linejoin="round"
       id="path61" />
    <path
       d="M208.948 232.455C208.948 229.685 208.25 227.091 207.029 224.792L179.476 224.792C178.255 227.032 177.557 229.685 177.557 232.455C177.557 239.116 181.626 244.834 187.381 247.192L186.858 247.192L186.858 249.55L199.647 249.55L199.647 247.192L199.124 247.192C204.879 244.834 208.948 239.116 208.948 232.455Z"
       stroke="#E5E5E5"
       stroke-width="1.59158"
       stroke-miterlimit="10"
       stroke-linecap="round"
       stroke-linejoin="round"
       id="path62" />
    <path
       d="M207.786 222.434L178.721 222.434L178.721 224.792L207.786 224.792L207.786 222.434Z"
       stroke="#E5E5E5"
       stroke-width="1.59158"
       stroke-miterlimit="10"
       stroke-linecap="round"
       stroke-linejoin="round"
       id="path63" />
    <path
       fill-rule="evenodd"
       clip-rule="evenodd"
       d="M193.168 235.421C195.774 235.812 197.648 237.866 197.629 238.365C197.61 238.864 195.523 240.913 192.948 241.298C192.381 241.796 191.32 242.46 190.02 243.013L190.096 240.962C188.713 240.461 187.649 239.572 187.184 238.962C186.617 239.46 185.556 240.124 184.195 240.677C184.224 239.901 184.622 239.014 185.011 238.405C184.672 237.684 184.339 236.796 184.366 236.075C185.686 236.631 186.698 237.298 187.228 237.798C187.738 237.188 188.868 236.303 190.288 235.806L190.365 233.754C191.626 234.255 192.638 234.921 193.168 235.421Z"
       stroke="#E5E5E5"
       stroke-width="1.59158"
       stroke-miterlimit="10"
       stroke-linecap="round"
       stroke-linejoin="round"
       id="path64" />
    <path
       d="M177.791 229.626L177.849 229.626L177.791 229.626Z"
       stroke="#E5E5E5"
       stroke-width="1.59158"
       stroke-miterlimit="10"
       stroke-linecap="round"
       stroke-linejoin="round"
       id="path65" />
    <path
       d="M180.736 229.64C181.904 230.165 183.726 230.176 184.908 229.665"
       stroke="#E5E5E5"
       stroke-width="1.59158"
       stroke-miterlimit="10"
       stroke-linecap="round"
       stroke-linejoin="round"
       id="path66" />
    <path
       d="M194.687 229.64C195.855 230.165 197.677 230.176 198.859 229.665"
       stroke="#E5E5E5"
       stroke-width="1.59158"
       stroke-miterlimit="10"
       stroke-linecap="round"
       stroke-linejoin="round"
       id="path67" />
    <path
       d="M187.711 229.64C188.88 230.165 190.701 230.176 191.883 229.665"
       stroke="#E5E5E5"
       stroke-width="1.59158"
       stroke-miterlimit="10"
       stroke-linecap="round"
       stroke-linejoin="round"
       id="path68" />
    <path
       d="M180.782 229.602L179.309 228.886L177.808 229.601"
       stroke="#E5E5E5"
       stroke-width="1.59158"
       stroke-miterlimit="10"
       stroke-linecap="round"
       stroke-linejoin="round"
       id="path69" />
    <path
       d="M201.663 229.64C202.831 230.165 204.653 230.176 205.835 229.665"
       stroke="#E5E5E5"
       stroke-width="1.59158"
       stroke-miterlimit="10"
       stroke-linecap="round"
       stroke-linejoin="round"
       id="path70" />
    <path
       d="M187.759 229.601L186.284 228.883L184.784 229.602"
       stroke="#E5E5E5"
       stroke-width="1.59158"
       stroke-miterlimit="10"
       stroke-linecap="round"
       stroke-linejoin="round"
       id="path71" />
    <path
       d="M208.686 229.601L207.211 228.883L205.711 229.602"
       stroke="#E5E5E5"
       stroke-width="1.59158"
       stroke-miterlimit="10"
       stroke-linecap="round"
       stroke-linejoin="round"
       id="path72" />
    <path
       d="M208.717 229.626L208.658 229.626C208.658 229.626 208.658 229.626 208.717 229.626Z"
       stroke="#E5E5E5"
       stroke-width="1.59158"
       stroke-miterlimit="10"
       stroke-linecap="round"
       stroke-linejoin="round"
       id="path73" />
    <path
       d="M201.71 229.601L200.236 228.883L198.735 229.602"
       stroke="#E5E5E5"
       stroke-width="1.59158"
       stroke-miterlimit="10"
       stroke-linecap="round"
       stroke-linejoin="round"
       id="path74" />
    <path
       d="M194.734 229.601L193.26 228.883L191.76 229.602"
       stroke="#E5E5E5"
       stroke-width="1.59158"
       stroke-miterlimit="10"
       stroke-linecap="round"
       stroke-linejoin="round"
       id="path75" />
    <path
       d="M123.845 369.563L118.13 369.61L118.266 364.425L123.981 364.378"
       stroke="#E5E5E5"
       stroke-width="1.59158"
       stroke-miterlimit="10"
       stroke-linecap="round"
       stroke-linejoin="round"
       id="path76" />
    <path
       d="M123.762 369.738L115.102 369.738"
       stroke="#E5E5E5"
       stroke-width="1.59158"
       stroke-miterlimit="10"
       stroke-linecap="round"
       stroke-linejoin="round"
       id="path77" />
    <path
       d="M132.672 363.528L136.064 363.508C136.685 363.504 137.206 363.038 137.22 362.472L137.659 344.994C137.674 344.428 137.177 343.969 136.555 343.972L106.032 344.16C105.41 344.164 104.89 344.63 104.876 345.195L104.436 362.674C104.422 363.239 104.919 363.699 105.541 363.695L123.628 363.584"
       stroke="#E5E5E5"
       stroke-width="1.59158"
       stroke-miterlimit="10"
       stroke-linecap="round"
       stroke-linejoin="round"
       id="path78" />
    <path
       d="M132.715 361.447L134.971 361.433L135.343 346.033L107.14 346.212L106.767 361.611L123.69 361.504"
       stroke="#E5E5E5"
       stroke-width="1.59158"
       stroke-miterlimit="10"
       stroke-linecap="round"
       stroke-linejoin="round"
       id="path79" />
    <path
       d="M131.35 374.865L124.387 374.913C123.749 374.917 123.239 374.446 123.254 373.866L123.634 359.096C123.649 358.516 124.184 358.038 124.822 358.034L131.785 357.986C132.423 357.982 132.933 358.453 132.918 359.033L132.538 373.802C132.523 374.382 131.988 374.861 131.35 374.865Z"
       stroke="#E5E5E5"
       stroke-width="1.59158"
       stroke-miterlimit="10"
       stroke-linecap="round"
       stroke-linejoin="round"
       id="path80" />
    <path
       d="M125.926 370.836L126.468 370.836"
       stroke="#E5E5E5"
       stroke-width="1.59158"
       stroke-miterlimit="10"
       stroke-linecap="round"
       stroke-linejoin="round"
       id="path81" />
    <path
       d="M129.715 370.836L130.256 370.836"
       stroke="#E5E5E5"
       stroke-width="1.59158"
       stroke-miterlimit="10"
       stroke-linecap="round"
       stroke-linejoin="round"
       id="path82" />
    <path
       d="M128.091 373.031L128.091 372.482"
       stroke="#E5E5E5"
       stroke-width="1.59158"
       stroke-miterlimit="10"
       stroke-linecap="round"
       stroke-linejoin="round"
       id="path83" />
    <path
       d="M128.091 369.189L128.091 368.64"
       stroke="#E5E5E5"
       stroke-width="1.59158"
       stroke-miterlimit="10"
       stroke-linecap="round"
       stroke-linejoin="round"
       id="path84" />
    <ellipse
       cx="0.592205"
       cy="0.53464"
       rx="0.592205"
       ry="0.53464"
       transform="matrix(0.965055 -0.00795318 -0.0252949 0.969737 125.368 359.345)"
       fill="#E5E5E5"
       id="ellipse84" />
    <ellipse
       cx="0.592191"
       cy="0.534635"
       rx="0.592191"
       ry="0.534635"
       transform="matrix(0.965058 -0.00796445 -0.0253054 0.96974 125.368 361.541)"
       fill="#E5E5E5"
       id="ellipse85" />
    <ellipse
       cx="0.5922"
       cy="0.534622"
       rx="0.5922"
       ry="0.534622"
       transform="matrix(0.965049 -0.00793061 -0.0252737 0.969732 125.368 363.736)"
       fill="#E5E5E5"
       id="ellipse86" />
    <ellipse
       cx="0.592205"
       cy="0.53464"
       rx="0.592205"
       ry="0.53464"
       transform="matrix(0.965055 -0.00795318 -0.0252949 0.969737 125.368 365.931)"
       fill="#E5E5E5"
       id="ellipse87" />
    <ellipse
       cx="0.592191"
       cy="0.534635"
       rx="0.592191"
       ry="0.534635"
       transform="matrix(0.965058 -0.00796445 -0.0253054 0.96974 127.533 361.541)"
       fill="#E5E5E5"
       id="ellipse88" />
    <ellipse
       cx="0.5922"
       cy="0.534622"
       rx="0.5922"
       ry="0.534622"
       transform="matrix(0.965049 -0.00793061 -0.0252737 0.969732 127.533 363.736)"
       fill="#E5E5E5"
       id="ellipse89" />
    <ellipse
       cx="0.592205"
       cy="0.53464"
       rx="0.592205"
       ry="0.53464"
       transform="matrix(0.965055 -0.00795318 -0.0252949 0.969737 127.533 365.931)"
       fill="#E5E5E5"
       id="ellipse90" />
    <ellipse
       cx="0.592191"
       cy="0.534635"
       rx="0.592191"
       ry="0.534635"
       transform="matrix(0.965058 -0.00796445 -0.0253054 0.96974 129.698 361.541)"
       fill="#E5E5E5"
       id="ellipse91" />
    <ellipse
       cx="0.5922"
       cy="0.534622"
       rx="0.5922"
       ry="0.534622"
       transform="matrix(0.965049 -0.00793061 -0.0252737 0.969732 129.698 363.736)"
       fill="#E5E5E5"
       id="ellipse92" />
    <ellipse
       cx="0.592205"
       cy="0.53464"
       rx="0.592205"
       ry="0.53464"
       transform="matrix(0.965055 -0.00795318 -0.0252949 0.969737 129.698 365.931)"
       fill="#E5E5E5"
       id="ellipse93" />
    <path
       d="M63.7389 362.388C62.8088 364.156 61.4718 365.689 59.8442 366.868"
       stroke="#E5E5E5"
       stroke-width="1.59158"
       stroke-miterlimit="10"
       stroke-linecap="round"
       stroke-linejoin="round"
       id="path93" />
    <path
       d="M65.2495 357.79C65.1915 358.379 65.0755 358.969 64.9015 359.558"
       stroke="#E5E5E5"
       stroke-width="1.59158"
       stroke-miterlimit="10"
       stroke-linecap="round"
       stroke-linejoin="round"
       id="path94" />
    <path
       d="M44.4396 373.057H59.5535"
       stroke="#E5E5E5"
       stroke-width="1.59158"
       stroke-miterlimit="10"
       stroke-linecap="round"
       stroke-linejoin="round"
       id="path95" />
    <path
       d="M67.6918 355.962C67.6918 353.192 66.9942 350.598 65.7735 348.299H38.2197C36.9989 350.539 36.3014 353.192 36.3014 355.962C36.3014 362.623 40.3705 368.341 46.1254 370.699H45.6022V373.057H58.3909V370.699H57.8677C63.6227 368.341 67.6918 362.623 67.6918 355.962Z"
       stroke="#E5E5E5"
       stroke-width="1.59158"
       stroke-miterlimit="10"
       stroke-linecap="round"
       stroke-linejoin="round"
       id="path96" />
    <path
       d="M66.5292 345.941H37.464V348.299H66.5292V345.941Z"
       stroke="#E5E5E5"
       stroke-width="1.59158"
       stroke-miterlimit="10"
       stroke-linecap="round"
       stroke-linejoin="round"
       id="path97" />
    <path
       fill-rule="evenodd"
       clip-rule="evenodd"
       d="M51.9106 358.928C54.5168 359.32 56.3907 361.373 56.372 361.872C56.3534 362.371 54.2657 364.42 51.6914 364.805C51.1243 365.303 50.0633 365.967 48.7628 366.52L48.8393 364.469C47.4561 363.968 46.3921 363.079 45.9273 362.469C45.3601 362.967 44.2992 363.631 42.9377 364.184C42.9666 363.408 43.3654 362.521 43.7538 361.912C43.415 361.191 43.0824 360.303 43.1093 359.582C44.4295 360.139 45.4408 360.805 45.9707 361.305C46.481 360.696 47.6111 359.81 49.0316 359.313L49.1081 357.261C50.3693 357.762 51.3806 358.428 51.9106 358.928Z"
       stroke="#E5E5E5"
       stroke-width="1.59158"
       stroke-miterlimit="10"
       stroke-linecap="round"
       stroke-linejoin="round"
       id="path98" />
    <path
       d="M36.5339 353.133L36.5926 353.133L36.5339 353.133Z"
       stroke="#E5E5E5"
       stroke-width="1.59158"
       stroke-miterlimit="10"
       stroke-linecap="round"
       stroke-linejoin="round"
       id="path99" />
    <path
       d="M39.4786 353.147C40.6472 353.672 42.4689 353.683 43.6509 353.172"
       stroke="#E5E5E5"
       stroke-width="1.59158"
       stroke-miterlimit="10"
       stroke-linecap="round"
       stroke-linejoin="round"
       id="path100" />
    <path
       d="M53.4299 353.147C54.5985 353.672 56.4202 353.683 57.6022 353.172"
       stroke="#E5E5E5"
       stroke-width="1.59158"
       stroke-miterlimit="10"
       stroke-linecap="round"
       stroke-linejoin="round"
       id="path101" />
    <path
       d="M46.4543 353.147C47.6228 353.672 49.4445 353.683 50.6266 353.172"
       stroke="#E5E5E5"
       stroke-width="1.59158"
       stroke-miterlimit="10"
       stroke-linecap="round"
       stroke-linejoin="round"
       id="path102" />
    <path
       d="M39.5248 353.109L38.0514 352.394L36.551 353.107"
       stroke="#E5E5E5"
       stroke-width="1.59158"
       stroke-miterlimit="10"
       stroke-linecap="round"
       stroke-linejoin="round"
       id="path103" />
    <path
       d="M60.4055 353.147C61.5741 353.672 63.3958 353.683 64.5778 353.172"
       stroke="#E5E5E5"
       stroke-width="1.59158"
       stroke-miterlimit="10"
       stroke-linecap="round"
       stroke-linejoin="round"
       id="path104" />
    <path
       d="M46.5017 353.108L45.0274 352.391L43.5272 353.109"
       stroke="#E5E5E5"
       stroke-width="1.59158"
       stroke-miterlimit="10"
       stroke-linecap="round"
       stroke-linejoin="round"
       id="path105" />
    <path
       d="M67.4286 353.108L65.9543 352.391L64.4541 353.109"
       stroke="#E5E5E5"
       stroke-width="1.59158"
       stroke-miterlimit="10"
       stroke-linecap="round"
       stroke-linejoin="round"
       id="path106" />
    <path
       d="M67.4599 353.133L67.4011 353.133C67.4011 353.133 67.4011 353.133 67.4599 353.133Z"
       stroke="#E5E5E5"
       stroke-width="1.59158"
       stroke-miterlimit="10"
       stroke-linecap="round"
       stroke-linejoin="round"
       id="path107" />
    <path
       d="M60.453 353.108L58.9787 352.39L57.4785 353.109"
       stroke="#E5E5E5"
       stroke-width="1.59158"
       stroke-miterlimit="10"
       stroke-linecap="round"
       stroke-linejoin="round"
       id="path108" />
    <path
       d="M53.4774 353.108L52.0031 352.39L50.5029 353.109"
       stroke="#E5E5E5"
       stroke-width="1.59158"
       stroke-miterlimit="10"
       stroke-linecap="round"
       stroke-linejoin="round"
       id="path109" />
    <path
       d="M186.836 351.303C183.835 354.641 183.003 358.014 185.468 361.882C186.289 363.171 185.901 364.883 184.506 365.826L178.922 369.7C178.108 370.224 178.022 371.313 178.691 371.93L181.089 374.036C181.757 374.653 182.9 374.593 183.548 373.863L187.906 368.858C188.966 367.659 190.86 367.282 192.266 368.049C197.948 371.168 202.805 368.853 207.74 363.636C212.733 358.367 213.312 351.68 208.576 347.363C204.733 343.816 199.151 343.339 194.006 345.759"
       stroke="#E5E5E5"
       stroke-width="1.59158"
       stroke-miterlimit="10"
       stroke-linecap="round"
       stroke-linejoin="round"
       id="path110" />
    <path
       d="M184.651 356.192L198.98 369.439"
       stroke="#E5E5E5"
       stroke-width="1.59158"
       stroke-miterlimit="10"
       stroke-linecap="round"
       stroke-linejoin="round"
       id="path111" />
    <path
       d="M190.22 351.934C192.744 351.913 194.837 350.041 194.897 347.752C194.957 345.463 192.96 343.624 190.437 343.645C187.914 343.666 185.82 345.538 185.76 347.827C185.7 350.116 187.697 351.955 190.22 351.934Z"
       stroke="#E5E5E5"
       stroke-width="1.59158"
       stroke-miterlimit="10"
       stroke-linecap="round"
       stroke-linejoin="round"
       id="path112" />
    <path
       d="M188.02 347.9C187.978 347.329 188.223 346.703 188.751 346.231C189.162 345.863 189.741 345.651 190.258 345.594"
       stroke="#E5E5E5"
       stroke-width="1.59158"
       stroke-miterlimit="10"
       stroke-linecap="round"
       stroke-linejoin="round"
       id="path113" />
    <path
       d="M52.381 299.74L65.5824 309.253C66.3516 309.771 67.1961 310.093 68.19 310.09L69.2549 310.087C69.9648 310.085 70.2664 309.304 69.7073 308.916L52.456 296.425L34.6389 308.956C34.0622 309.348 34.3285 310.127 35.0385 310.125L36.1033 310.121C37.0262 310.119 37.955 309.856 38.7491 309.269L52.381 299.74Z"
       stroke="#E5E5E5"
       stroke-width="1.59158"
       stroke-miterlimit="10"
       stroke-linecap="round"
       stroke-linejoin="round"
       id="path114" />
    <path
       d="M52.3106 295.912L52.3106 292.429"
       stroke="#E5E5E5"
       stroke-width="1.59158"
       stroke-miterlimit="10"
       stroke-linecap="round"
       stroke-linejoin="round"
       id="path115" />
    <path
       d="M64.6103 309.152L40.0108 309.152"
       stroke="#E5E5E5"
       stroke-width="1.59158"
       stroke-miterlimit="10"
       stroke-linecap="round"
       stroke-linejoin="round"
       id="path116" />
    <path
       d="M52.2247 292.236C50.193 292.253 48.6344 290.818 48.6825 288.975C48.7306 287.132 50.3647 285.67 52.3964 285.654C54.428 285.637 55.9866 287.072 55.9385 288.915"
       stroke="#E5E5E5"
       stroke-width="1.59158"
       stroke-miterlimit="10"
       stroke-linecap="round"
       stroke-linejoin="round"
       id="path117" />
    <path
       d="M207.128 311.282L178.762 311.466C177.514 311.474 176.517 310.553 176.547 309.419L177.03 290.861C177.06 289.727 178.105 288.793 179.353 288.785L207.72 288.6C208.968 288.592 209.965 289.514 209.935 290.648L209.452 309.205C209.422 310.339 208.377 311.273 207.128 311.282Z"
       stroke="#E5E5E5"
       stroke-width="1.59158"
       stroke-miterlimit="10"
       stroke-linecap="round"
       stroke-linejoin="round"
       id="path118" />
    <path
       d="M190.708 299.804C190.708 299.804 177.287 299.857 177.398 294.739"
       stroke="#E5E5E5"
       stroke-width="1.59158"
       stroke-miterlimit="10"
       stroke-linecap="round"
       stroke-linejoin="round"
       id="path119" />
    <path
       d="M209.22 294.686C209.109 299.804 195.688 299.857 195.688 299.857"
       stroke="#E5E5E5"
       stroke-width="1.59158"
       stroke-miterlimit="10"
       stroke-linecap="round"
       stroke-linejoin="round"
       id="path120" />
    <path
       d="M196.069 298.982L190.482 299.002L190.438 301.049L196.025 301.029L196.069 298.982Z"
       stroke="#E5E5E5"
       stroke-width="1.59158"
       stroke-miterlimit="10"
       stroke-linecap="round"
       stroke-linejoin="round"
       id="path121" />
    <path
       d="M188.714 287.819L188.785 284.745C188.798 284.182 189.314 283.718 189.931 283.715L196.67 283.68C197.288 283.677 197.783 284.135 197.77 284.698L197.699 287.772"
       stroke="#E5E5E5"
       stroke-width="1.59158"
       stroke-miterlimit="10"
       stroke-linecap="round"
       stroke-linejoin="round"
       id="path122" />
    <path
       fill-rule="evenodd"
       clip-rule="evenodd"
       d="M129.52 292.618H110.036C108.846 292.618 107.872 291.63 107.872 290.423V283.837C107.872 282.629 108.846 281.641 110.036 281.641H129.52C130.711 281.641 131.685 282.629 131.685 283.837V290.423C131.685 291.63 130.711 292.618 129.52 292.618Z"
       stroke="#E5E5E5"
       stroke-width="1.59158"
       stroke-miterlimit="10"
       stroke-linecap="round"
       stroke-linejoin="round"
       id="path123" />
    <path
       fill-rule="evenodd"
       clip-rule="evenodd"
       d="M123.026 301.399H121.943H116.531H115.449V303.594H116.531V312.375C116.531 312.979 117.018 313.473 117.613 313.473H120.861C121.456 313.473 121.943 312.979 121.943 312.375V303.594H123.026V301.399Z"
       stroke="#E5E5E5"
       stroke-width="1.59158"
       stroke-miterlimit="10"
       stroke-linecap="round"
       stroke-linejoin="round"
       id="path124" />
    <path
       d="M121.943 311.278H116.531"
       stroke="#E5E5E5"
       stroke-width="1.59158"
       stroke-miterlimit="10"
       stroke-linecap="round"
       stroke-linejoin="round"
       id="path125" />
    <path
       d="M121.943 303.594H116.531"
       stroke="#E5E5E5"
       stroke-width="1.59158"
       stroke-miterlimit="10"
       stroke-linecap="round"
       stroke-linejoin="round"
       id="path126" />
    <path
       d="M131.685 287.13H132.767C133.363 287.13 133.85 287.624 133.85 288.227V294.813C133.85 295.417 133.363 295.911 132.767 295.911H120.32C119.724 295.911 119.237 296.405 119.237 297.008V301.399"
       stroke="#E5E5E5"
       stroke-width="1.59158"
       stroke-miterlimit="10"
       stroke-linecap="round"
       stroke-linejoin="round"
       id="path127" />
    <path
       d="M104.374 181.532C108.091 185.123 114.234 187.25 120.718 187.203C127.203 187.157 133.46 184.941 137.366 181.295M114.408 169.728L107.889 184.143M133.483 184.062L127.376 169.687C127.107 169.068 127.469 168.29 128.158 168.027C128.906 167.712 129.751 168.016 130.018 168.686L130.824 170.489L130.803 171.264C130.79 171.781 131.234 172.191 131.803 172.187C132.315 172.184 132.721 171.871 132.847 171.405L133.649 166.851C133.719 166.333 133.62 165.765 133.29 165.354C133.29 165.354 133.073 164.942 132.963 164.788L134.594 163.329L133.877 162.456C133.1 161.738 131.501 162.008 130.685 162.737C130.404 162.636 130.12 162.586 129.836 162.588L128.698 162.596C124.319 162.628 120.384 165.189 118.864 168.972L118.56 169.698L113.213 169.736C111.279 169.75 109.489 170.797 108.708 172.405L107.386 175.102M109.798 185.059L113.33 180.486C113.505 180.329 113.735 180.224 113.91 180.068L115.692 179.332C115.924 179.175 116.098 179.019 116.33 178.862L117.209 177.874C120.211 178.317 123.226 178.296 126.087 177.655L131.296 185.06"
       stroke="#E5E5E5"
       stroke-width="1.59158"
       stroke-miterlimit="10"
       stroke-linecap="round"
       stroke-linejoin="round"
       id="path128" />
    <path
       d="M193.017 176.216L206.229 185.714C206.999 186.231 207.844 186.552 208.838 186.548L209.903 186.544C210.613 186.541 210.914 185.76 210.355 185.373L193.089 172.903L175.278 185.448C174.701 185.84 174.968 186.618 175.678 186.615L176.743 186.611C177.667 186.608 178.595 186.344 179.389 185.756L193.017 176.216Z"
       stroke="#E5E5E5"
       stroke-width="1.59158"
       stroke-miterlimit="10"
       stroke-linecap="round"
       stroke-linejoin="round"
       id="path129" />
    <path
       d="M192.94 172.406L192.94 168.922"
       stroke="#E5E5E5"
       stroke-width="1.59158"
       stroke-miterlimit="10"
       stroke-linecap="round"
       stroke-linejoin="round"
       id="path130" />
    <path
       d="M205.239 185.645L180.64 185.645"
       stroke="#E5E5E5"
       stroke-width="1.59158"
       stroke-miterlimit="10"
       stroke-linecap="round"
       stroke-linejoin="round"
       id="path131" />
    <path
       d="M192.854 168.729C190.822 168.746 189.263 167.311 189.311 165.468C189.36 163.625 190.994 162.164 193.025 162.147C195.057 162.13 196.616 163.565 196.567 165.408"
       stroke="#E5E5E5"
       stroke-width="1.59158"
       stroke-miterlimit="10"
       stroke-linecap="round"
       stroke-linejoin="round"
       id="path132" />
    <path
       d="M65.8716 187.774L37.5055 187.959C36.2574 187.967 35.2604 187.046 35.29 185.911L35.7735 167.354C35.8031 166.22 36.8484 165.286 38.0965 165.278L66.4626 165.093C67.7107 165.085 68.7077 166.006 68.6782 167.141L68.1946 185.698C68.1651 186.832 67.1197 187.766 65.8716 187.774Z"
       stroke="#E5E5E5"
       stroke-width="1.59158"
       stroke-miterlimit="10"
       stroke-linecap="round"
       stroke-linejoin="round"
       id="path133" />
    <path
       d="M49.4506 176.297C49.4506 176.297 36.0299 176.35 36.1414 171.232"
       stroke="#E5E5E5"
       stroke-width="1.59158"
       stroke-miterlimit="10"
       stroke-linecap="round"
       stroke-linejoin="round"
       id="path134" />
    <path
       d="M67.9633 171.18C67.8518 176.297 54.4312 176.35 54.4312 176.35"
       stroke="#E5E5E5"
       stroke-width="1.59158"
       stroke-miterlimit="10"
       stroke-linecap="round"
       stroke-linejoin="round"
       id="path135" />
    <path
       d="M54.812 175.475L49.2252 175.495L49.1812 177.542L54.7681 177.522L54.812 175.475Z"
       stroke="#E5E5E5"
       stroke-width="1.59158"
       stroke-miterlimit="10"
       stroke-linecap="round"
       stroke-linejoin="round"
       id="path136" />
    <path
       d="M47.4569 164.312L47.5278 161.238C47.5408 160.675 48.0568 160.211 48.6745 160.208L55.4133 160.173C56.031 160.17 56.5258 160.628 56.5128 161.192L56.4419 164.265"
       stroke="#E5E5E5"
       stroke-width="1.59158"
       stroke-miterlimit="10"
       stroke-linecap="round"
       stroke-linejoin="round"
       id="path137" />
    <path
       d="m 59.0522,89.16065 2.6807,-5.291 h 2.9355 l -4.2627,7.8486 v 5.001 h -2.707 v -4.9131 l -4.2627,-7.9365 h 2.9531 z m 9.1582,2.6279 c 0,0.9727 0.1582,1.708 0.4746,2.2061 0.3223,0.498 0.8438,0.7471 1.5645,0.7471 0.7148,0 1.2275,-0.2461 1.5381,-0.7383 0.3164,-0.4981 0.4746,-1.2363 0.4746,-2.2149 0,-0.9726 -0.1582,-1.7021 -0.4746,-2.1884 -0.3164,-0.4864 -0.835,-0.7295 -1.5557,-0.7295 -0.7148,0 -1.2305,0.2431 -1.5469,0.7295 -0.3164,0.4804 -0.4746,1.2099 -0.4746,2.1884 z m 6.794,0 c 0,1.5996 -0.4219,2.8506 -1.2657,3.753 -0.8437,0.9023 -2.0185,1.3535 -3.5244,1.3535 -0.9433,0 -1.7754,-0.2051 -2.4961,-0.6153 -0.7207,-0.416 -1.2744,-1.0107 -1.6611,-1.7841 -0.3867,-0.7735 -0.5801,-1.6758 -0.5801,-2.7071 0,-1.6054 0.419,-2.8535 1.2569,-3.7441 0.8378,-0.8906 2.0156,-1.3359 3.5332,-1.3359 0.9433,0 1.7753,0.205 2.496,0.6152 0.7208,0.4101 1.2745,0.999 1.6612,1.7666 0.3867,0.7676 0.5801,1.667 0.5801,2.6982 z m 9.1757,4.9307 -0.3603,-1.2568 h -0.1406 c -0.2871,0.457 -0.6944,0.8115 -1.2217,1.0634 -0.5274,0.2461 -1.1279,0.3692 -1.8018,0.3692 -1.1543,0 -2.0244,-0.3076 -2.6103,-0.9229 -0.586,-0.6211 -0.8789,-1.5117 -0.8789,-2.6718 v -6.4073 h 2.6806 v 5.7393 c 0,0.709 0.126,1.2422 0.378,1.5996 0.2519,0.3516 0.6533,0.5273 1.2041,0.5273 0.75,0 1.292,-0.249 1.6259,-0.747 0.334,-0.5039 0.501,-1.336 0.501,-2.4961 v -4.6231 h 2.6807 v 9.8262 z m 10.3536,-10.0107 c 0.3632,0 0.665,0.0263 0.9052,0.0791 l -0.2021,2.5136 c -0.2168,-0.0586 -0.4805,-0.0879 -0.791,-0.0879 -0.8555,0 -1.5235,0.2198 -2.0039,0.6592 -0.4747,0.4395 -0.712,1.0547 -0.712,1.8457 v 5.001 h -2.6806 v -9.8262 h 2.0303 l 0.3955,1.6524 h 0.1318 c 0.3047,-0.5508 0.7148,-0.9932 1.2305,-1.3272 0.5215,-0.3398 1.0869,-0.5097 1.6963,-0.5097 z m 15.4423,10.0107 -0.9316,-3.0586 h -4.6846 l -0.9316,3.0586 h -2.9356 l 4.5352,-12.9023 h 3.3311 l 4.5527,12.9023 z m -1.582,-5.3438 c -0.8613,-2.7714 -1.3476,-4.3388 -1.459,-4.7021 -0.1054,-0.3633 -0.1816,-0.6504 -0.2285,-0.8613 -0.1934,0.75 -0.7471,2.6045 -1.6611,5.5634 z m 9.044,5.5196 c -1.1543,0 -2.0625,-0.4483 -2.7247,-1.3447 -0.6562,-0.8965 -0.9843,-2.1387 -0.9843,-3.7266 0,-1.6113 0.334,-2.8652 1.0019,-3.7617 0.6739,-0.9024 1.5996,-1.3535 2.7774,-1.3535 1.2367,0 2.1797,0.4804 2.8297,1.4414 h 0.088 c -0.135,-0.7325 -0.202,-1.3858 -0.202,-1.96 v -3.1465 h 2.69 v 13.6758 h -2.057 l -0.519,-1.2744 h -0.114 c -0.609,0.9668 -1.538,1.4502 -2.786,1.4502 z m 0.9404,-2.1358 c 0.6856,0 1.1866,-0.1992 1.5026,-0.5976 0.323,-0.3985 0.498,-1.0752 0.528,-2.0303 v -0.29 c 0,-1.0547 -0.164,-1.8106 -0.493,-2.2676 -0.322,-0.457 -0.849,-0.6856 -1.5816,-0.6856 -0.5976,0 -1.0634,0.2549 -1.3974,0.7647 -0.3281,0.5039 -0.4922,1.2393 -0.4922,2.206 0,0.9668 0.167,1.6934 0.501,2.1797 0.334,0.4805 0.8115,0.7207 1.4326,0.7207 z m 9.6766,1.96 -3.744,-9.8262 h 2.804 l 1.898,5.5987 c 0.211,0.7089 0.343,1.3798 0.396,2.0127 h 0.052 c 0.03,-0.5625 0.162,-1.2334 0.396,-2.0127 l 1.89,-5.5987 h 2.803 l -3.744,9.8262 z m 23.326,0 h -2.716 v -5.5459 h -5.088 v 5.5459 h -2.725 v -12.8496 h 2.725 v 5.0361 h 5.088 v -5.0361 h 2.716 z m 7.111,-8.1035 c -0.569,0 -1.014,0.1816 -1.336,0.5449 -0.323,0.3574 -0.507,0.8672 -0.554,1.5293 h 3.762 c -0.012,-0.6621 -0.185,-1.1719 -0.519,-1.5293 -0.334,-0.3633 -0.785,-0.5449 -1.353,-0.5449 z m 0.378,8.2793 c -1.582,0 -2.819,-0.4365 -3.709,-1.3096 -0.891,-0.873 -1.336,-2.1094 -1.336,-3.709 0,-1.6465 0.41,-2.9179 1.23,-3.8144 0.826,-0.9024 1.966,-1.3535 3.419,-1.3535 1.389,0 2.47,0.3955 3.243,1.1865 0.774,0.791 1.16,1.8838 1.16,3.2783 v 1.3008 h -6.337 c 0.03,0.7617 0.255,1.3564 0.677,1.7842 0.422,0.4277 1.014,0.6416 1.776,0.6416 0.591,0 1.151,-0.0616 1.678,-0.1846 0.528,-0.1231 1.078,-0.3193 1.653,-0.5889 v 2.0742 c -0.469,0.2344 -0.97,0.4073 -1.503,0.5186 -0.533,0.1172 -1.184,0.1758 -1.951,0.1758 z m 11.671,-10.1865 c 0.364,0 0.666,0.0263 0.906,0.0791 l -0.202,2.5136 c -0.217,-0.0586 -0.481,-0.0879 -0.791,-0.0879 -0.856,0 -1.524,0.2198 -2.004,0.6592 -0.475,0.4395 -0.712,1.0547 -0.712,1.8457 v 5.001 h -2.681 v -9.8262 h 2.03 l 0.396,1.6524 h 0.132 c 0.304,-0.5508 0.715,-0.9932 1.23,-1.3272 0.522,-0.3398 1.087,-0.5097 1.696,-0.5097 z m 6.759,1.9072 c -0.568,0 -1.013,0.1816 -1.336,0.5449 -0.322,0.3574 -0.507,0.8672 -0.553,1.5293 h 3.761 c -0.011,-0.6621 -0.184,-1.1719 -0.518,-1.5293 -0.334,-0.3633 -0.785,-0.5449 -1.354,-0.5449 z m 0.378,8.2793 c -1.582,0 -2.818,-0.4365 -3.709,-1.3096 -0.89,-0.873 -1.336,-2.1094 -1.336,-3.709 0,-1.6465 0.41,-2.9179 1.231,-3.8144 0.826,-0.9024 1.966,-1.3535 3.419,-1.3535 1.388,0 2.469,0.3955 3.243,1.1865 0.773,0.791 1.16,1.8838 1.16,3.2783 v 1.3008 h -6.337 c 0.029,0.7617 0.255,1.3564 0.677,1.7842 0.422,0.4277 1.014,0.6416 1.775,0.6416 0.592,0 1.152,-0.0616 1.679,-0.1846 0.527,-0.1231 1.078,-0.3193 1.652,-0.5889 v 2.0742 c -0.468,0.2344 -0.969,0.4073 -1.503,0.5186 -0.533,0.1172 -1.183,0.1758 -1.951,0.1758 z m 8.438,-4.4385 h -2.145 l -0.448,-8.5869 h 3.041 z m -2.628,3.0059 c 0,-0.4922 0.132,-0.8643 0.395,-1.1162 0.264,-0.252 0.648,-0.378 1.152,-0.378 0.486,0 0.861,0.1289 1.125,0.3867 0.269,0.2579 0.404,0.627 0.404,1.1075 0,0.4629 -0.135,0.8291 -0.404,1.0986 -0.27,0.2637 -0.645,0.3955 -1.125,0.3955 -0.493,0 -0.873,-0.1289 -1.143,-0.3867 -0.269,-0.2637 -0.404,-0.6328 -0.404,-1.1074 z"
       fill="#333333"
       id="path139" />
  </g>
</svg>
