<?xml version="1.0" encoding="UTF-8" standalone="no"?>
<svg
   width="1240"
   height="90"
   viewBox="0 0 1240 90"
   fill="none"
   version="1.1"
   id="svg123"
   sodipodi:docname="Main Page_ Banner №1 (100%x100) ru.svg"
   inkscape:version="1.4 (86a8ad7, 2024-10-11)"
   xmlns:inkscape="http://www.inkscape.org/namespaces/inkscape"
   xmlns:sodipodi="http://sodipodi.sourceforge.net/DTD/sodipodi-0.dtd"
   xmlns="http://www.w3.org/2000/svg"
   xmlns:svg="http://www.w3.org/2000/svg">
  <defs
     id="defs123" />
  <sodipodi:namedview
     id="namedview123"
     pagecolor="#ffffff"
     bordercolor="#000000"
     borderopacity="0.25"
     inkscape:showpageshadow="2"
     inkscape:pageopacity="0.0"
     inkscape:pagecheckerboard="0"
     inkscape:deskcolor="#d1d1d1"
     inkscape:zoom="1.466129"
     inkscape:cx="620"
     inkscape:cy="44.675468"
     inkscape:window-width="1920"
     inkscape:window-height="1129"
     inkscape:window-x="1912"
     inkscape:window-y="-8"
     inkscape:window-maximized="1"
     inkscape:current-layer="g123" />
  <mask
     id="mask0_1_116542"
     style="mask-type:alpha"
     maskUnits="userSpaceOnUse"
     x="0"
     y="0"
     width="1240"
     height="90">
    <rect
       x="0.5"
       y="0.5"
       width="1239"
       height="89"
       rx="3.5"
       fill="white"
       stroke="#E5E5E5"
       id="rect1" />
  </mask>
  <g
     mask="url(#mask0_1_116542)"
     id="g123">
    <rect
       x="0.5"
       y="0.5"
       width="1239"
       height="89"
       rx="3.5"
       fill="white"
       stroke="#E5E5E5"
       id="rect2" />
    <path
       d="M-1.47271 29.289C-2.24732 29.747 -3.02395 30.0163 -3.80261 30.0969L-1.9744 33.3838C-1.53722 34.1698 -0.482383 34.4007 0.369684 33.8969L3.46811 32.0649C4.32017 31.5611 4.65963 30.5059 4.22244 29.7198L2.6327 26.8616L-1.47271 29.289Z"
       stroke="#EBEBEB"
       stroke-width="2.5"
       stroke-miterlimit="10"
       stroke-linecap="round"
       stroke-linejoin="round"
       id="path2" />
    <path
       d="M30.4042 10.8568L26.2988 13.2842L27.8886 16.1425C28.3258 16.9285 29.3806 17.1594 30.2327 16.6556L33.3311 14.8236C34.1832 14.3198 34.5226 13.2645 34.0854 12.4784L32.2572 9.19145C31.7965 9.84368 31.1788 10.3988 30.4042 10.8568Z"
       stroke="#EBEBEB"
       stroke-width="2.5"
       stroke-miterlimit="10"
       stroke-linecap="round"
       stroke-linejoin="round"
       id="path3" />
    <path
       d="M-0.639359 33.6341L-1.16272 33.9363"
       stroke="#EBEBEB"
       stroke-width="2.5"
       stroke-miterlimit="10"
       stroke-linecap="round"
       stroke-linejoin="round"
       id="path4" />
    <path
       d="M4.36272 30.7462L3.83936 31.0484"
       stroke="#EBEBEB"
       stroke-width="2.5"
       stroke-miterlimit="10"
       stroke-linecap="round"
       stroke-linejoin="round"
       id="path5" />
    <path
       d="M3.29174 28.3757L2.54517 28.8067"
       stroke="#EBEBEB"
       stroke-width="2.5"
       stroke-miterlimit="10"
       stroke-linecap="round"
       stroke-linejoin="round"
       id="path6" />
    <path
       d="M29.2236 16.3927L28.7003 16.6949"
       stroke="#EBEBEB"
       stroke-width="2.5"
       stroke-miterlimit="10"
       stroke-linecap="round"
       stroke-linejoin="round"
       id="path7" />
    <path
       d="M27.9286 14.1516L27.1821 14.5826"
       stroke="#EBEBEB"
       stroke-width="2.5"
       stroke-miterlimit="10"
       stroke-linecap="round"
       stroke-linejoin="round"
       id="path8" />
    <path
       d="M34.2257 13.5047L33.7023 13.8069"
       stroke="#EBEBEB"
       stroke-width="2.5"
       stroke-miterlimit="10"
       stroke-linecap="round"
       stroke-linejoin="round"
       id="path9" />
    <path
       d="M33.1547 11.1343L32.4081 11.5654"
       stroke="#EBEBEB"
       stroke-width="2.5"
       stroke-miterlimit="10"
       stroke-linecap="round"
       stroke-linejoin="round"
       id="path10" />
    <path
       d="M22.9281 -8.53363L21.4112 -9.05268L15.9672 -14.4226C13.8141 -16.453 10.4783 -16.7464 7.70576 -15.1079L-12.1642 -3.36547C-14.9367 -1.72699 -16.4529 1.43378 -15.7631 4.32889L-14.0158 11.8835L-14.3473 13.4949C-14.8248 15.9474 -14.6426 18.482 -13.8048 20.7234L-13.6072 21.0785C-12.971 22.5898 -12.1433 23.8936 -10.9679 25.0863L-10.6538 25.4669C-9.16442 27.0401 -6.56531 27.2971 -4.40888 26.0227L28.3996 6.634C30.5561 5.35962 31.6537 2.91804 31.0884 0.79859L30.9284 0.326991C30.5627 -1.24984 29.8495 -2.71564 28.9052 -4.04489L28.5911 -4.42546C27.2537 -6.27732 25.2232 -7.71955 22.9281 -8.53363Z"
       stroke="#EBEBEB"
       stroke-width="2.5"
       stroke-miterlimit="10"
       stroke-linecap="round"
       stroke-linejoin="round"
       id="path11" />
    <path
       d="M-11.7416 23.1995C-10.8473 24.9749 -9.26047 27.4482 -8.29832 28.4479L-8.22072 28.5864C-6.68245 30.0762 -4.12978 30.3274 -2.0117 29.0856L30.2135 10.1921C32.3316 8.95027 33.4099 6.57025 32.8551 4.50385L32.7775 4.36536C32.4205 3.01084 31.1362 0.360176 30.0906 -1.32653"
       stroke="#EBEBEB"
       stroke-width="2.5"
       stroke-miterlimit="10"
       stroke-linecap="round"
       stroke-linejoin="round"
       id="path12" />
    <path
       d="M-13.5824 11.3558L-11.2516 11.0821C-10.1236 10.9669 -8.99895 10.4945 -8.02573 9.93027L16.7541 -4.43614C17.8022 -5.04378 18.6606 -5.81086 19.3677 -6.66975L20.8549 -8.60956"
       stroke="#EBEBEB"
       stroke-width="2.5"
       stroke-miterlimit="10"
       stroke-linecap="round"
       stroke-linejoin="round"
       id="path13" />
    <path
       d="M5.88573 -7.09955L3.88539 -0.972714"
       stroke="#EBEBEB"
       stroke-width="2.5"
       stroke-miterlimit="10"
       stroke-linecap="round"
       stroke-linejoin="round"
       id="path14" />
    <path
       d="M-1.3259 19.8905L-6.8488 23.1516C-7.30905 23.4234 -7.77328 23.3218 -8.0094 22.8978L-9.18997 20.7775C-9.42609 20.3534 -9.27667 19.8896 -8.81643 19.6178L-5.05778 17.3984C-4.52083 17.0814 -3.82647 17.047 -3.36024 17.3352L-1.22582 18.4227C-0.643524 18.7363 -0.71224 19.5281 -1.3259 19.8905Z"
       stroke="#EBEBEB"
       stroke-width="2.5"
       stroke-miterlimit="10"
       stroke-linecap="round"
       stroke-linejoin="round"
       id="path15" />
    <path
       d="M22.1192 6.42648L27.6421 3.16542C28.1023 2.89367 28.2518 2.4298 28.0156 2.00575L26.8351 -0.114492C26.5989 -0.538541 26.1347 -0.640071 25.6745 -0.368316L21.9158 1.85102C21.3789 2.16806 20.9993 2.76781 21.0053 3.32773L20.8385 5.77399C20.8072 6.44988 21.5055 6.78882 22.1192 6.42648Z"
       stroke="#EBEBEB"
       stroke-width="2.5"
       stroke-miterlimit="10"
       stroke-linecap="round"
       stroke-linejoin="round"
       id="path16" />
    <path
       d="M11.7097 6.62128L13.8352 12.2828"
       stroke="#EBEBEB"
       stroke-width="2.5"
       stroke-miterlimit="10"
       stroke-linecap="round"
       stroke-linejoin="round"
       id="path17" />
    <path
       d="M4.1701 10.9753L7.93654 15.6873"
       stroke="#EBEBEB"
       stroke-width="2.5"
       stroke-miterlimit="10"
       stroke-linecap="round"
       stroke-linejoin="round"
       id="path18" />
    <path
       d="M7.90289 8.77643L10.9228 14.0069"
       stroke="#EBEBEB"
       stroke-width="2.5"
       stroke-miterlimit="10"
       stroke-linecap="round"
       stroke-linejoin="round"
       id="path19" />
    <path
       d="M17.0105 10.1683L4.54372 17.5019C4.23966 17.6808 3.81861 17.6503 3.51061 17.4605L0.49674 14.5967C0.110751 14.2673 0.217887 13.5551 0.750004 13.2421L15.4212 4.61173C15.9534 4.29871 16.4914 4.53862 16.6883 5.07193L17.5737 9.18786C17.5777 9.55648 17.3906 9.94474 17.0105 10.1683Z"
       stroke="#EBEBEB"
       stroke-width="2.5"
       stroke-miterlimit="10"
       stroke-linecap="round"
       stroke-linejoin="round"
       id="path20" />
    <path
       d="M612.295 112.526L616.917 109.795C617.764 109.294 618.102 108.246 617.667 107.465L604.243 83.3368C603.808 82.5562 602.76 82.3272 601.912 82.8279L560.317 107.41C559.47 107.911 559.132 108.959 559.566 109.74L572.991 133.868C573.425 134.649 574.474 134.878 575.321 134.377L599.97 119.81"
       stroke="#EBEBEB"
       stroke-width="2.5"
       stroke-miterlimit="10"
       stroke-linecap="round"
       stroke-linejoin="round"
       id="path21" />
    <path
       d="M610.672 109.685L613.747 107.869L601.925 86.6279L563.487 109.336L575.309 130.577L598.372 116.952"
       stroke="#EBEBEB"
       stroke-width="2.5"
       stroke-miterlimit="10"
       stroke-linecap="round"
       stroke-linejoin="round"
       id="path22" />
    <path
       d="M797.785 1.72714L823.403 4.02442C824.866 4.10864 826.277 3.86851 827.634 3.06878L829.088 2.21192C830.057 1.64068 829.848 0.343307 828.775 0.265862L795.252 -2.81558L780.852 28.3961C780.375 29.3875 781.359 30.2279 782.328 29.6566L783.781 28.7998C785.041 28.0572 786.102 26.9583 786.721 25.5282L797.785 1.72714Z"
       stroke="#EBEBEB"
       stroke-width="2.5"
       stroke-miterlimit="10"
       stroke-linecap="round"
       stroke-linejoin="round"
       id="path23" />
    <path
       d="M822.083 4.79532L788.15 24.387"
       stroke="#EBEBEB"
       stroke-width="2.5"
       stroke-miterlimit="10"
       stroke-linecap="round"
       stroke-linejoin="round"
       id="path24" />
    <path
       d="M419.279 -2.10686C419.385 1.03951 418.744 4.1892 417.425 7.08925"
       stroke="#EBEBEB"
       stroke-width="2.5"
       stroke-miterlimit="10"
       stroke-linecap="round"
       stroke-linejoin="round"
       id="path25" />
    <path
       d="M401.036 27.7774L421.885 15.7404"
       stroke="#EBEBEB"
       stroke-width="2.5"
       stroke-miterlimit="10"
       stroke-linecap="round"
       stroke-linejoin="round"
       id="path26" />
    <path
       d="M419.685 -13.9955C417.51 -17.7643 414.51 -20.737 411.021 -22.8921L373.012 -0.947639C373.087 3.07171 374.208 7.2357 376.384 11.0045C381.616 20.0657 391.72 24.6032 401.51 23.2273L400.788 23.644L402.64 26.8515L420.281 16.6663L418.43 13.4588L417.708 13.8755C423.795 6.08464 424.917 -4.93429 419.685 -13.9955Z"
       stroke="#EBEBEB"
       stroke-width="2.5"
       stroke-miterlimit="10"
       stroke-linecap="round"
       stroke-linejoin="round"
       id="path27" />
    <path
       d="M410.211 -26.7014L370.118 -3.55328L371.969 -0.345782L412.063 -23.4939L410.211 -26.7014Z"
       stroke="#EBEBEB"
       stroke-width="2.5"
       stroke-miterlimit="10"
       stroke-linecap="round"
       stroke-linejoin="round"
       id="path28" />
    <path
       fill-rule="evenodd"
       clip-rule="evenodd"
       d="M400.145 2.61747C404.026 1.02327 408.252 2.25447 408.631 2.93889C409.009 3.62331 407.815 8.06903 404.607 10.6784C404.235 11.8079 403.323 13.5612 401.993 15.3602L400.435 12.5465C398.138 12.9995 395.964 12.6729 394.834 12.2321C394.462 13.3616 393.549 15.1149 392.136 16.9633C391.546 15.8987 391.373 14.3852 391.411 13.2519C390.363 12.5601 389.189 11.64 388.642 10.6514C390.897 10.3239 392.82 10.3957 393.95 10.6351C394.154 9.40293 394.981 7.29601 396.52 5.47414L394.963 2.66041C397.093 2.30629 399.016 2.37813 400.145 2.61747Z"
       stroke="#EBEBEB"
       stroke-width="2.5"
       stroke-miterlimit="10"
       stroke-linecap="round"
       stroke-linejoin="round"
       id="path29" />
    <path
       d="M374.483 6.9704L374.562 6.92441L374.483 6.9704Z"
       stroke="#EBEBEB"
       stroke-width="2.5"
       stroke-miterlimit="10"
       stroke-linecap="round"
       stroke-linejoin="round"
       id="path30" />
    <path
       d="M378.572 4.66034C380.6 4.45372 383.102 2.99621 384.303 1.32219"
       stroke="#EBEBEB"
       stroke-width="2.5"
       stroke-miterlimit="10"
       stroke-linecap="round"
       stroke-linejoin="round"
       id="path31" />
    <path
       d="M388.195 -0.895203C390.223 -1.10183 392.725 -2.55933 393.925 -4.23335"
       stroke="#EBEBEB"
       stroke-width="2.5"
       stroke-miterlimit="10"
       stroke-linecap="round"
       stroke-linejoin="round"
       id="path32" />
    <path
       d="M378.572 4.53537L375.996 4.76101L374.503 6.92399"
       stroke="#EBEBEB"
       stroke-width="2.5"
       stroke-miterlimit="10"
       stroke-linecap="round"
       stroke-linejoin="round"
       id="path33" />
    <path
       d="M388.195 -1.02018L385.618 -0.794534L384.126 1.36845"
       stroke="#EBEBEB"
       stroke-width="2.5"
       stroke-miterlimit="10"
       stroke-linecap="round"
       stroke-linejoin="round"
       id="path34" />
    <path
       d="M292.115 83.7979C291.34 84.2559 290.564 84.5252 289.785 84.6057L291.613 87.8927C292.051 88.6787 293.105 88.9096 293.957 88.4058L297.056 86.5738C297.908 86.07 298.247 85.0147 297.81 84.2287L296.22 81.3705L292.115 83.7979Z"
       stroke="#EBEBEB"
       stroke-width="2.5"
       stroke-miterlimit="10"
       stroke-linecap="round"
       stroke-linejoin="round"
       id="path35" />
    <path
       d="M323.992 65.3658L319.887 67.7931L321.476 70.6514C321.914 71.4374 322.968 71.6683 323.82 71.1645L326.919 69.3325C327.771 68.8287 328.11 67.7734 327.673 66.9874L325.845 63.7005C325.384 64.3527 324.767 64.9078 323.992 65.3658Z"
       stroke="#EBEBEB"
       stroke-width="2.5"
       stroke-miterlimit="10"
       stroke-linecap="round"
       stroke-linejoin="round"
       id="path36" />
    <path
       d="M292.948 88.143L292.425 88.4452"
       stroke="#EBEBEB"
       stroke-width="2.5"
       stroke-miterlimit="10"
       stroke-linecap="round"
       stroke-linejoin="round"
       id="path37" />
    <path
       d="M291.653 85.9019L290.907 86.3329"
       stroke="#EBEBEB"
       stroke-width="2.5"
       stroke-miterlimit="10"
       stroke-linecap="round"
       stroke-linejoin="round"
       id="path38" />
    <path
       d="M297.95 85.2551L297.427 85.5573"
       stroke="#EBEBEB"
       stroke-width="2.5"
       stroke-miterlimit="10"
       stroke-linecap="round"
       stroke-linejoin="round"
       id="path39" />
    <path
       d="M296.879 82.8846L296.133 83.3156"
       stroke="#EBEBEB"
       stroke-width="2.5"
       stroke-miterlimit="10"
       stroke-linecap="round"
       stroke-linejoin="round"
       id="path40" />
    <path
       d="M322.811 70.9017L322.288 71.2038"
       stroke="#EBEBEB"
       stroke-width="2.5"
       stroke-miterlimit="10"
       stroke-linecap="round"
       stroke-linejoin="round"
       id="path41" />
    <path
       d="M321.516 68.6604L320.77 69.0915"
       stroke="#EBEBEB"
       stroke-width="2.5"
       stroke-miterlimit="10"
       stroke-linecap="round"
       stroke-linejoin="round"
       id="path42" />
    <path
       d="M327.813 68.0138L327.29 68.3158"
       stroke="#EBEBEB"
       stroke-width="2.5"
       stroke-miterlimit="10"
       stroke-linecap="round"
       stroke-linejoin="round"
       id="path43" />
    <path
       d="M326.742 65.6432L325.996 66.0742"
       stroke="#EBEBEB"
       stroke-width="2.5"
       stroke-miterlimit="10"
       stroke-linecap="round"
       stroke-linejoin="round"
       id="path44" />
    <path
       d="M316.516 45.9753L314.999 45.4562L309.555 40.0863C307.402 38.0559 304.066 37.7625 301.294 39.401L281.424 51.1434C278.651 52.7819 277.135 55.9427 277.825 58.8378L279.572 66.3924L279.24 68.0037C278.763 70.4563 278.945 72.9909 279.783 75.2323L279.981 75.5874C280.617 77.0987 281.445 78.4025 282.62 79.5952L282.934 79.9757C284.423 81.549 287.022 81.806 289.179 80.5316L321.987 61.1429C324.144 59.8685 325.241 57.4269 324.676 55.3075L324.516 54.8359C324.15 53.259 323.437 51.7932 322.493 50.464L322.179 50.0834C320.841 48.2316 318.811 46.7893 316.516 45.9753Z"
       stroke="#EBEBEB"
       stroke-width="2.5"
       stroke-miterlimit="10"
       stroke-linecap="round"
       stroke-linejoin="round"
       id="path45" />
    <path
       d="M281.846 77.7085C282.74 79.484 284.327 81.9572 285.289 82.9569L285.367 83.0954C286.905 84.5853 289.458 84.8364 291.576 83.5946L323.801 64.7011C325.919 63.4593 326.998 61.0793 326.443 59.0128L326.365 58.8744C326.008 57.5198 324.724 54.8692 323.678 53.1825"
       stroke="#EBEBEB"
       stroke-width="2.5"
       stroke-miterlimit="10"
       stroke-linecap="round"
       stroke-linejoin="round"
       id="path46" />
    <path
       d="M277.661 65.0512L276.866 63.6217C276.627 63.1929 276.158 63.0902 275.693 63.3651L274.919 63.8232C274.066 64.3271 273.727 65.3827 274.164 66.1689L274.562 66.8837C274.999 67.6699 276.054 67.9008 276.906 67.3969L280.005 65.5644C279.153 66.0684 278.098 65.8374 277.661 65.0512Z"
       stroke="#EBEBEB"
       stroke-width="2.5"
       stroke-miterlimit="10"
       stroke-linecap="round"
       stroke-linejoin="round"
       id="path47" />
    <path
       d="M314.933 43.5536L314.138 42.1241C313.899 41.6953 314.05 41.2261 314.515 40.9513L315.29 40.4932C316.142 39.9892 317.197 40.2202 317.635 41.0064L318.032 41.7211C318.47 42.5074 318.13 43.5629 317.278 44.0669L314.178 45.8993C315.031 45.3954 315.37 44.3398 314.933 43.5536Z"
       stroke="#EBEBEB"
       stroke-width="2.5"
       stroke-miterlimit="10"
       stroke-linecap="round"
       stroke-linejoin="round"
       id="path48" />
    <path
       d="M280.005 65.8647L282.336 65.591C283.464 65.4758 284.589 65.0034 285.562 64.4391L310.342 50.0727C311.39 49.4651 312.248 48.698 312.955 47.8391L314.443 45.8993"
       stroke="#EBEBEB"
       stroke-width="2.5"
       stroke-miterlimit="10"
       stroke-linecap="round"
       stroke-linejoin="round"
       id="path49" />
    <path
       d="M288.47 52.5497L286.855 57.4983"
       stroke="#EBEBEB"
       stroke-width="2.5"
       stroke-miterlimit="10"
       stroke-linecap="round"
       stroke-linejoin="round"
       id="path50" />
    <path
       d="M299.474 47.4093L297.473 53.5362"
       stroke="#EBEBEB"
       stroke-width="2.5"
       stroke-miterlimit="10"
       stroke-linecap="round"
       stroke-linejoin="round"
       id="path51" />
    <path
       d="M303.839 42.9024L301.839 49.0292"
       stroke="#EBEBEB"
       stroke-width="2.5"
       stroke-miterlimit="10"
       stroke-linecap="round"
       stroke-linejoin="round"
       id="path52" />
    <path
       d="M299.933 45.0573L299.856 45.2931"
       stroke="#EBEBEB"
       stroke-width="2.5"
       stroke-miterlimit="10"
       stroke-linecap="round"
       stroke-linejoin="round"
       id="path53" />
    <path
       d="M283.841 57.4504L285.456 52.5017"
       stroke="#EBEBEB"
       stroke-width="2.5"
       stroke-miterlimit="10"
       stroke-linecap="round"
       stroke-linejoin="round"
       id="path54" />
    <path
       d="M286.452 60.0087L286.529 59.7723"
       stroke="#EBEBEB"
       stroke-width="2.5"
       stroke-miterlimit="10"
       stroke-linecap="round"
       stroke-linejoin="round"
       id="path55" />
    <path
       d="M292.262 74.3994L286.739 77.6605C286.279 77.9322 285.814 77.8307 285.578 77.4067L284.398 75.2864C284.162 74.8623 284.311 74.3984 284.771 74.1267L288.53 71.9073C289.067 71.5903 289.761 71.5559 290.228 71.8441L292.362 72.9316C292.944 73.2452 292.876 74.037 292.262 74.3994Z"
       stroke="#EBEBEB"
       stroke-width="2.5"
       stroke-miterlimit="10"
       stroke-linecap="round"
       stroke-linejoin="round"
       id="path56" />
    <path
       d="M315.707 60.9354L321.23 57.6743C321.69 57.4026 321.84 56.9387 321.603 56.5146L320.423 54.3944C320.187 53.9703 319.722 53.8688 319.262 54.1406L315.504 56.3599C314.967 56.6769 314.587 57.2767 314.593 57.8366L314.426 60.2829C314.395 60.9588 315.093 61.2977 315.707 60.9354Z"
       stroke="#EBEBEB"
       stroke-width="2.5"
       stroke-miterlimit="10"
       stroke-linecap="round"
       stroke-linejoin="round"
       id="path57" />
    <path
       d="M305.297 61.1302L307.423 66.7917"
       stroke="#EBEBEB"
       stroke-width="2.5"
       stroke-miterlimit="10"
       stroke-linecap="round"
       stroke-linejoin="round"
       id="path58" />
    <path
       d="M297.758 65.4842L301.524 70.1962"
       stroke="#EBEBEB"
       stroke-width="2.5"
       stroke-miterlimit="10"
       stroke-linecap="round"
       stroke-linejoin="round"
       id="path59" />
    <path
       d="M301.491 63.2853L304.511 68.5158"
       stroke="#EBEBEB"
       stroke-width="2.5"
       stroke-miterlimit="10"
       stroke-linecap="round"
       stroke-linejoin="round"
       id="path60" />
    <path
       d="M310.598 64.6772L298.131 72.0108C297.827 72.1897 297.406 72.1592 297.098 71.9694L294.085 69.1055C293.699 68.7762 293.806 68.064 294.338 67.751L309.009 59.1206C309.541 58.8076 310.079 59.0475 310.276 59.5808L311.161 63.6967C311.165 64.0654 310.978 64.4536 310.598 64.6772Z"
       stroke="#EBEBEB"
       stroke-width="2.5"
       stroke-miterlimit="10"
       stroke-linecap="round"
       stroke-linejoin="round"
       id="path61" />
    <path
       d="M186.268 112.219C184.853 119.152 186.433 124.409 192.925 127.716C195.089 128.818 195.938 131.46 194.789 133.854L190.272 143.573C189.582 144.934 190.341 146.485 191.753 146.793L196.733 147.755C198.145 148.063 199.661 147.072 199.959 145.562L201.887 135.278C202.37 132.801 204.658 130.782 207.201 130.707C217.49 130.435 222.27 123.418 224.817 112.387C227.401 101.238 222.801 91.6693 212.839 89.557C204.72 87.7841 196.698 91.5741 191.609 98.9644"
       stroke="#EBEBEB"
       stroke-width="2.5"
       stroke-miterlimit="10"
       stroke-linecap="round"
       stroke-linejoin="round"
       id="path62" />
    <path
       d="M1092.24 55.7362L1117.86 58.0335C1119.32 58.1177 1120.73 57.8775 1122.09 57.0778L1123.54 56.2209C1124.51 55.6497 1124.3 54.3523 1123.23 54.2749L1089.71 51.1934L1075.31 82.4052C1074.83 83.3966 1075.81 84.237 1076.78 83.6657L1078.24 82.8089C1079.5 82.0663 1080.56 80.9674 1081.18 79.5373L1092.24 55.7362Z"
       stroke="#EBEBEB"
       stroke-width="2.5"
       stroke-miterlimit="10"
       stroke-linecap="round"
       stroke-linejoin="round"
       id="path63" />
    <path
       d="M1089.17 50.5905L1086.44 45.8513"
       stroke="#EBEBEB"
       stroke-width="2.5"
       stroke-miterlimit="10"
       stroke-linecap="round"
       stroke-linejoin="round"
       id="path64" />
    <path
       d="M1116.54 58.8043L1082.6 78.396"
       stroke="#EBEBEB"
       stroke-width="2.5"
       stroke-miterlimit="10"
       stroke-linecap="round"
       stroke-linejoin="round"
       id="path65" />
    <path
       d="M1086.23 45.666C1083.47 47.3021 1080.18 46.5839 1078.76 44.0336C1077.34 41.4834 1078.4 38.1941 1081.17 36.558C1083.93 34.9219 1087.22 35.6402 1088.64 38.1904"
       stroke="#EBEBEB"
       stroke-width="2.5"
       stroke-miterlimit="10"
       stroke-linecap="round"
       stroke-linejoin="round"
       id="path66" />
    <path
       fill-rule="evenodd"
       clip-rule="evenodd"
       d="M1193.96 -15.8835L1167.08 -0.366274C1165.44 0.582002 1163.32 0.0140311 1162.37 -1.62843L1157.2 -10.5873C1156.25 -12.2298 1156.82 -14.3495 1158.46 -15.2977L1185.34 -30.815C1186.98 -31.7633 1189.1 -31.1953 1190.05 -29.5528L1195.22 -20.5939C1196.17 -18.9515 1195.6 -16.8318 1193.96 -15.8835Z"
       stroke="#EBEBEB"
       stroke-width="2.5"
       stroke-miterlimit="10"
       stroke-linecap="round"
       stroke-linejoin="round"
       id="path67" />
    <path
       fill-rule="evenodd"
       clip-rule="evenodd"
       d="M1191.89 1.23407L1190.4 2.09614L1182.94 6.40649L1181.44 7.26855L1183.17 10.2548L1184.66 9.39278L1191.56 21.338C1192.03 22.1592 1193.09 22.4432 1193.91 21.969L1198.39 19.3828C1199.21 18.9087 1199.5 17.8488 1199.02 17.0276L1192.13 5.08244L1193.62 4.22037L1191.89 1.23407Z"
       stroke="#EBEBEB"
       stroke-width="2.5"
       stroke-miterlimit="10"
       stroke-linecap="round"
       stroke-linejoin="round"
       id="path68" />
    <path
       d="M1198.16 15.5345L1190.69 19.8448"
       stroke="#EBEBEB"
       stroke-width="2.5"
       stroke-miterlimit="10"
       stroke-linecap="round"
       stroke-linejoin="round"
       id="path69" />
    <path
       d="M1192.13 5.08245L1184.66 9.39279"
       stroke="#EBEBEB"
       stroke-width="2.5"
       stroke-miterlimit="10"
       stroke-linecap="round"
       stroke-linejoin="round"
       id="path70" />
    <path
       d="M1192.63 -25.0734L1194.13 -25.9355C1194.95 -26.4096 1196.01 -26.1256 1196.48 -25.3044L1201.65 -16.3455C1202.13 -15.5243 1201.84 -14.4644 1201.02 -13.9903L1183.85 -4.0765C1183.03 -3.60236 1182.75 -2.54251 1183.22 -1.72128L1186.67 4.25131"
       stroke="#EBEBEB"
       stroke-width="2.5"
       stroke-miterlimit="10"
       stroke-linecap="round"
       stroke-linejoin="round"
       id="path71" />
    <path
       d="M73.7323 85.3887C73.8382 88.5351 73.1976 91.6847 71.8783 94.5848"
       stroke="#EBEBEB"
       stroke-width="2.5"
       stroke-miterlimit="10"
       stroke-linecap="round"
       stroke-linejoin="round"
       id="path72" />
    <path
       d="M72.206 77.9303C72.5888 78.7785 72.8913 79.673 73.1137 80.6137"
       stroke="#EBEBEB"
       stroke-width="2.5"
       stroke-miterlimit="10"
       stroke-linecap="round"
       stroke-linejoin="round"
       id="path73" />
    <path
       d="M74.1388 73.5001C71.9628 69.7312 68.9635 66.7586 65.4741 64.6035L27.4652 86.5479C27.5405 90.5673 28.6616 94.7312 30.8375 98.5001C36.069 107.561 46.1728 112.099 55.9633 110.723L55.2416 111.14L57.0934 114.347L74.7347 104.162L72.8828 100.954L72.1611 101.371C78.2478 93.5802 79.3702 82.5613 74.1388 73.5001Z"
       stroke="#EBEBEB"
       stroke-width="2.5"
       stroke-miterlimit="10"
       stroke-linecap="round"
       stroke-linejoin="round"
       id="path74" />
    <path
       d="M64.6646 60.7941L24.5709 83.9423L26.4227 87.1498L66.5165 64.0016L64.6646 60.7941Z"
       stroke="#EBEBEB"
       stroke-width="2.5"
       stroke-miterlimit="10"
       stroke-linecap="round"
       stroke-linejoin="round"
       id="path75" />
    <path
       fill-rule="evenodd"
       clip-rule="evenodd"
       d="M54.5984 90.113C58.4789 88.5189 62.7049 89.7501 63.0838 90.4345C63.4626 91.1189 62.2682 95.5646 59.0604 98.174C58.6887 99.3035 57.7762 101.057 56.4459 102.856L54.8884 100.042C52.5916 100.495 50.417 100.168 49.2868 99.7276C48.9152 100.857 48.0026 102.61 46.589 104.459C45.9996 103.394 45.8265 101.881 45.8638 100.747C44.8162 100.056 43.6423 99.1356 43.0951 98.147C45.3507 97.8194 47.2735 97.8913 48.4028 98.1306C48.6069 96.8985 49.4345 94.7916 50.9736 92.9697L49.4161 90.156C51.5462 89.8019 53.469 89.8737 54.5984 90.113Z"
       stroke="#EBEBEB"
       stroke-width="2.5"
       stroke-miterlimit="10"
       stroke-linecap="round"
       stroke-linejoin="round"
       id="path76" />
    <path
       d="M33.0257 92.1558C35.0534 91.9492 37.5554 90.4917 38.7561 88.8177"
       stroke="#EBEBEB"
       stroke-width="2.5"
       stroke-miterlimit="10"
       stroke-linecap="round"
       stroke-linejoin="round"
       id="path77" />
    <path
       d="M52.2708 81.0447C54.2985 80.8381 56.8005 79.3806 58.0012 77.7066"
       stroke="#EBEBEB"
       stroke-width="2.5"
       stroke-miterlimit="10"
       stroke-linecap="round"
       stroke-linejoin="round"
       id="path78" />
    <path
       d="M42.6482 86.6003C44.6759 86.3937 47.1779 84.9362 48.3786 83.2621"
       stroke="#EBEBEB"
       stroke-width="2.5"
       stroke-miterlimit="10"
       stroke-linecap="round"
       stroke-linejoin="round"
       id="path79" />
    <path
       d="M33.0257 92.0309L30.449 92.2566L28.9566 94.4195"
       stroke="#EBEBEB"
       stroke-width="2.5"
       stroke-miterlimit="10"
       stroke-linecap="round"
       stroke-linejoin="round"
       id="path80" />
    <path
       d="M61.8932 75.4892C63.921 75.2826 66.423 73.8251 67.6237 72.151"
       stroke="#EBEBEB"
       stroke-width="2.5"
       stroke-miterlimit="10"
       stroke-linecap="round"
       stroke-linejoin="round"
       id="path81" />
    <path
       d="M42.6482 86.4754L40.0715 86.701L38.5791 88.8639"
       stroke="#EBEBEB"
       stroke-width="2.5"
       stroke-miterlimit="10"
       stroke-linecap="round"
       stroke-linejoin="round"
       id="path82" />
    <path
       d="M71.5156 69.8088L68.9389 70.0344L67.4465 72.1973"
       stroke="#EBEBEB"
       stroke-width="2.5"
       stroke-miterlimit="10"
       stroke-linecap="round"
       stroke-linejoin="round"
       id="path83" />
    <path
       d="M71.595 69.8367L71.5156 69.8826C71.5156 69.8826 71.5156 69.8826 71.595 69.8367Z"
       stroke="#EBEBEB"
       stroke-width="2.5"
       stroke-miterlimit="10"
       stroke-linecap="round"
       stroke-linejoin="round"
       id="path84" />
    <path
       d="M61.8932 75.3642L59.3165 75.5899L57.8241 77.7529"
       stroke="#EBEBEB"
       stroke-width="2.5"
       stroke-miterlimit="10"
       stroke-linecap="round"
       stroke-linejoin="round"
       id="path85" />
    <path
       d="M52.2707 80.9198L49.694 81.1454L48.2017 83.3084"
       stroke="#EBEBEB"
       stroke-width="2.5"
       stroke-miterlimit="10"
       stroke-linecap="round"
       stroke-linejoin="round"
       id="path86" />
    <path
       d="M140.139 29.6399L135.958 32.1115C134.537 32.9519 132.892 32.592 132.163 31.2809L131.305 29.7385C130.575 28.4275 131.105 26.7823 132.526 25.9419L136.707 23.4703L140.139 29.6399Z"
       stroke="#EBEBEB"
       stroke-width="2.5"
       stroke-miterlimit="10"
       stroke-linecap="round"
       stroke-linejoin="round"
       id="path87" />
    <path
       d="M127.06 33.1619L131.871 30.3841"
       stroke="#EBEBEB"
       stroke-width="2.5"
       stroke-miterlimit="10"
       stroke-linecap="round"
       stroke-linejoin="round"
       id="path88" />
    <path
       d="M149.69 9.39545L152.47 14.2109"
       stroke="#EBEBEB"
       stroke-width="2.5"
       stroke-miterlimit="10"
       stroke-linecap="round"
       stroke-linejoin="round"
       id="path89" />
    <path
       d="M156.177 20.6315L158.957 25.447"
       stroke="#EBEBEB"
       stroke-width="2.5"
       stroke-miterlimit="10"
       stroke-linecap="round"
       stroke-linejoin="round"
       id="path90" />
    <path
       d="M156.04 20.506C157.887 19.4139 158.616 17.1475 157.668 15.4439C156.721 13.7402 154.455 13.2443 152.607 14.3364C150.76 15.4284 150.031 17.6948 150.979 19.3985C151.927 21.1022 154.192 21.598 156.04 20.506Z"
       stroke="#EBEBEB"
       stroke-width="2.5"
       stroke-miterlimit="10"
       stroke-linecap="round"
       stroke-linejoin="round"
       id="path91" />
    <path
       d="M169.48 27.8108L167.973 28.7017C167.052 29.2461 165.911 28.9966 165.439 28.1472C164.966 27.2979 165.333 26.1574 166.254 25.613L167.008 25.1675"
       stroke="#EBEBEB"
       stroke-width="2.5"
       stroke-miterlimit="10"
       stroke-linecap="round"
       stroke-linejoin="round"
       id="path92" />
    <path
       d="M159.812 12.1124L161.665 15.3227"
       stroke="#EBEBEB"
       stroke-width="2.5"
       stroke-miterlimit="10"
       stroke-linecap="round"
       stroke-linejoin="round"
       id="path93" />
    <path
       d="M163.019 10.2604L164.873 13.4707"
       stroke="#EBEBEB"
       stroke-width="2.5"
       stroke-miterlimit="10"
       stroke-linecap="round"
       stroke-linejoin="round"
       id="path94" />
    <path
       d="M139.388 17.4774L148.655 33.5289"
       stroke="#EBEBEB"
       stroke-width="2.5"
       stroke-miterlimit="10"
       stroke-linecap="round"
       stroke-linejoin="round"
       id="path95" />
    <path
       d="M155.935 46.2861C154.978 46.8441 153.793 46.5882 153.302 45.7176L147.054 34.6365L150.534 32.6076L156.782 43.6887C157.273 44.5593 156.892 45.7282 155.935 46.2861Z"
       stroke="#EBEBEB"
       stroke-width="2.5"
       stroke-miterlimit="10"
       stroke-linecap="round"
       stroke-linejoin="round"
       id="path96" />
    <path
       d="M145.45 35.3854L151.865 31.6817"
       stroke="#EBEBEB"
       stroke-width="2.5"
       stroke-miterlimit="10"
       stroke-linecap="round"
       stroke-linejoin="round"
       id="path97" />
    <path
       d="M169.379 4.1512C168.605 2.76137 166.832 2.3733 165.325 3.26418L159.631 6.62971L156.807 6.55443C156.47 6.54848 156.092 6.66924 155.757 6.86722L145.04 13.2023C144.705 13.4003 144.413 13.6755 144.248 13.9784L142.885 16.5283L138.447 19.1515C138.112 19.3495 137.736 19.6741 137.614 20.0543L136.212 22.9348C135.966 23.4911 135.972 24.1029 136.23 24.5662L139.667 30.7432C139.925 31.2065 140.434 31.5212 141.024 31.5826L144.144 31.7906C144.524 31.8737 144.986 31.7035 145.321 31.5055L149.758 28.8824L152.582 28.9577C152.919 28.9636 153.297 28.8428 153.632 28.6449L162.842 23.2006C164.015 22.5077 165.449 22.6859 166.259 23.5412L175.934 33.9313L175.097 34.4263C174.176 34.9707 173.809 36.111 174.282 36.9604C174.754 37.8097 175.894 38.0592 176.816 37.5148L180.416 35.3866C183.012 33.8523 183.988 30.6074 182.572 28.2633L169.158 7.15454C169.912 6.7091 170.238 5.69545 169.851 5.00054L169.379 4.1512Z"
       stroke="#EBEBEB"
       stroke-width="2.5"
       stroke-miterlimit="10"
       stroke-linecap="round"
       stroke-linejoin="round"
       id="path98" />
    <path
       d="M151.116 19.273L153.522 17.8841"
       stroke="#EBEBEB"
       stroke-width="2.5"
       stroke-miterlimit="10"
       stroke-linecap="round"
       stroke-linejoin="round"
       id="path99" />
    <path
       d="M147.908 21.1248L148.71 20.6618"
       stroke="#EBEBEB"
       stroke-width="2.5"
       stroke-miterlimit="10"
       stroke-linecap="round"
       stroke-linejoin="round"
       id="path100" />
    <path
       d="M162.165 23.595L166.976 20.8172"
       stroke="#EBEBEB"
       stroke-width="2.5"
       stroke-miterlimit="10"
       stroke-linecap="round"
       stroke-linejoin="round"
       id="path101" />
    <path
       d="M173.872 16.8358L171.787 18.0395"
       stroke="#EBEBEB"
       stroke-width="2.5"
       stroke-miterlimit="10"
       stroke-linecap="round"
       stroke-linejoin="round"
       id="path102" />
    <path
       d="M174.78 38.0652L172.304 39.5278C170.901 40.3567 170.379 41.9795 171.099 43.2728C171.818 44.5661 173.442 44.9212 174.845 44.0924L176.496 43.1173C177.404 42.581 178.527 42.8268 178.993 43.6637C179.459 44.5005 180.583 44.7464 181.491 44.2101C182.399 43.6738 182.76 42.5503 182.295 41.7134C181.829 40.8766 182.191 39.7531 183.099 39.2168C184.006 38.6805 185.13 38.9264 185.596 39.7632C186.062 40.6001 187.186 40.8459 188.094 40.3096"
       stroke="#EBEBEB"
       stroke-width="2.5"
       stroke-miterlimit="10"
       stroke-linecap="round"
       stroke-linejoin="round"
       id="path103" />
    <path
       d="M176.118 34.8449L178.774 37.5037"
       stroke="#EBEBEB"
       stroke-width="2.5"
       stroke-miterlimit="10"
       stroke-linecap="round"
       stroke-linejoin="round"
       id="path104" />
    <path
       d="M257.957 -12.3357L236.752 0.12262L239.857 5.67423L261.061 -6.78404L257.957 -12.3357Z"
       stroke="#EBEBEB"
       stroke-width="2.5"
       stroke-miterlimit="10"
       stroke-linecap="round"
       stroke-linejoin="round"
       id="path105" />
    <path
       d="M262.734 -7.23409L238.704 6.78195L240.243 9.51579L264.273 -4.50026L262.734 -7.23409Z"
       stroke="#EBEBEB"
       stroke-width="2.5"
       stroke-miterlimit="10"
       stroke-linecap="round"
       stroke-linejoin="round"
       id="path106" />
    <path
       d="M238.473 2.69318L259.34 -9.35468"
       stroke="#EBEBEB"
       stroke-width="2.5"
       stroke-miterlimit="10"
       stroke-linecap="round"
       stroke-linejoin="round"
       id="path107" />
    <path
       d="M241.915 8.65533L243.636 11.6363"
       stroke="#EBEBEB"
       stroke-width="2.5"
       stroke-miterlimit="10"
       stroke-linecap="round"
       stroke-linejoin="round"
       id="path108" />
    <path
       d="M235.891 -1.77838L236.752 -0.287903"
       stroke="#EBEBEB"
       stroke-width="2.5"
       stroke-miterlimit="10"
       stroke-linecap="round"
       stroke-linejoin="round"
       id="path109" />
    <path
       d="M262.783 -3.39252L264.504 -0.411438"
       stroke="#EBEBEB"
       stroke-width="2.5"
       stroke-miterlimit="10"
       stroke-linecap="round"
       stroke-linejoin="round"
       id="path110" />
    <path
       d="M944.607 7.8085C939.902 9.3555 936.008 13.8426 936.005 21.0633C923.942 12.9028 911.725 27.4402 918.186 37.2031C925.082 47.5634 945.541 45.2501 950.795 47.6533C951.513 41.7192 963.741 24.421 958.515 13.358C957.598 11.5252 956.334 9.99314 954.841 8.97627L954.527 8.78207"
       stroke="#EBEBEB"
       stroke-width="2.5"
       stroke-miterlimit="10"
       stroke-linecap="round"
       stroke-linejoin="round"
       id="path111" />
    <path
       d="M941.675 30.6367L949.258 7.09935"
       stroke="#EBEBEB"
       stroke-width="2.5"
       stroke-miterlimit="10"
       stroke-linecap="round"
       stroke-linejoin="round"
       id="path112" />
    <path
       d="M934.741 57.7046L938.533 45.936"
       stroke="#EBEBEB"
       stroke-width="2.5"
       stroke-miterlimit="10"
       stroke-linecap="round"
       stroke-linejoin="round"
       id="path113" />
    <path
       d="M952.062 11.658L945.838 15.3375L942.647 9.60213L946.439 -2.16654L949.63 3.56885L955.854 -0.110693L952.062 11.658Z"
       stroke="#EBEBEB"
       stroke-width="2.5"
       stroke-miterlimit="10"
       stroke-linecap="round"
       stroke-linejoin="round"
       id="path114" />
    <path
       d="M934.946 57.7046L934.082 52.3664"
       stroke="#EBEBEB"
       stroke-width="2.5"
       stroke-miterlimit="10"
       stroke-linecap="round"
       stroke-linejoin="round"
       id="path115" />
    <path
       d="M938.758 53.6279L934.978 57.7047"
       stroke="#EBEBEB"
       stroke-width="2.5"
       stroke-miterlimit="10"
       stroke-linecap="round"
       stroke-linejoin="round"
       id="path116" />
    <path
       d="M645.362 -22.2773L670.98 -19.98C672.443 -19.8958 673.854 -20.1359 675.211 -20.9356L676.665 -21.7925C677.634 -22.3638 677.425 -23.6611 676.352 -23.7386L642.829 -26.82L628.429 4.39173C627.952 5.38316 628.936 6.22354 629.905 5.6523L631.358 4.79543C632.618 4.05282 633.679 2.95391 634.298 1.52389L645.362 -22.2773Z"
       stroke="#EBEBEB"
       stroke-width="2.5"
       stroke-miterlimit="10"
       stroke-linecap="round"
       stroke-linejoin="round"
       id="path117" />
    <path
       d="M669.66 -19.209L635.727 0.382507"
       stroke="#EBEBEB"
       stroke-width="2.5"
       stroke-miterlimit="10"
       stroke-linecap="round"
       stroke-linejoin="round"
       id="path118" />
    <path
       d="M1237.33 62.8177C1232.62 64.3647 1228.73 68.8518 1228.73 76.0725C1216.66 67.9119 1204.45 82.4494 1210.91 92.2122C1217.8 102.573 1238.26 100.259 1243.52 102.662C1244.23 96.7284 1256.46 79.4302 1251.24 68.3672C1250.32 66.5344 1249.06 65.0023 1247.56 63.9855L1247.25 63.7913"
       stroke="#EBEBEB"
       stroke-width="2.5"
       stroke-miterlimit="10"
       stroke-linecap="round"
       stroke-linejoin="round"
       id="path119" />
    <path
       d="M1234.4 85.6458L1241.98 62.1086"
       stroke="#EBEBEB"
       stroke-width="2.5"
       stroke-miterlimit="10"
       stroke-linecap="round"
       stroke-linejoin="round"
       id="path120" />
    <path
       d="M1244.78 66.667L1238.56 70.3466L1235.37 64.6112L1239.16 52.8425L1242.35 58.5779L1248.58 54.8984L1244.78 66.667Z"
       stroke="#EBEBEB"
       stroke-width="2.5"
       stroke-miterlimit="10"
       stroke-linecap="round"
       stroke-linejoin="round"
       id="path121" />
    <path
       d="m 470.0455,39.9067 c 0,0.8262 -0.293,1.5088 -0.879,2.0479 -0.586,0.5391 -1.38,0.8818 -2.382,1.0283 v 0.0528 c 1.178,0.1171 2.08,0.4423 2.707,0.9755 0.633,0.5332 0.949,1.2276 0.949,2.0831 0,1.1835 -0.48,2.1181 -1.441,2.8037 -0.955,0.6855 -2.28,1.0283 -3.973,1.0283 -1.887,0 -3.401,-0.2315 -4.544,-0.6944 v -2.2851 c 0.551,0.2637 1.195,0.4717 1.934,0.624 0.744,0.1465 1.438,0.2197 2.083,0.2197 2.162,0 3.243,-0.6298 3.243,-1.8896 0,-0.5684 -0.349,-1.0049 -1.046,-1.3096 -0.691,-0.3047 -1.717,-0.457 -3.076,-0.457 h -1.204 v -2.127 h 1.081 c 1.359,0 2.349,-0.1289 2.97,-0.3867 0.621,-0.2578 0.932,-0.6855 0.932,-1.2832 0,-0.4394 -0.196,-0.7881 -0.589,-1.0459 -0.387,-0.2637 -0.97,-0.3955 -1.749,-0.3955 -1.207,0 -2.373,0.3486 -3.498,1.0459 l -1.186,-1.8193 c 0.732,-0.4864 1.508,-0.8409 2.329,-1.0635 0.82,-0.2285 1.731,-0.3428 2.733,-0.3428 1.4,0 2.517,0.293 3.349,0.8789 0.838,0.586 1.257,1.3565 1.257,2.3115 z m 8.736,7.8838 V 41.937 h -2.013 c -0.146,1.0899 -0.348,2.124 -0.606,3.1026 -0.252,0.9785 -0.604,1.8955 -1.055,2.7509 z m 4.122,5.4844 h -2.408 v -3.5244 h -6.61 v 3.5244 h -2.408 v -5.4844 h 0.826 c 0.563,-0.873 1.035,-1.9746 1.415,-3.3046 0.381,-1.3301 0.648,-2.8506 0.8,-4.5616 h 6.944 v 7.8662 h 1.441 z m 5.748,-11.6279 c -0.568,0 -1.014,0.1816 -1.336,0.5449 -0.322,0.3574 -0.507,0.8672 -0.554,1.5293 h 3.762 c -0.012,-0.6621 -0.185,-1.1719 -0.518,-1.5293 -0.334,-0.3633 -0.786,-0.5449 -1.354,-0.5449 z m 0.378,8.2793 c -1.582,0 -2.818,-0.4365 -3.709,-1.3096 -0.891,-0.873 -1.336,-2.1094 -1.336,-3.709 0,-1.6465 0.41,-2.9179 1.23,-3.8144 0.827,-0.9024 1.966,-1.3535 3.419,-1.3535 1.389,0 2.47,0.3955 3.244,1.1865 0.773,0.791 1.16,1.8838 1.16,3.2783 v 1.3008 h -6.337 c 0.029,0.7617 0.255,1.3564 0.677,1.7842 0.421,0.4277 1.013,0.6416 1.775,0.6416 0.592,0 1.151,-0.0616 1.679,-0.1846 0.527,-0.1231 1.078,-0.3193 1.652,-0.5889 v 2.0742 c -0.469,0.2344 -0.97,0.4073 -1.503,0.5186 -0.533,0.1172 -1.183,0.1758 -1.951,0.1758 z m 10.178,0 c -3.059,0 -4.588,-1.6787 -4.588,-5.0362 0,-1.6699 0.416,-2.9443 1.248,-3.8232 0.832,-0.8848 2.024,-1.3271 3.577,-1.3271 1.137,0 2.156,0.2226 3.059,0.6679 l -0.791,2.0742 c -0.422,-0.1699 -0.815,-0.3076 -1.178,-0.413 -0.363,-0.1114 -0.727,-0.167 -1.09,-0.167 -1.395,0 -2.092,0.9902 -2.092,2.9707 0,1.9218 0.697,2.8828 2.092,2.8828 0.516,0 0.993,-0.0674 1.433,-0.2022 0.439,-0.1406 0.878,-0.3574 1.318,-0.6504 v 2.294 c -0.434,0.2754 -0.873,0.4658 -1.318,0.5713 -0.44,0.1054 -0.997,0.1582 -1.67,0.1582 z m 7.954,-6.2051 h 1.889 c 1.512,0 2.631,0.2402 3.358,0.7207 0.726,0.4805 1.09,1.207 1.09,2.1797 0,2.0859 -1.448,3.1289 -4.342,3.1289 h -4.676 v -9.8262 h 2.681 z m 3.656,2.9355 c 0,-0.3808 -0.152,-0.6562 -0.457,-0.8261 -0.305,-0.1699 -0.759,-0.2549 -1.362,-0.2549 h -1.837 v 2.3203 h 1.872 c 1.189,0 1.784,-0.4131 1.784,-1.2393 z m 21.779,3.0938 h -2.505 v -7.7432 l -0.14,0.545 c -0.317,1.2363 -0.601,2.1709 -0.853,2.8037 l -1.74,4.3945 h -1.907 l -1.767,-4.4297 c -0.252,-0.6445 -0.521,-1.5498 -0.808,-2.7158 l -0.167,-0.5977 v 7.7432 h -2.496 v -9.8262 h 3.691 l 1.687,4.1924 c 0.176,0.4512 0.337,0.9697 0.484,1.5557 0.152,0.5859 0.255,1.0869 0.307,1.5029 0.194,-0.8789 0.343,-1.5088 0.449,-1.8896 0.111,-0.3868 0.231,-0.7413 0.36,-1.0635 0.129,-0.3223 0.712,-1.7549 1.749,-4.2979 h 3.656 z m 4.957,-4.9307 c 0,0.9727 0.159,1.708 0.475,2.2061 0.322,0.498 0.844,0.7471 1.564,0.7471 0.715,0 1.228,-0.2461 1.538,-0.7383 0.317,-0.4981 0.475,-1.2363 0.475,-2.2149 0,-0.9726 -0.158,-1.7021 -0.475,-2.1884 -0.316,-0.4864 -0.834,-0.7295 -1.555,-0.7295 -0.715,0 -1.231,0.2431 -1.547,0.7295 -0.316,0.4804 -0.475,1.2099 -0.475,2.1884 z m 6.794,0 c 0,1.5996 -0.422,2.8506 -1.265,3.753 -0.844,0.9023 -2.019,1.3535 -3.525,1.3535 -0.943,0 -1.775,-0.2051 -2.496,-0.6153 -0.721,-0.416 -1.274,-1.0107 -1.661,-1.7841 -0.387,-0.7735 -0.58,-1.6758 -0.58,-2.7071 0,-1.6054 0.419,-2.8535 1.257,-3.7441 0.838,-0.8906 2.015,-1.3359 3.533,-1.3359 0.943,0 1.775,0.205 2.496,0.6152 0.721,0.4101 1.274,0.999 1.661,1.7666 0.387,0.7676 0.58,1.667 0.58,2.6982 z m 7.418,-0.123 v -4.7725 h 2.496 v 4.7725 l 3.498,-4.7725 h 2.769 l -3.621,4.711 3.964,5.1152 h -2.866 l -3.744,-4.9834 v 4.9834 h -2.496 v -4.9834 l -3.744,4.9834 h -2.865 l 3.964,-5.1152 -3.621,-4.711 h 2.768 z m 14.581,-3.0498 c -0.568,0 -1.013,0.1816 -1.336,0.5449 -0.322,0.3574 -0.506,0.8672 -0.553,1.5293 h 3.761 c -0.011,-0.6621 -0.184,-1.1719 -0.518,-1.5293 -0.334,-0.3633 -0.785,-0.5449 -1.354,-0.5449 z m 0.378,8.2793 c -1.582,0 -2.818,-0.4365 -3.709,-1.3096 -0.89,-0.873 -1.336,-2.1094 -1.336,-3.709 0,-1.6465 0.41,-2.9179 1.231,-3.8144 0.826,-0.9024 1.966,-1.3535 3.419,-1.3535 1.388,0 2.469,0.3955 3.243,1.1865 0.773,0.791 1.16,1.8838 1.16,3.2783 v 1.3008 h -6.337 c 0.029,0.7617 0.255,1.3564 0.677,1.7842 0.422,0.4277 1.014,0.6416 1.775,0.6416 0.592,0 1.152,-0.0616 1.679,-0.1846 0.527,-0.1231 1.078,-0.3193 1.652,-0.5889 v 2.0742 c -0.468,0.2344 -0.969,0.4073 -1.503,0.5186 -0.533,0.1172 -1.183,0.1758 -1.951,0.1758 z m 14.318,-10.002 v 2.0127 h -3.217 v 7.8135 h -2.681 V 41.937 h -3.225 v -2.0127 z m 5.915,3.9375 c 0,-2.2558 0.427,-3.9668 1.283,-5.1328 0.861,-1.1719 2.203,-1.9131 4.025,-2.2236 0.885,-0.1524 2.206,-0.3457 3.964,-0.5801 l 0.308,2.3379 c -0.762,0.0879 -2.113,0.2754 -4.052,0.5625 -0.738,0.1172 -1.289,0.293 -1.652,0.5273 -0.364,0.2344 -0.636,0.5684 -0.818,1.002 -0.176,0.4336 -0.284,1.0107 -0.325,1.7314 h 0.132 c 0.31,-0.4804 0.721,-0.8496 1.23,-1.1074 0.51,-0.2578 1.058,-0.3867 1.644,-0.3867 1.213,0 2.156,0.3721 2.83,1.1162 0.674,0.7383 1.011,1.7988 1.011,3.1816 0,1.5938 -0.428,2.8331 -1.283,3.7178 -0.85,0.8789 -2.025,1.3184 -3.525,1.3184 -1.5,0 -2.672,-0.5362 -3.516,-1.6084 -0.837,-1.0781 -1.256,-2.5635 -1.256,-4.4561 z m 4.93,3.8936 c 1.272,0 1.908,-0.876 1.908,-2.6279 0,-1.7051 -0.575,-2.5577 -1.723,-2.5577 -0.317,0 -0.633,0.0733 -0.949,0.2198 -0.311,0.1464 -0.598,0.3398 -0.862,0.58 -0.257,0.2344 -0.448,0.4717 -0.571,0.712 0,1.1894 0.19,2.1005 0.571,2.7334 0.381,0.6269 0.923,0.9404 1.626,0.9404 z m 9.545,-4.0342 h 1.292 c 1.5,0 2.611,0.2402 3.331,0.7207 0.721,0.4805 1.081,1.207 1.081,2.1797 0,1.0371 -0.36,1.8193 -1.081,2.3467 -0.72,0.5215 -1.799,0.7822 -3.234,0.7822 h -4.069 v -9.8262 h 2.68 z m 3.024,2.9355 c 0,-0.3808 -0.153,-0.6562 -0.457,-0.8261 -0.305,-0.1699 -0.759,-0.2549 -1.363,-0.2549 h -1.204 v 2.3203 h 1.239 c 1.19,0 1.785,-0.4131 1.785,-1.2393 z m 6.785,3.0938 h -2.681 v -9.8262 h 2.681 z m 10.951,-9.8262 v 2.0127 h -3.217 v 7.8135 h -2.68 V 41.937 h -3.226 v -2.0127 z m 4.518,3.7969 h 1.889 c 1.512,0 2.631,0.2402 3.358,0.7207 0.726,0.4805 1.09,1.207 1.09,2.1797 0,2.0859 -1.448,3.1289 -4.342,3.1289 h -4.676 v -9.8262 h 2.681 z m 3.656,2.9355 c 0,-0.3808 -0.153,-0.6562 -0.457,-0.8261 -0.305,-0.1699 -0.759,-0.2549 -1.362,-0.2549 h -1.837 v 2.3203 h 1.872 c 1.189,0 1.784,-0.4131 1.784,-1.2393 z m 18.466,-4.1572 c 0,0.5274 -0.167,0.9785 -0.501,1.3535 -0.328,0.3692 -0.815,0.6065 -1.459,0.712 v 0.0703 c 0.697,0.082 1.248,0.3222 1.652,0.7207 0.41,0.3925 0.615,0.8789 0.615,1.459 0,0.955 -0.375,1.6845 -1.125,2.1884 -0.75,0.4981 -1.822,0.7471 -3.217,0.7471 h -5.036 v -9.8262 h 5.036 c 1.348,0 2.356,0.2198 3.024,0.6592 0.674,0.4336 1.011,1.0723 1.011,1.916 z m -2.47,4.1748 c 0,-0.3867 -0.149,-0.665 -0.448,-0.8349 -0.299,-0.1758 -0.747,-0.2637 -1.345,-0.2637 h -2.127 v 2.3203 h 2.18 c 0.568,0 0.999,-0.1055 1.292,-0.3164 0.299,-0.2168 0.448,-0.5186 0.448,-0.9053 z m -0.246,-3.9638 c 0,-0.5977 -0.475,-0.8965 -1.424,-0.8965 h -2.25 v 1.9424 h 1.942 c 0.569,0 0.999,-0.0821 1.292,-0.2461 0.293,-0.1641 0.44,-0.4307 0.44,-0.7998 z m 11.399,7.04 -0.518,-1.3359 h -0.071 c -0.451,0.5683 -0.917,0.9638 -1.397,1.1865 -0.475,0.2168 -1.096,0.3252 -1.863,0.3252 -0.944,0 -1.688,-0.2696 -2.233,-0.8086 -0.539,-0.5391 -0.808,-1.3067 -0.808,-2.3027 0,-1.043 0.363,-1.8106 1.089,-2.3028 0.733,-0.498 1.834,-0.7734 3.305,-0.8262 l 1.705,-0.0527 v -0.4307 c 0,-0.996 -0.51,-1.4941 -1.529,-1.4941 -0.785,0 -1.708,0.2373 -2.769,0.7119 l -0.887,-1.8105 c 1.131,-0.5918 2.384,-0.8877 3.761,-0.8877 1.319,0 2.33,0.2871 3.033,0.8613 0.703,0.5742 1.054,1.4473 1.054,2.6191 v 6.5479 z m -0.791,-4.5527 -1.037,0.0351 c -0.779,0.0235 -1.359,0.1641 -1.74,0.4219 -0.381,0.2578 -0.571,0.6504 -0.571,1.1777 0,0.7559 0.433,1.1338 1.3,1.1338 0.621,0 1.117,-0.1787 1.486,-0.5361 0.375,-0.3574 0.562,-0.832 0.562,-1.4238 z m 20.066,4.5527 h -14.634 v -9.8262 h 2.681 v 7.8135 h 3.295 v -7.8135 h 2.681 v 7.8135 h 3.296 v -7.8135 h 2.681 z m 9.061,0 -0.518,-1.3359 h -0.071 c -0.451,0.5683 -0.917,0.9638 -1.397,1.1865 -0.475,0.2168 -1.096,0.3252 -1.863,0.3252 -0.944,0 -1.688,-0.2696 -2.233,-0.8086 -0.539,-0.5391 -0.808,-1.3067 -0.808,-2.3027 0,-1.043 0.363,-1.8106 1.089,-2.3028 0.733,-0.498 1.834,-0.7734 3.305,-0.8262 l 1.705,-0.0527 v -0.4307 c 0,-0.996 -0.51,-1.4941 -1.529,-1.4941 -0.785,0 -1.708,0.2373 -2.769,0.7119 l -0.887,-1.8105 c 1.13,-0.5918 2.384,-0.8877 3.761,-0.8877 1.319,0 2.329,0.2871 3.033,0.8613 0.703,0.5742 1.054,1.4473 1.054,2.6191 v 6.5479 z m -0.791,-4.5527 -1.037,0.0351 c -0.779,0.0235 -1.359,0.1641 -1.74,0.4219 -0.381,0.2578 -0.571,0.6504 -0.571,1.1777 0,0.7559 0.433,1.1338 1.3,1.1338 0.621,0 1.117,-0.1787 1.486,-0.5361 0.375,-0.3574 0.562,-0.832 0.562,-1.4238 z m 15.504,4.7285 c -1.154,0 -2.059,-0.419 -2.716,-1.2569 h -0.14 c 0.093,0.8204 0.14,1.295 0.14,1.4239 v 3.9814 h -2.68 V 39.9243 h 2.179 l 0.378,1.2744 h 0.123 c 0.627,-0.9726 1.556,-1.4589 2.786,-1.4589 1.161,0 2.069,0.4482 2.725,1.3447 0.656,0.8965 0.984,2.1416 0.984,3.7353 0,1.0489 -0.155,1.96 -0.465,2.7334 -0.305,0.7735 -0.742,1.3623 -1.31,1.7666 -0.568,0.4043 -1.236,0.6065 -2.004,0.6065 z m -0.791,-8.042 c -0.662,0 -1.145,0.2051 -1.45,0.6152 -0.305,0.4043 -0.463,1.0752 -0.475,2.0127 v 0.2901 c 0,1.0546 0.156,1.8105 0.466,2.2675 0.316,0.4571 0.815,0.6856 1.494,0.6856 1.201,0 1.802,-0.9903 1.802,-2.9707 0,-0.9668 -0.149,-1.6904 -0.448,-2.1709 -0.293,-0.4863 -0.756,-0.7295 -1.389,-0.7295 z m 10.855,-0.2373 c -0.569,0 -1.014,0.1816 -1.336,0.5449 -0.323,0.3574 -0.507,0.8672 -0.554,1.5293 h 3.762 c -0.012,-0.6621 -0.185,-1.1719 -0.519,-1.5293 -0.334,-0.3633 -0.785,-0.5449 -1.353,-0.5449 z m 0.377,8.2793 c -1.582,0 -2.818,-0.4365 -3.708,-1.3096 -0.891,-0.873 -1.336,-2.1094 -1.336,-3.709 0,-1.6465 0.41,-2.9179 1.23,-3.8144 0.826,-0.9024 1.966,-1.3535 3.419,-1.3535 1.389,0 2.47,0.3955 3.243,1.1865 0.774,0.791 1.16,1.8838 1.16,3.2783 v 1.3008 h -6.337 c 0.03,0.7617 0.255,1.3564 0.677,1.7842 0.422,0.4277 1.014,0.6416 1.776,0.6416 0.591,0 1.151,-0.0616 1.678,-0.1846 0.528,-0.1231 1.078,-0.3193 1.653,-0.5889 v 2.0742 c -0.469,0.2344 -0.97,0.4073 -1.503,0.5186 -0.534,0.1172 -1.184,0.1758 -1.952,0.1758 z m 12.63,-10.002 h 2.953 l -3.893,4.711 4.236,5.1152 h -3.041 l -4.016,-4.9834 v 4.9834 h -2.681 v -9.8262 h 2.681 v 4.7725 z m 13.5,9.8262 h -2.68 V 41.937 h -2.47 c -0.188,2.1973 -0.416,3.8379 -0.686,4.9219 -0.269,1.0781 -0.629,1.8604 -1.081,2.3467 -0.445,0.4804 -1.031,0.7207 -1.757,0.7207 -0.622,0 -1.131,-0.0938 -1.53,-0.2813 v -2.1445 c 0.287,0.1172 0.574,0.1758 0.862,0.1758 0.334,0 0.612,-0.2403 0.835,-0.7207 0.228,-0.4805 0.43,-1.2803 0.606,-2.3994 0.182,-1.125 0.337,-2.669 0.466,-4.6319 h 7.435 z m 9.062,0 -0.519,-1.3359 h -0.07 c -0.451,0.5683 -0.917,0.9638 -1.397,1.1865 -0.475,0.2168 -1.096,0.3252 -1.864,0.3252 -0.943,0 -1.687,-0.2696 -2.232,-0.8086 -0.539,-0.5391 -0.809,-1.3067 -0.809,-2.3027 0,-1.043 0.364,-1.8106 1.09,-2.3028 0.733,-0.498 1.834,-0.7734 3.305,-0.8262 l 1.705,-0.0527 v -0.4307 c 0,-0.996 -0.51,-1.4941 -1.529,-1.4941 -0.786,0 -1.708,0.2373 -2.769,0.7119 l -0.888,-1.8105 c 1.131,-0.5918 2.385,-0.8877 3.762,-0.8877 1.318,0 2.329,0.2871 3.032,0.8613 0.703,0.5742 1.055,1.4473 1.055,2.6191 v 6.5479 z m -0.791,-4.5527 -1.037,0.0351 c -0.78,0.0235 -1.36,0.1641 -1.74,0.4219 -0.381,0.2578 -0.572,0.6504 -0.572,1.1777 0,0.7559 0.434,1.1338 1.301,1.1338 0.621,0 1.116,-0.1787 1.485,-0.5361 0.375,-0.3574 0.563,-0.832 0.563,-1.4238 z m 17.815,4.5527 h -2.505 v -7.7432 l -0.14,0.545 c -0.317,1.2363 -0.601,2.1709 -0.853,2.8037 l -1.74,4.3945 h -1.907 l -1.767,-4.4297 c -0.252,-0.6445 -0.521,-1.5498 -0.808,-2.7158 l -0.167,-0.5977 v 7.7432 h -2.496 v -9.8262 h 3.691 l 1.687,4.1924 c 0.176,0.4512 0.337,0.9697 0.484,1.5557 0.152,0.5859 0.255,1.0869 0.307,1.5029 0.194,-0.8789 0.343,-1.5088 0.449,-1.8896 0.111,-0.3868 0.231,-0.7413 0.36,-1.0635 0.129,-0.3223 0.712,-1.7549 1.749,-4.2979 h 3.656 z m 9.062,0 -0.519,-1.3359 h -0.07 c -0.451,0.5683 -0.917,0.9638 -1.397,1.1865 -0.475,0.2168 -1.096,0.3252 -1.864,0.3252 -0.943,0 -1.687,-0.2696 -2.232,-0.8086 -0.539,-0.5391 -0.809,-1.3067 -0.809,-2.3027 0,-1.043 0.363,-1.8106 1.09,-2.3028 0.732,-0.498 1.834,-0.7734 3.305,-0.8262 l 1.705,-0.0527 v -0.4307 c 0,-0.996 -0.51,-1.4941 -1.529,-1.4941 -0.786,0 -1.708,0.2373 -2.769,0.7119 l -0.888,-1.8105 c 1.131,-0.5918 2.385,-0.8877 3.762,-0.8877 1.318,0 2.329,0.2871 3.032,0.8613 0.703,0.5742 1.055,1.4473 1.055,2.6191 v 6.5479 z m -0.791,-4.5527 -1.037,0.0351 c -0.78,0.0235 -1.36,0.1641 -1.741,0.4219 -0.38,0.2578 -0.571,0.6504 -0.571,1.1777 0,0.7559 0.434,1.1338 1.301,1.1338 0.621,0 1.116,-0.1787 1.485,-0.5361 0.375,-0.3574 0.563,-0.832 0.563,-1.4238 z m 7.681,0.29 h -2.144 l -0.448,-8.5869 h 3.041 z m -2.627,3.0059 c 0,-0.4922 0.131,-0.8643 0.395,-1.1162 0.264,-0.252 0.647,-0.378 1.151,-0.378 0.487,0 0.862,0.1289 1.125,0.3867 0.27,0.2579 0.405,0.627 0.405,1.1075 0,0.4629 -0.135,0.8291 -0.405,1.0986 -0.269,0.2637 -0.644,0.3955 -1.125,0.3955 -0.492,0 -0.873,-0.1289 -1.142,-0.3867 -0.27,-0.2637 -0.404,-0.6328 -0.404,-1.1074 z"
       fill="#333333"
       id="path123" />
  </g>
</svg>
