<?xml version="1.0" encoding="UTF-8"?> <svg xmlns="http://www.w3.org/2000/svg" width="21" height="21" viewBox="0 0 21 21" fill="none"> <path d="M2 20.7382C0.9 20.7382 0 19.8382 0 18.7382V10.7382C0 9.63818 0.9 8.73818 2 8.73818H5.8C6.4 8.73818 7 8.33818 7.2 7.83818C7.4 7.33818 10.3 1.13818 10.3 1.13818C10.7 0.338184 11.6 0.0381845 12.3 0.438184C12.3 0.438184 13 0.738184 13.5 1.13818C14.5 1.83818 15 2.63818 15 3.73818C15 4.43818 14.9 5.33818 14.7 6.63818C14.6 6.93818 14.3 8.23818 14.3 8.23818C14.2 8.53818 14.4 8.73818 14.7 8.73818H18.3C20 8.73818 21.2 10.2382 20.9 11.8382C20.9 11.9382 19.6 16.9382 19.4 17.5382C18.6 19.8382 16.6 20.7382 13.5 20.7382C12.1 20.7382 2 20.7382 2 20.7382ZM4 10.7382H2V18.7382C2 18.7382 2.8 18.7382 4 18.7382V10.7382ZM13.5 18.7382C15.7 18.7382 16.8 18.3382 17.4 17.2382H17C16.4 17.2382 16 16.8382 16 16.2382C16 15.6382 16.4 15.2382 17 15.2382H18C18.1 14.9382 18.2 14.5382 18.3 14.2382H17.5C16.9 14.2382 16.5 13.8382 16.5 13.2382C16.5 12.6382 16.9 12.2382 17.5 12.2382H18.8C18.9 11.7382 19 11.4382 19 11.4382C19.1 11.0382 18.9 10.7382 18.4 10.7382H14.8C13.3 10.7382 12.1 9.33818 12.4 7.83818C12.4 7.73818 12.7 6.33818 12.7 6.23818C12.9 5.03818 13 4.23818 13 3.73818V3.63818C13 3.33818 12.8 3.03818 12.3 2.63818C12.2 2.63818 11.9 2.33818 11.9 2.33818L9.1 8.63818C8.6 9.83818 7.3 10.6382 6 10.7382V18.7382C9.2 18.7382 13.1 18.7382 13.5 18.7382Z" fill="#F15833"></path> </svg> 