<svg width="42" height="37" viewBox="0 0 42 37" fill="none" xmlns="http://www.w3.org/2000/svg">
<path d="M17.0416 8.29167H11.2083V6.83333C11.2083 6.03125 11.8646 5.375 12.6666 5.375H15.5833C16.3854 5.375 17.0416 6.03125 17.0416 6.83333V8.29167Z" stroke="#F5F5F5" stroke-width="1.5" stroke-miterlimit="10" stroke-linecap="round" stroke-linejoin="round"/>
<path d="M36 8.29169H30.1667V5.37502C30.1667 4.57294 30.8229 3.91669 31.625 3.91669H34.5417C35.3438 3.91669 36 4.57294 36 5.37502V8.29169Z" stroke="#F5F5F5" stroke-width="1.5" stroke-miterlimit="10" stroke-linecap="round" stroke-linejoin="round"/>
<path d="M30.1667 2.45833C30.1667 1.65625 29.5104 1 28.7084 1H18.5C17.6979 1 17.0417 1.65625 17.0417 2.45833V8.29167H30.1667V2.45833Z" fill="#F5F5F5" stroke="#F5F5F5" stroke-width="1.5" stroke-miterlimit="10" stroke-linecap="round" stroke-linejoin="round"/>
<path d="M34.9791 25.7917H9.74998L6.83331 8.29169H40.375L37.8958 23.3854C37.6041 24.7709 36.4375 25.7917 34.9791 25.7917Z" stroke="#F5F5F5" stroke-width="1.5" stroke-miterlimit="10" stroke-linecap="round" stroke-linejoin="round"/>
<path d="M36.7292 30.1667H10.3334C9.16669 30.1667 8.29169 29.2188 8.29169 28.125C8.29169 27.5417 8.51044 27.0313 8.87502 26.6667L9.75002 25.7917" stroke="#F5F5F5" stroke-width="1.5" stroke-miterlimit="10" stroke-linecap="round" stroke-linejoin="round"/>
<path d="M1 2.45831H4.20833C4.86458 2.45831 5.44792 2.89581 5.59375 3.55206L6.83333 8.29165" stroke="#F5F5F5" stroke-width="1.5" stroke-miterlimit="10" stroke-linecap="round" stroke-linejoin="round"/>
<path d="M33.8125 12.6667H30.8958" stroke="#F5F5F5" stroke-width="1.5" stroke-miterlimit="10" stroke-linecap="round" stroke-linejoin="round"/>
<path d="M27.9792 12.6667H25.0625" stroke="#F5F5F5" stroke-width="1.5" stroke-miterlimit="10" stroke-linecap="round" stroke-linejoin="round"/>
<path d="M22.1459 12.6667H19.2292" stroke="#F5F5F5" stroke-width="1.5" stroke-miterlimit="10" stroke-linecap="round" stroke-linejoin="round"/>
<path d="M16.3125 12.6667H13.3958" stroke="#F5F5F5" stroke-width="1.5" stroke-miterlimit="10" stroke-linecap="round" stroke-linejoin="round"/>
<path d="M33.8125 17.0417H30.8958" stroke="#F5F5F5" stroke-width="1.5" stroke-miterlimit="10" stroke-linecap="round" stroke-linejoin="round"/>
<path d="M27.9792 17.0417H25.0625" stroke="#F5F5F5" stroke-width="1.5" stroke-miterlimit="10" stroke-linecap="round" stroke-linejoin="round"/>
<path d="M22.1459 17.0417H19.2292" stroke="#F5F5F5" stroke-width="1.5" stroke-miterlimit="10" stroke-linecap="round" stroke-linejoin="round"/>
<path d="M16.3125 17.0417H13.3958" stroke="#F5F5F5" stroke-width="1.5" stroke-miterlimit="10" stroke-linecap="round" stroke-linejoin="round"/>
<path d="M33.8125 21.4167H30.8958" stroke="#F5F5F5" stroke-width="1.5" stroke-miterlimit="10" stroke-linecap="round" stroke-linejoin="round"/>
<path d="M27.9792 21.4167H25.0625" stroke="#F5F5F5" stroke-width="1.5" stroke-miterlimit="10" stroke-linecap="round" stroke-linejoin="round"/>
<path d="M22.1459 21.4167H19.2292" stroke="#F5F5F5" stroke-width="1.5" stroke-miterlimit="10" stroke-linecap="round" stroke-linejoin="round"/>
<path d="M16.3125 21.4167H13.3958" stroke="#F5F5F5" stroke-width="1.5" stroke-miterlimit="10" stroke-linecap="round" stroke-linejoin="round"/>
<path d="M30.8958 30.1667V31.625" stroke="#F5F5F5" stroke-width="1.5" stroke-miterlimit="10" stroke-linecap="round" stroke-linejoin="round"/>
<path d="M30.8958 36C32.1039 36 33.0833 35.0206 33.0833 33.8125C33.0833 32.6044 32.1039 31.625 30.8958 31.625C29.6877 31.625 28.7083 32.6044 28.7083 33.8125C28.7083 35.0206 29.6877 36 30.8958 36Z" fill="#F5F5F5" stroke="#F5F5F5" stroke-width="1.5" stroke-miterlimit="10" stroke-linecap="round" stroke-linejoin="round"/>
<path d="M13.3958 30.1667V31.625" stroke="#F5F5F5" stroke-width="1.5" stroke-miterlimit="10" stroke-linecap="round" stroke-linejoin="round"/>
<path d="M13.3958 36C14.6039 36 15.5833 35.0206 15.5833 33.8125C15.5833 32.6044 14.6039 31.625 13.3958 31.625C12.1877 31.625 11.2083 32.6044 11.2083 33.8125C11.2083 35.0206 12.1877 36 13.3958 36Z" fill="#F5F5F5" stroke="#F5F5F5" stroke-width="1.5" stroke-miterlimit="10" stroke-linecap="round" stroke-linejoin="round"/>
</svg>
