<?xml version="1.0" encoding="UTF-8"?> <svg xmlns="http://www.w3.org/2000/svg" fill="none" height="60" viewBox="0 0 60 60" width="60"> <g stroke="#f15833" stroke-linecap="round" stroke-linejoin="round" stroke-miterlimit="10" stroke-width="2.5"> <path d="m4 18v34c0 3.3 2.7 6 6 6h32c3.3 0 6-2.7 6-6v-24.3c0-1.1-.4-2.1-1.2-2.8l-11.6-11.7c-.8-.8-1.8-1.2-2.8-1.2h-20.4-2c-3.3 0-6 2.7-6 6z"></path> <path d="m10 12h22v-4c0-2.2-1.8-4-4-4h-14c-2.2 0-4 1.8-4 4z"></path> <path d="m51.3996 20.6-12.2-12.3c-.8-.8-.8-2 0-2.8l1.8-1.9c.8-.8 2.1-.8 2.9 0l12.2 12.3c.8.8.8 2 0 2.8l-1.8 1.9c-.8.7-2.1.7-2.9 0z"></path> <path d="m40.8998 10.3-4.1 4.2"></path> <path d="m49.9002 19.2-4.2 4.2"></path> <path d="m32 28h-12v14h12z"></path> <path d="m14 22 6 6"></path> <path d="m38 22-6 6"></path> <path d="m14 48 6-6"></path> <path d="m38 48-6-6"></path> <path d="m45.2998 5.29999-4.5 4.5"></path> <path d="m48.3998 8.29999-4.6 4.60001"></path> <path d="m51.3998 11.3-4.6 4.6"></path> <path d="m54.4004 14.4-4.5 4.5"></path> </g> </svg> 