<?xml version="1.0" encoding="UTF-8"?> <svg xmlns="http://www.w3.org/2000/svg" xmlns:xlink="http://www.w3.org/1999/xlink" fill="none" height="60" viewBox="0 0 60 60" width="60"> <clipPath id="a"> <path d="m0 0h60v60h-60z"></path> </clipPath> <g clip-path="url(#a)" stroke="#f15833" stroke-linecap="round" stroke-linejoin="round" stroke-width="2.5"> <g stroke-miterlimit="10"> <path clip-rule="evenodd" d="m29 59h-16c-1.1 0-2-.9-2-2v-32c0-1.1.9-2 2-2h16c1.1 0 2 .9 2 2v32c0 1.1-.9 2-2 2z" fill-rule="evenodd"></path> <path d="m23 9h-4v4h4z"></path> <path clip-rule="evenodd" d="m29 23h-16l3.4-5.1c.4-.6 1-.9 1.7-.9h5.9c.7 0 1.3.3 1.7.9z" fill-rule="evenodd"></path> <path d="m21 17v-4"></path> </g> <path d="m37.4998 3-8.7 5" stroke-dasharray="1 4"></path> <path d="m37.4998 19-8.7-5" stroke-dasharray="1 4"></path> <path d="m40 11h-8" stroke-dasharray="1 4" stroke-miterlimit="10"></path> <path d="m21 47c3.3137 0 6-2.6863 6-6s-2.6863-6-6-6-6 2.6863-6 6 2.6863 6 6 6z" stroke-miterlimit="10"></path> <path d="m41 21c2.2 0 4-1.8 4-4 0-.1 0-.2 0-.3 2.3-.8 4-3 4-5.7s-1.7-4.8-4-5.7c0-.1 0-.2 0-.3 0-2.2-1.8-4-4-4" stroke-miterlimit="10"></path> </g> </svg> 