<?xml version="1.0" encoding="UTF-8"?> <svg xmlns="http://www.w3.org/2000/svg" xmlns:xlink="http://www.w3.org/1999/xlink" fill="none" height="60" viewBox="0 0 60 60" width="60"> <clipPath id="a"> <path d="m0 0h60v60h-60z"></path> </clipPath> <g style="clip-path:url(#a);stroke:#f15833;stroke-width:2.5;stroke-miterlimit:10;stroke-linecap:round;stroke-linejoin:round"> <path clip-rule="evenodd" d="m1.20019 31.6 6.5 9.1c1.5 2.1 3.90001 3.4 6.50001 3.4h14.8c11.1 0 21.8-4.4 29.7-12.3.6-.6.2-1.7-.7-1.7h-14.1c-1.2 0-2.4-.5-3.2-1.4l-5.7-6.5c-1.2-1.4-3-2.2-4.9-2.2h-7.1v-2c0-1.1-.9-2-2-2h-2.7c-1.3 0-2.5.9-2.9 2.2l-3.4 11.8h-10.00001c-.8 0-1.299999.9-.8 1.6z" fill-rule="evenodd"></path> <path d="m36.4 24h-14.4c-1.3 0-2.5.9-2.9 2.2l-1.1 3.8h25"></path> <path d="m12 30h11"></path> <path d="m27 24v6"></path> <path d="m7 16h3"></path> <path d="m4 20h5"></path> <path d="m1 24h7"></path> </g> </svg> 