<?xml version="1.0" encoding="UTF-8"?> <svg xmlns="http://www.w3.org/2000/svg" xmlns:xlink="http://www.w3.org/1999/xlink" fill="none" height="60" viewBox="0 0 60 60" width="60"> <clipPath id="a"> <path d="m0 0h60v60h-60z"></path> </clipPath> <g style="clip-path:url(#a);stroke:#f15833;stroke-width:2.5;stroke-miterlimit:10;stroke-linecap:round;stroke-linejoin:round"> <path d="m48.3004 24.2.9-7.8c.5-4.3-2.1-8.3-6.3-9.7l-3.7-1.2c-1-.3-3.2-4.5-9.2-4.5s-8.2 4.2-9.2 4.5l-3.7 1.2c-4.1 1.3-6.7 5.4-6.2 9.7l.8999 7.8c.2 1.8 0 3.7-.5 5.5l-1.79995 6.3c-.9 3.2-.5 6.6 1.29995 9.5l3.2 5.5h32.0001l3.3-5.5c1.7-2.9 2.1999-6.3 1.2999-9.5l-1.7999-6.3c-.5-1.8-.7-3.6-.5-5.5z"></path> <path d="m46 59h-32c-2.2 0-4-1.8-4-4s1.8-4 4-4h32c2.2 0 4 1.8 4 4s-1.8 4-4 4z"></path> <path d="m17.2002 39.1s4.3-3.6 12.8-3.6c8.8 0 12.8 3.6 12.8 3.6"></path> <path d="m28 45v-3.5"></path> <path d="m32 45v-3.5"></path> <path d="m34.6 36.3-.6 2.7c-.6 1.5-2.1 2.5-3.7 2.5h-.5c-1.6 0-3.1-1-3.7-2.5l-.6-2.7"></path> <path d="m34 51v2c0 1.1-.9 2-2 2h-4c-1.1 0-2-.9-2-2v-2"></path> <path d="m35.9002 10.6-5.2 24.8"></path> <path d="m32.6006 27.2 2.7.5c1.1.2 2.1-.5 2.4-1.6l1.6-7.8c.2-1.1-.5-2.2-1.6-2.4l-2.7-.5"></path> <path d="m24.4004 10.6 5.3 24.8"></path> <path d="m27.6999 27.2-2.7.5c-1.1.2-2.1-.5-2.4-1.6l-1.6-7.8c-.2-1.1.5-2.2 1.6-2.4l2.7-.5"></path> <path d="m42.9005 14.6c-1.5-2.4-4.1-4-6.9-4.3-1.7-.2-3.7-.3-6-.3-2.2 0-4.2.1-5.8.3-2.9.3-5.5 1.9-7 4.3-1.4 2.2-1.8 4.8-1.2 7.3l2.1 8.5-.9 1.3c-1.4 2.1-1.7 4.6-1.1 7l1.1 3.9c.4 1.4 1.6 2.4 3.1 2.4h19.5c1.4 0 2.7-1 3.1-2.3l1.1-3.9c.7-2.4.3-5-1.1-7l-.9-1.4 2.1-8.5c.6-2.5.2-5.1-1.2-7.3z"></path> <path d="m42 44.3s1 3.1 0 6.5"></path> <path d="m18.0001 44.3s-1 3.1 0 6.5"></path> <path d="m39.3008 5.5.2 5.9"></path> <path d="m20.8006 5.5-.2 5.9"></path> <path d="m10.7002 32s3.2-.8 5 4.2"></path> <path d="m49.4004 32s-3.2-.8-5 4.2"></path> </g> </svg> 