<?xml version="1.0" encoding="UTF-8"?> <svg xmlns="http://www.w3.org/2000/svg" xmlns:xlink="http://www.w3.org/1999/xlink" fill="none" height="60" viewBox="0 0 60 60" width="60"> <clipPath id="a"> <path d="m0 0h60v60h-60z"></path> </clipPath> <g style="clip-path:url(#a);stroke:#f15833;stroke-width:2.5;stroke-miterlimit:10;stroke-linecap:round;stroke-linejoin:round"> <path d="m17 38h26"></path> <path d="m53 38h.6c3 0 5.4-2.4 5.4-5.4 0-2.6-1.9-4.9-4.5-5.3l-4.8-.8c-1.8-.3-3.4-1-4.8-2.2l-7.1-5.9c-1.8-1.6-4.1-2.4-6.4-2.4h-14c-3.3 0-6.3 1.9-7.8 4.8l-2.6 5.2h-1.2c-2.6 0-4.8 2.2-4.8 4.8v2.4c0 2.6 2.2 4.8 4.8 4.8h1.2"></path> <path d="m39.7996 20h-21.3c-2.1 0-4.1 1.2-5 3.1l-.5 1.1c-.5.8.1 1.8 1 1.8h34"></path> <path d="m21 26v-6"></path> <path d="m29 26v-6"></path> <path d="m55 32h3.8"></path> <path d="m31 30h2"></path> <path d="m12 44c2.7614 0 5-2.2386 5-5s-2.2386-5-5-5c-2.76142 0-5 2.2386-5 5s2.23858 5 5 5z"></path> <path d="m12 40c.5523 0 1-.4477 1-1s-.4477-1-1-1-1 .4477-1 1 .4477 1 1 1z"></path> <path d="m48 40c.5523 0 1-.4477 1-1s-.4477-1-1-1-1 .4477-1 1 .4477 1 1 1z"></path> <path d="m48 44c2.7614 0 5-2.2386 5-5s-2.2386-5-5-5-5 2.2386-5 5 2.2386 5 5 5z"></path> </g> </svg> 