<?xml version="1.0" encoding="UTF-8"?> <svg xmlns="http://www.w3.org/2000/svg" xmlns:xlink="http://www.w3.org/1999/xlink" fill="none" height="60" viewBox="0 0 60 60" width="60"> <clipPath id="a"> <path d="m0 0h60v60h-60z"></path> </clipPath> <g clip-path="url(#a)" stroke="#f15833" stroke-linejoin="round" stroke-width="2.5"> <path d="m3.5 36.9c-.8-.2-1.5-1-1.5-1.9v-5c0-1.7 1.3-3 3-3h1v-6c0-3.3 2.7-6 6-6h6.2c1.4 0 2.7.6 3.7 1.6l15.5 16.4" stroke-linecap="round" stroke-miterlimit="10"></path> <path d="m24.1 19h-11.5c-1.4 0-2.6 1.2-2.6 2.6v5.4c0 1.1.9 2 2 2h21.6" stroke-miterlimit="10"></path> <path d="m45 15c1.6569 0 3-1.3431 3-3s-1.3431-3-3-3-3 1.3431-3 3 1.3431 3 3 3z" stroke-linecap="round" stroke-miterlimit="10"></path> <path d="m46.2004 14.8-10.3 16.5" stroke-miterlimit="10"></path> <path d="m41.9998 12-12.7 12.5" stroke-miterlimit="10"></path> <path d="m56.7 34.6-7.7-8.7c-1.1 0-2-.9-2-2 0-1 .8-1.9 1.9-1.9h8c1.2 0 2.2 1 2.2 2.2v5.8c0 3.3-2.7 6-6 6h-.9" stroke-linecap="round" stroke-miterlimit="10"></path> <path d="m45 15 6 7" stroke-miterlimit="10"></path> <path d="m48 11.5 7 10.6" stroke-miterlimit="10"></path> <path d="m40.7 51h-29.7c-5 0-9-4-9-9s4-9 9-9h29.7c5 0 9 4 9 9s-4.1 9-9 9z" stroke-dasharray="2 3" stroke-linecap="round"></path> <g stroke-miterlimit="10"> <path d="m11 47c2.7614 0 5-2.2386 5-5s-2.2386-5-5-5c-2.76142 0-5 2.2386-5 5s2.23858 5 5 5z" stroke-linecap="round"></path> <path d="m11 43c.5523 0 1-.4477 1-1s-.4477-1-1-1-1 .4477-1 1 .4477 1 1 1z" stroke-linecap="round"></path> <path d="m21 47c2.7614 0 5-2.2386 5-5s-2.2386-5-5-5-5 2.2386-5 5 2.2386 5 5 5z" stroke-linecap="round"></path> <path d="m21 43c.5523 0 1-.4477 1-1s-.4477-1-1-1-1 .4477-1 1 .4477 1 1 1z" stroke-linecap="round"></path> <path d="m31 47c2.7614 0 5-2.2386 5-5s-2.2386-5-5-5-5 2.2386-5 5 2.2386 5 5 5z" stroke-linecap="round"></path> <path d="m31 43c.5523 0 1-.4477 1-1s-.4477-1-1-1-1 .4477-1 1 .4477 1 1 1z" stroke-linecap="round"></path> <path d="m41 47c2.7614 0 5-2.2386 5-5s-2.2386-5-5-5-5 2.2386-5 5 2.2386 5 5 5z" stroke-linecap="round"></path> <path d="m41 43c.5523 0 1-.4477 1-1s-.4477-1-1-1-1 .4477-1 1 .4477 1 1 1z" stroke-linecap="round"></path> <path d="m19.2002 19 5.4 10"></path> </g> </g> </svg> 