<?xml version="1.0" encoding="UTF-8"?> <svg xmlns="http://www.w3.org/2000/svg" xmlns:xlink="http://www.w3.org/1999/xlink" fill="none" height="60" viewBox="0 0 60 60" width="60"> <clipPath id="a"> <path d="m0 0h60v60h-60z"></path> </clipPath> <g style="clip-path:url(#a);stroke:#f15833;stroke-width:2.5;stroke-miterlimit:10;stroke-linecap:round;stroke-linejoin:round"> <path d="m20.0704 46.0709c3.9052-3.9052 3.9052-10.2368 0-14.142s-10.23677-3.9052-14.14198 0c-3.9052 3.9052-3.9052 10.2368 0 14.142 3.90521 3.9052 10.23678 3.9052 14.14198 0z"></path> <path d="m15.828 41.8283c1.5621-1.5621 1.5621-4.0947 0-5.6568s-4.0947-1.5621-5.6568 0c-1.56211 1.5621-1.56211 4.0947 0 5.6568 1.5621 1.5621 4.0947 1.5621 5.6568 0z"></path> <path d="m49.828 41.8285c1.5621-1.5621 1.5621-4.0947 0-5.6568s-4.0947-1.5621-5.6568 0-1.5621 4.0947 0 5.6568 4.0947 1.5621 5.6568 0z"></path> <path d="m22.8 41h11.2l13.8-9.7c2.4-1.9 3.2-5.3 1.8-8l-6.3-10.7c-.2-.4-.6-.6-1-.6-.7 0-1.2.6-1.2 1.3l.9 7.7h-8.1c-3.3 0-5.9 2.7-5.9 5.9v.1h-9.4l-4.9-4.9c-.7-.7-1.7-1.1-2.7-1.1h-3.9c-1.2 0-2.1.9-2.1 2.1 0 .6.2 1.1.6 1.5l4.7 4.7"></path> <path d="m43.5 34.3 3.5 4.7"></path> <path d="m28 27h14"></path> <path d="m49.4996 29.3c4.6 1.2 8 5.6 7.5 10.7-.5 4.6-4.2 8.4-8.8 8.9-6 .7-11.1-4-11.1-9.9v-.1"></path> </g> </svg> 