<?xml version="1.0" encoding="UTF-8"?> <svg xmlns="http://www.w3.org/2000/svg" xmlns:xlink="http://www.w3.org/1999/xlink" fill="none" height="60" viewBox="0 0 60 60" width="60"> <clipPath id="a"> <path d="m0 0h60v60h-60z"></path> </clipPath> <g style="clip-path:url(#a);stroke:#f15833;stroke-width:2.5;stroke-miterlimit:10;stroke-linecap:round;stroke-linejoin:round"> <path d="m43.6998 25.8-9.9-9.9 12.7-11.2c2.4-2.1 6-2 8.2.3 2.2 2.2 2.3 5.8.3 8.2z"></path> <path d="m23.4002 45.3-9.1-9.1c-.8-.8-.8-2 0-2.8l10.5-10.5 11.9 11.9-10.4 10.5c-.8.8-2.1.8-2.9 0z"></path> <path d="m9.4998 55.2-5.1-5.1c-.8-.8-.8-2 0-2.8l10.5-10.5 7.9 7.9-10.4 10.5c-.8.8-2.1.8-2.9 0z"></path> <path d="m16.9 50.7-7.2 7.2c-1.5 1.5-4 1.5-5.5 0l-2.2-2.3"></path> <path d="m39.3002 37.3-17-17c-.8-.8-.8-2 0-2.8l5.1-5.1c.8-.8 2-.8 2.8 0l17 17c.8.8.8 2 0 2.8l-5.1 5.1c-.7.8-2 .8-2.8 0z"></path> <path d="m10.9004 40.7 8 8"></path> <path d="m7 44.7 7.9 8"></path> <path d="m54.5996 5 4-4"></path> <path d="m6 53.6 1-.9"></path> <path d="m38.7998 20.9-8 7.9"></path> <path d="m16.9004 30.8 3 3"></path> <path d="m23.9004 37.8 4.9 4.9"></path> </g> </svg> 