<?xml version="1.0" encoding="UTF-8"?> <svg xmlns="http://www.w3.org/2000/svg" xmlns:xlink="http://www.w3.org/1999/xlink" fill="none" height="60" viewBox="0 0 60 60" width="60"> <clipPath id="a"> <path d="m0 0h60v60h-60z"></path> </clipPath> <g style="clip-path:url(#a);stroke:#f15833;stroke-width:2.5;stroke-miterlimit:10;stroke-linecap:round;stroke-linejoin:round"> <path d="m29 35h-24v4h24z"></path> <path d="m33 35c2.2 0 4-1.8 4-4l-.1-17.1c.1-.5.5-.9 1-.9h6.1v-3h-9c-1 0-1.8.7-2 1.7v3.3h-32v20z"></path> <path d="m59 33h-3"></path> <path d="m59 28h-13v-7h8l5 5z"></path> <path d="m13 15v20"></path> <path d="m7 15v20"></path> <path d="m25 15v20"></path> <path d="m19 15v20"></path> <path d="m31 15v20"></path> <path d="m11 39h-8c-1.1 0-2 .9-2 2v1c0 1.1.9 2 2 2h2.1"></path> <path d="m24 39h-13"></path> <path d="m16.9004 44h1.2"></path> <path d="m54 44h1c2.2 0 4-1.8 4-4v-14l-8.1-8.1c-.6-.6-1.3-.9-2.1-.9h-7.8v22h-17"></path> <path d="m29.9004 44h12.2"></path> <path d="m11 51c3.3137 0 6-2.6863 6-6s-2.6863-6-6-6c-3.31371 0-6 2.6863-6 6s2.68629 6 6 6z"></path> <path d="m48 51c3.3137 0 6-2.6863 6-6s-2.6863-6-6-6-6 2.6863-6 6 2.6863 6 6 6z"></path> <path d="m48 47c1.1046 0 2-.8954 2-2s-.8954-2-2-2-2 .8954-2 2 .8954 2 2 2z"></path> <path d="m11 47c1.1046 0 2-.8954 2-2s-.8954-2-2-2c-1.10457 0-2 .8954-2 2s.89543 2 2 2z"></path> <path d="m24 51c3.3137 0 6-2.6863 6-6s-2.6863-6-6-6-6 2.6863-6 6 2.6863 6 6 6z"></path> <path d="m24 47c1.1046 0 2-.8954 2-2s-.8954-2-2-2-2 .8954-2 2 .8954 2 2 2z"></path> </g> </svg> 