<?xml version="1.0" encoding="UTF-8"?> <svg xmlns="http://www.w3.org/2000/svg" xmlns:xlink="http://www.w3.org/1999/xlink" fill="none" height="60" viewBox="0 0 60 60" width="60"> <clipPath id="a"> <path d="m0 0h60v60h-60z"></path> </clipPath> <g style="clip-path:url(#a);stroke:#f15833;stroke-width:2.5;stroke-miterlimit:10;stroke-linecap:round;stroke-linejoin:round"> <path d="m37 8.79999 1 1.70001"></path> <path d="m36 49.5 1 1.7"></path> <path d="m58.2 30-1.7 1"></path> <path d="m52 15-.5 1.9"></path> <path d="m22.5 43.1-.5 1.9"></path> <path d="m52.0006 45-1.9-.5"></path> <path d="m45.1006 10.4.3 1.9"></path> <path d="m28.6006 47.7.3 1.9"></path> <path d="m56.6002 38.1-1.9.3"></path> <path d="m43.6006 48.4 1.5 1.2"></path> <path d="m56.6004 21.9-1.2 1.5"></path> <path d="m18.6004 36.6-1.2 1.5"></path> <path d="m23.6006 34c1.7 5.8 7.1 10 13.4 10 7.7 0 14-6.3 14-14s-6.3-14-14-14c-.4 0-.8 0-1.2.1"></path> <path d="m27.8008 34c1.5 3.5 5.1 6 9.2 6 5.5 0 10-4.5 10-10 0-5.2-3.9-9.4-8.9-9.9"></path> <path d="m37 34v6"></path> <path d="m40.4004 32 5.2 3"></path> <path d="m45.6 25.1-5.1 2.9"></path> <path d="m33.6004 32-5.2 3"></path> <path d="m37 34c2.2091 0 4-1.7909 4-4s-1.7909-4-4-4-4 1.7909-4 4 1.7909 4 4 4z"></path> <path d="m37 30.5c.2761 0 .5-.2239.5-.5s-.2239-.5-.5-.5-.5.2239-.5.5.2239.5.5.5z"></path> <path d="m27 22h-12"></path> <path d="m9 16h11"></path> <path d="m37 26-9-13.5c-1.9-2.8-5-4.5-8.4-4.5h-18.6c0 4.4 3.6 8 8 8 0 3.3 2.7 6 6 6 0 3.3 2.7 6 6 6h12"></path> <path d="m15.4 30.3-.4.5c.1 2.4.6 4.7 1.4 6.9l.9.5-.3 1c1 2.2 2.3 4.1 3.9 5.8l1 .1.1 1c1.7 1.6 3.7 2.9 5.8 3.9l1-.3.5.9c2.2.8 4.5 1.3 6.9 1.4l.8-.6.8.6c2.4-.1 4.7-.6 6.9-1.4l.5-.9 1 .3c2.2-1 4.1-2.3 5.8-3.9l.1-1 1-.1c1.6-1.7 2.9-3.7 3.9-5.8l-.3-1 .9-.5c.8-2.2 1.3-4.5 1.4-6.9l-.6-.8.6-.8c-.1-2.4-.6-4.7-1.4-6.9l-.9-.5.3-1c-1-2.2-2.3-4.1-3.9-5.8l-1-.1-.1-1c-1.7-1.6-3.7-2.9-5.8-3.9l-1 .3-.5-.9c-2.2-.8-4.5-1.3-6.9-1.4l-.8.6-.8-.6c-2 .1-4 .4-5.8 1"></path> <path d="m6 32h5"></path> <path d="m5 24h4"></path> <path d="m5 28h6"></path> <path d="m2 28h-1"></path> <path d="m7 44h8"></path> <path d="m9 36h-6"></path> <path d="m13 40h-4"></path> <path d="m18 48h-5"></path> </g> </svg> 